%TF.GenerationSoftware,KiCad,Pcbnew,7.0.8*%
%TF.CreationDate,2024-04-10T10:35:42+02:00*%
%TF.ProjectId,ESLGSU_Adapter,45534c47-5355-45f4-9164-61707465722e,rev?*%
%TF.SameCoordinates,Original*%
%TF.FileFunction,Copper,L3,Inr*%
%TF.FilePolarity,Positive*%
%FSLAX46Y46*%
G04 Gerber Fmt 4.6, Leading zero omitted, Abs format (unit mm)*
G04 Created by KiCad (PCBNEW 7.0.8) date 2024-04-10 10:35:42*
%MOMM*%
%LPD*%
G01*
G04 APERTURE LIST*
%TA.AperFunction,ComponentPad*%
%ADD10R,1.700000X1.700000*%
%TD*%
%TA.AperFunction,ComponentPad*%
%ADD11O,1.700000X1.700000*%
%TD*%
%TA.AperFunction,ViaPad*%
%ADD12C,0.450000*%
%TD*%
%TA.AperFunction,Conductor*%
%ADD13C,0.254000*%
%TD*%
%TA.AperFunction,Conductor*%
%ADD14C,0.508000*%
%TD*%
%TA.AperFunction,Conductor*%
%ADD15C,2.000000*%
%TD*%
G04 APERTURE END LIST*
D10*
%TO.N,/CAN1_L*%
%TO.C,J5*%
X122245000Y-55890000D03*
D11*
%TO.N,unconnected-(J5-Pin_2-Pad2)*%
X124785000Y-55890000D03*
%TO.N,/CAN1_H*%
X122245000Y-58430000D03*
%TO.N,unconnected-(J5-Pin_4-Pad4)*%
X124785000Y-58430000D03*
%TO.N,unconnected-(J5-Pin_5-Pad5)*%
X122245000Y-60970000D03*
%TO.N,unconnected-(J5-Pin_6-Pad6)*%
X124785000Y-60970000D03*
%TO.N,unconnected-(J5-Pin_7-Pad7)*%
X122245000Y-63510000D03*
%TO.N,unconnected-(J5-Pin_8-Pad8)*%
X124785000Y-63510000D03*
%TO.N,unconnected-(J5-Pin_9-Pad9)*%
X122245000Y-66050000D03*
%TO.N,unconnected-(J5-Pin_10-Pad10)*%
X124785000Y-66050000D03*
%TO.N,unconnected-(J5-Pin_11-Pad11)*%
X122245000Y-68590000D03*
%TO.N,unconnected-(J5-Pin_12-Pad12)*%
X124785000Y-68590000D03*
%TO.N,/RS4851_A*%
X122245000Y-71130000D03*
%TO.N,/RS4852_A*%
X124785000Y-71130000D03*
%TO.N,/RS4851_B*%
X122245000Y-73670000D03*
%TO.N,/RS4852_B*%
X124785000Y-73670000D03*
%TO.N,unconnected-(J5-Pin_17-Pad17)*%
X122245000Y-76210000D03*
%TO.N,unconnected-(J5-Pin_18-Pad18)*%
X124785000Y-76210000D03*
%TO.N,/UART1_TX*%
X122245000Y-78750000D03*
%TO.N,/UART1_RX*%
X124785000Y-78750000D03*
%TO.N,/I2C1_SCL*%
X122245000Y-81290000D03*
%TO.N,unconnected-(J5-Pin_22-Pad22)*%
X124785000Y-81290000D03*
%TO.N,/I2C1_SDA*%
X122245000Y-83830000D03*
%TO.N,unconnected-(J5-Pin_24-Pad24)*%
X124785000Y-83830000D03*
%TO.N,/GPIO_1*%
X122245000Y-86370000D03*
X124785000Y-86370000D03*
%TO.N,unconnected-(J5-Pin_27-Pad27)*%
X122245000Y-88910000D03*
%TO.N,unconnected-(J5-Pin_28-Pad28)*%
X124785000Y-88910000D03*
%TO.N,unconnected-(J5-Pin_29-Pad29)*%
X122245000Y-91450000D03*
%TO.N,unconnected-(J5-Pin_30-Pad30)*%
X124785000Y-91450000D03*
%TO.N,unconnected-(J5-Pin_31-Pad31)*%
X122245000Y-93990000D03*
%TO.N,unconnected-(J5-Pin_32-Pad32)*%
X124785000Y-93990000D03*
%TO.N,/GPIO_2*%
X122245000Y-96530000D03*
%TO.N,GND*%
X124785000Y-96530000D03*
%TO.N,/GPIO_3*%
X122245000Y-99070000D03*
%TO.N,unconnected-(J5-Pin_36-Pad36)*%
X124785000Y-99070000D03*
%TO.N,/GPIO_4*%
X122245000Y-101610000D03*
%TO.N,unconnected-(J5-Pin_38-Pad38)*%
X124785000Y-101610000D03*
%TO.N,/UART2_TX*%
X122245000Y-104150000D03*
%TO.N,/UART2_RX*%
X124785000Y-104150000D03*
%TO.N,/I2C2_SDA*%
X122245000Y-106690000D03*
%TO.N,unconnected-(J5-Pin_42-Pad42)*%
X124785000Y-106690000D03*
%TO.N,/I2C2_SCL*%
X122245000Y-109230000D03*
%TO.N,unconnected-(J5-Pin_44-Pad44)*%
X124785000Y-109230000D03*
%TO.N,unconnected-(J5-Pin_45-Pad45)*%
X122245000Y-111770000D03*
%TO.N,unconnected-(J5-Pin_46-Pad46)*%
X124785000Y-111770000D03*
%TO.N,unconnected-(J5-Pin_47-Pad47)*%
X122245000Y-114310000D03*
%TO.N,unconnected-(J5-Pin_48-Pad48)*%
X124785000Y-114310000D03*
%TO.N,/5V_S2*%
X122245000Y-116850000D03*
%TO.N,/3V3_S2*%
X124785000Y-116850000D03*
%TO.N,/5V_S1*%
X122245000Y-119390000D03*
%TO.N,/3V3_S1*%
X124785000Y-119390000D03*
%TD*%
D10*
%TO.N,/CAN2_L*%
%TO.C,J6*%
X127325000Y-55890000D03*
D11*
%TO.N,unconnected-(J6-Pin_2-Pad2)*%
X129865000Y-55890000D03*
%TO.N,/CAN2_H*%
X127325000Y-58430000D03*
%TO.N,unconnected-(J6-Pin_4-Pad4)*%
X129865000Y-58430000D03*
%TO.N,/GPIO_5*%
X127325000Y-60970000D03*
%TO.N,/GPIO_6*%
X129865000Y-60970000D03*
%TO.N,/GPIO_7*%
X127325000Y-63510000D03*
%TO.N,/GPIO_8*%
X129865000Y-63510000D03*
%TO.N,/SPI1_MISO*%
X127325000Y-66050000D03*
%TO.N,/SPI1_MOSI*%
X129865000Y-66050000D03*
%TO.N,/SPI1_SCK*%
X127325000Y-68590000D03*
%TO.N,/SPI1_NSS*%
X129865000Y-68590000D03*
%TO.N,unconnected-(J6-Pin_13-Pad13)*%
X127325000Y-71130000D03*
%TO.N,unconnected-(J6-Pin_14-Pad14)*%
X129865000Y-71130000D03*
%TO.N,unconnected-(J6-Pin_15-Pad15)*%
X127325000Y-73670000D03*
%TO.N,unconnected-(J6-Pin_16-Pad16)*%
X129865000Y-73670000D03*
%TO.N,/GPIO_5*%
X127325000Y-76210000D03*
%TO.N,/GPIO_6*%
X129865000Y-76210000D03*
%TO.N,/GPIO_7*%
X127325000Y-78750000D03*
%TO.N,/GPIO_8*%
X129865000Y-78750000D03*
%TO.N,unconnected-(J6-Pin_21-Pad21)*%
X127325000Y-81290000D03*
%TO.N,unconnected-(J6-Pin_22-Pad22)*%
X129865000Y-81290000D03*
%TO.N,/BUS_CH1*%
X127325000Y-83830000D03*
X129865000Y-83830000D03*
%TO.N,/BUS_5V*%
X127325000Y-86370000D03*
X129865000Y-86370000D03*
%TO.N,/BUS_3V3*%
X127325000Y-88910000D03*
X129865000Y-88910000D03*
%TO.N,GND*%
X127325000Y-91450000D03*
X129865000Y-91450000D03*
X127325000Y-93990000D03*
X129865000Y-93990000D03*
%TO.N,unconnected-(J6-Pin_33-Pad33)*%
X127325000Y-96530000D03*
%TO.N,unconnected-(J6-Pin_34-Pad34)*%
X129865000Y-96530000D03*
%TO.N,unconnected-(J6-Pin_35-Pad35)*%
X127325000Y-99070000D03*
%TO.N,unconnected-(J6-Pin_36-Pad36)*%
X129865000Y-99070000D03*
%TO.N,unconnected-(J6-Pin_37-Pad37)*%
X127325000Y-101610000D03*
%TO.N,unconnected-(J6-Pin_38-Pad38)*%
X129865000Y-101610000D03*
%TO.N,unconnected-(J6-Pin_39-Pad39)*%
X127325000Y-104150000D03*
%TO.N,unconnected-(J6-Pin_40-Pad40)*%
X129865000Y-104150000D03*
%TO.N,unconnected-(J6-Pin_41-Pad41)*%
X127325000Y-106690000D03*
%TO.N,unconnected-(J6-Pin_42-Pad42)*%
X129865000Y-106690000D03*
%TO.N,unconnected-(J6-Pin_43-Pad43)*%
X127325000Y-109230000D03*
%TO.N,unconnected-(J6-Pin_44-Pad44)*%
X129865000Y-109230000D03*
%TO.N,/BUS_UNREG*%
X127325000Y-111770000D03*
X129865000Y-111770000D03*
%TO.N,/SPI2_MISO*%
X127325000Y-114310000D03*
%TO.N,/SPI2_MOSI*%
X129865000Y-114310000D03*
%TO.N,/SPI2_SCK*%
X127325000Y-116850000D03*
%TO.N,/SPI2_NSS*%
X129865000Y-116850000D03*
%TO.N,unconnected-(J6-Pin_51-Pad51)*%
X127325000Y-119390000D03*
%TO.N,unconnected-(J6-Pin_52-Pad52)*%
X129865000Y-119390000D03*
%TD*%
D10*
%TO.N,/BUS_UNREG*%
%TO.C,J7*%
X75570000Y-86460000D03*
D11*
%TO.N,GND*%
X78110000Y-86460000D03*
%TO.N,/BUS_5V*%
X80650000Y-86460000D03*
%TO.N,/5V_S1*%
X83190000Y-86460000D03*
%TO.N,/5V_S2*%
X85730000Y-86460000D03*
%TO.N,/3V3_S2*%
X88270000Y-86460000D03*
%TO.N,/3V3_S1*%
X90810000Y-86460000D03*
%TO.N,/BUS_3V3*%
X93350000Y-86460000D03*
%TO.N,GND*%
X95890000Y-86460000D03*
%TO.N,unconnected-(J7-Pin_10-Pad10)*%
X98430000Y-86460000D03*
%TO.N,/I2C1_SCL*%
X98430000Y-89000000D03*
%TO.N,GND*%
X95890000Y-89000000D03*
%TO.N,/I2C1_SDA*%
X93350000Y-89000000D03*
%TO.N,/GPIO_4*%
X90810000Y-89000000D03*
%TO.N,/GPIO_3*%
X88270000Y-89000000D03*
%TO.N,/GPIO_2*%
X85730000Y-89000000D03*
%TO.N,/GPIO_1*%
X83190000Y-89000000D03*
%TO.N,/RS4851_B*%
X80650000Y-89000000D03*
%TO.N,GND*%
X78110000Y-89000000D03*
%TO.N,/RS4851_A*%
X75570000Y-89000000D03*
%TD*%
D10*
%TO.N,unconnected-(J4-Pin_1-Pad1)*%
%TO.C,J4*%
X75570000Y-95380000D03*
D11*
%TO.N,GND*%
X78110000Y-95380000D03*
%TO.N,/BUS_5V*%
X80650000Y-95380000D03*
%TO.N,/5V_S1*%
X83190000Y-95380000D03*
%TO.N,/5V_S2*%
X85730000Y-95380000D03*
%TO.N,/3V3_S2*%
X88270000Y-95380000D03*
%TO.N,/3V3_S1*%
X90810000Y-95380000D03*
%TO.N,/BUS_3V3*%
X93350000Y-95380000D03*
%TO.N,GND*%
X95890000Y-95380000D03*
%TO.N,/BUS_UNREG*%
X98430000Y-95380000D03*
%TO.N,/I2C1_SCL*%
X98430000Y-97920000D03*
%TO.N,GND*%
X95890000Y-97920000D03*
%TO.N,/I2C1_SDA*%
X93350000Y-97920000D03*
%TO.N,/GPIO_4*%
X90810000Y-97920000D03*
%TO.N,/GPIO_3*%
X88270000Y-97920000D03*
%TO.N,/GPIO_2*%
X85730000Y-97920000D03*
%TO.N,/GPIO_1*%
X83190000Y-97920000D03*
%TO.N,/RS4851_B*%
X80650000Y-97920000D03*
%TO.N,GND*%
X78110000Y-97920000D03*
%TO.N,/RS4851_A*%
X75570000Y-97920000D03*
%TD*%
D10*
%TO.N,GND*%
%TO.C,J3*%
X46990000Y-55346600D03*
D11*
%TO.N,/BUS_UNREG*%
X49530000Y-55346600D03*
%TO.N,GND*%
X46990000Y-57886600D03*
%TO.N,/BUS_UNREG*%
X49530000Y-57886600D03*
%TO.N,GND*%
X46990000Y-60426600D03*
%TO.N,/BUS_5V*%
X49530000Y-60426600D03*
%TO.N,GND*%
X46990000Y-62966600D03*
%TO.N,/5V_S1*%
X49530000Y-62966600D03*
%TO.N,GND*%
X46990000Y-65506600D03*
%TO.N,/5V_S2*%
X49530000Y-65506600D03*
%TO.N,unconnected-(J3-Pin_11-Pad11)*%
X46990000Y-68046600D03*
%TO.N,unconnected-(J3-Pin_12-Pad12)*%
X49530000Y-68046600D03*
%TO.N,GND*%
X46990000Y-70586600D03*
%TO.N,/3V3_S1*%
X49530000Y-70586600D03*
%TO.N,GND*%
X46990000Y-73126600D03*
%TO.N,/3V3_S2*%
X49530000Y-73126600D03*
%TO.N,unconnected-(J3-Pin_17-Pad17)*%
X46990000Y-75666600D03*
%TO.N,unconnected-(J3-Pin_18-Pad18)*%
X49530000Y-75666600D03*
%TO.N,GND*%
X46990000Y-78206600D03*
%TO.N,/BUS_3V3*%
X49530000Y-78206600D03*
%TO.N,unconnected-(J3-Pin_21-Pad21)*%
X46990000Y-80746600D03*
%TO.N,unconnected-(J3-Pin_22-Pad22)*%
X49530000Y-80746600D03*
%TO.N,unconnected-(J3-Pin_23-Pad23)*%
X46990000Y-83286600D03*
%TO.N,unconnected-(J3-Pin_24-Pad24)*%
X49530000Y-83286600D03*
%TO.N,unconnected-(J3-Pin_25-Pad25)*%
X46990000Y-85826600D03*
%TO.N,unconnected-(J3-Pin_26-Pad26)*%
X49530000Y-85826600D03*
%TO.N,unconnected-(J3-Pin_27-Pad27)*%
X46990000Y-88366600D03*
%TO.N,unconnected-(J3-Pin_28-Pad28)*%
X49530000Y-88366600D03*
%TO.N,unconnected-(J3-Pin_29-Pad29)*%
X46990000Y-90906600D03*
%TO.N,/GPIO_5*%
X49530000Y-90906600D03*
%TO.N,unconnected-(J3-Pin_31-Pad31)*%
X46990000Y-93446600D03*
%TO.N,/GPIO_4*%
X49530000Y-93446600D03*
%TO.N,unconnected-(J3-Pin_33-Pad33)*%
X46990000Y-95986600D03*
%TO.N,/GPIO_3*%
X49530000Y-95986600D03*
%TO.N,unconnected-(J3-Pin_35-Pad35)*%
X46990000Y-98526600D03*
%TO.N,/GPIO_1*%
X49530000Y-98526600D03*
%TO.N,unconnected-(J3-Pin_37-Pad37)*%
X46990000Y-101066600D03*
%TO.N,/CAN1_L*%
X49530000Y-101066600D03*
%TO.N,GND*%
X46990000Y-103606600D03*
%TO.N,/CAN1_H*%
X49530000Y-103606600D03*
%TO.N,unconnected-(J3-Pin_41-Pad41)*%
X46990000Y-106146600D03*
%TO.N,/UART1_RX*%
X49530000Y-106146600D03*
%TO.N,unconnected-(J3-Pin_43-Pad43)*%
X46990000Y-108686600D03*
%TO.N,/UART1_TX*%
X49530000Y-108686600D03*
%TO.N,GND*%
X46990000Y-111226600D03*
%TO.N,/I2C1_SDA*%
X49530000Y-111226600D03*
%TO.N,unconnected-(J3-Pin_47-Pad47)*%
X46990000Y-113766600D03*
%TO.N,/I2C1_SCL*%
X49530000Y-113766600D03*
%TO.N,unconnected-(J3-Pin_49-Pad49)*%
X46990000Y-116306600D03*
%TO.N,/GPIO_2*%
X49530000Y-116306600D03*
%TO.N,unconnected-(J3-Pin_51-Pad51)*%
X46990000Y-118846600D03*
%TO.N,unconnected-(J3-Pin_52-Pad52)*%
X49530000Y-118846600D03*
%TD*%
D12*
%TO.N,GND*%
X86500000Y-69000000D03*
X68250000Y-123750000D03*
X82250000Y-69000000D03*
X89850000Y-132750000D03*
X76000000Y-123750000D03*
X67500000Y-123750000D03*
X85750000Y-69000000D03*
X75250000Y-123000000D03*
X79800000Y-77100000D03*
X75250000Y-124500000D03*
X105500000Y-130750000D03*
X89400000Y-77100000D03*
X87000000Y-77100000D03*
X81500000Y-69000000D03*
X93750000Y-130750000D03*
X87250000Y-69000000D03*
X82200000Y-77100000D03*
X84600000Y-77100000D03*
X76000000Y-123000000D03*
X110750000Y-130750000D03*
X94500000Y-77000000D03*
X76000000Y-124500000D03*
X75250000Y-123750000D03*
X117300000Y-132550000D03*
X68250000Y-124500000D03*
X91800000Y-77100000D03*
X68250000Y-123000000D03*
X80750000Y-69000000D03*
X67500000Y-124500000D03*
X60500000Y-126400000D03*
X101121497Y-130750000D03*
X82500000Y-126000000D03*
X67500000Y-123000000D03*
%TO.N,/GPIO_8*%
X90900000Y-68800000D03*
X93250000Y-128250000D03*
%TO.N,/GPIO_7*%
X94750000Y-130750000D03*
X91500000Y-68500000D03*
X124000000Y-53750000D03*
%TO.N,/GPIO_6*%
X94878503Y-128250000D03*
X91500000Y-67871497D03*
%TO.N,/GPIO_5*%
X95750000Y-130750000D03*
X77250000Y-72277000D03*
%TO.N,/GPIO_4*%
X93750000Y-99500000D03*
X118000000Y-63250000D03*
X96500000Y-128250000D03*
%TO.N,/GPIO_3*%
X93750000Y-100750000D03*
X96750000Y-130750000D03*
%TO.N,/GPIO_2*%
X94750000Y-96500000D03*
X97128503Y-128250000D03*
%TO.N,/GPIO_1*%
X97500000Y-101000000D03*
X97750000Y-130750000D03*
%TO.N,/5V_S2*%
X98250000Y-128250000D03*
X103249998Y-89250000D03*
%TO.N,/SPI2_NSS*%
X98378503Y-130750000D03*
%TO.N,/SPI2_SCK*%
X99500000Y-128250000D03*
%TO.N,/SPI2_MOSI*%
X99750000Y-130750000D03*
%TO.N,/SPI2_MISO*%
X100128503Y-128250000D03*
%TO.N,/SPI1_NSS*%
X101500000Y-128250000D03*
X95500000Y-73000000D03*
%TO.N,/SPI1_SCK*%
X101750000Y-130750000D03*
X94500000Y-68800000D03*
%TO.N,/SPI1_MOSI*%
X102128503Y-128250000D03*
X95700000Y-68800000D03*
%TO.N,/SPI1_MISO*%
X95100000Y-68500000D03*
X102750000Y-130750000D03*
%TO.N,/5V_S1*%
X103250000Y-128250000D03*
X105658002Y-90592000D03*
%TO.N,/I2C2_SDA*%
X103500000Y-130750000D03*
%TO.N,/I2C2_SCL*%
X104371497Y-128250000D03*
%TO.N,/I2C1_SDA*%
X104750000Y-83750000D03*
X95700000Y-77000000D03*
X105719000Y-113219000D03*
X104750000Y-130750000D03*
%TO.N,/I2C1_SCL*%
X105000000Y-113750000D03*
X105000000Y-128250000D03*
X103500000Y-81250000D03*
X95100000Y-77299988D03*
%TO.N,/UART2_RX*%
X106371497Y-128250000D03*
%TO.N,/UART2_TX*%
X106750000Y-130750000D03*
%TO.N,/UART1_RX*%
X107000000Y-111250000D03*
X107250000Y-78750000D03*
X107000000Y-128250000D03*
%TO.N,/UART1_TX*%
X107719000Y-112000000D03*
X108250000Y-80000000D03*
X107750000Y-130750000D03*
%TO.N,/3V3_S2*%
X108250000Y-128250000D03*
X81000000Y-77500000D03*
X110000000Y-93750000D03*
%TO.N,/RS4852_B*%
X108750000Y-130750000D03*
X109000000Y-74750000D03*
%TO.N,/RS4852_A*%
X108500000Y-77250000D03*
X109000000Y-128250000D03*
%TO.N,/RS4851_B*%
X109250000Y-73250000D03*
X109750000Y-130750000D03*
X111000000Y-101750000D03*
%TO.N,/RS4851_A*%
X110500000Y-128250000D03*
X109500000Y-71500000D03*
X111462000Y-104250000D03*
%TO.N,/CAN2_H*%
X111128503Y-128250000D03*
%TO.N,/CAN2_L*%
X111750000Y-130750000D03*
%TO.N,/CAN1_H*%
X112500000Y-128250000D03*
X116000000Y-110750000D03*
%TO.N,/CAN1_L*%
X112750000Y-130750000D03*
X117000000Y-110250000D03*
%TO.N,/3V3_S1*%
X78500000Y-77500000D03*
X113250000Y-95250000D03*
X113250000Y-128250000D03*
%TO.N,/BUS_CH1*%
X78250000Y-128000000D03*
X78250000Y-128750000D03*
X78250000Y-129500000D03*
X77500000Y-129500000D03*
X77500000Y-128750000D03*
X77500000Y-128000000D03*
%TO.N,/BUS_UNREG*%
X69750000Y-85750000D03*
X73250000Y-104000000D03*
X73750000Y-63750000D03*
X84750000Y-69000000D03*
X73250000Y-128000000D03*
X83250000Y-69000000D03*
X70000000Y-129500000D03*
X72500000Y-104750000D03*
X73250000Y-128750000D03*
X74000000Y-104000000D03*
X70750000Y-128750000D03*
X68250000Y-85000000D03*
X74500000Y-63000000D03*
X73250000Y-129500000D03*
X72500000Y-128750000D03*
X70000000Y-128000000D03*
X69000000Y-85000000D03*
X74500000Y-63750000D03*
X69000000Y-85750000D03*
X70000000Y-128750000D03*
X73250000Y-104750000D03*
X69750000Y-85000000D03*
X73750000Y-63000000D03*
X73000000Y-63000000D03*
X84000000Y-69000000D03*
X73000000Y-63750000D03*
X72500000Y-104000000D03*
X70750000Y-128000000D03*
X72500000Y-128000000D03*
X74000000Y-104750000D03*
X72500000Y-129500000D03*
X68250000Y-85750000D03*
X70750000Y-129500000D03*
%TO.N,/BUS_5V*%
X65250000Y-64000000D03*
X66000000Y-64750000D03*
X65250000Y-86500000D03*
X66000000Y-85750000D03*
X65750000Y-128750000D03*
X66000000Y-85000000D03*
X65750000Y-129500000D03*
X65000000Y-129500000D03*
X65250000Y-64750000D03*
X66000000Y-86500000D03*
X66000000Y-64000000D03*
X65250000Y-85000000D03*
X65250000Y-65500000D03*
X66000000Y-65500000D03*
X65250000Y-85750000D03*
X65000000Y-128000000D03*
X65000000Y-128750000D03*
X65750000Y-128000000D03*
%TO.N,/BUS_3V3*%
X63250000Y-123750000D03*
X78500000Y-68250000D03*
X62500000Y-123000000D03*
X62500000Y-123750000D03*
X78500000Y-69000000D03*
X79250000Y-69000000D03*
X63250000Y-123000000D03*
X62500000Y-124500000D03*
X79250000Y-68250000D03*
X80000000Y-68250000D03*
X80000000Y-69000000D03*
X63250000Y-124500000D03*
%TD*%
D13*
%TO.N,/GPIO_8*%
X131396000Y-65041000D02*
X129865000Y-63510000D01*
X129865000Y-78750000D02*
X131396000Y-77219000D01*
X131396000Y-77219000D02*
X131396000Y-65041000D01*
%TO.N,/GPIO_7*%
X128742656Y-77332344D02*
X130367656Y-77332344D01*
X130367656Y-77332344D02*
X130992000Y-76708000D01*
X130992000Y-76708000D02*
X130992000Y-65289516D01*
X127325000Y-78750000D02*
X128742656Y-77332344D01*
X130334828Y-64632344D02*
X128447344Y-64632344D01*
X128447344Y-64632344D02*
X127325000Y-63510000D01*
X130992000Y-65289516D02*
X130334828Y-64632344D01*
D14*
%TO.N,/5V_S2*%
X59673527Y-71297039D02*
X62272409Y-71297039D01*
X103500000Y-119250000D02*
X98250000Y-124500000D01*
X87680552Y-73750000D02*
X81069447Y-73750000D01*
X85730000Y-95380000D02*
X87000000Y-94110000D01*
X48276000Y-64252600D02*
X48276000Y-61724000D01*
X77842000Y-78572000D02*
X85730000Y-86460000D01*
X72819448Y-60750000D02*
X83150000Y-60750000D01*
X119845000Y-119250000D02*
X103500000Y-119250000D01*
X48276000Y-61724000D02*
X48324056Y-61675944D01*
X49530000Y-65506600D02*
X48276000Y-64252600D01*
X88800000Y-66400000D02*
X88800000Y-72630552D01*
X81069447Y-73750000D02*
X77842000Y-76977447D01*
X122245000Y-116850000D02*
X119845000Y-119250000D01*
X87000000Y-94110000D02*
X87000000Y-87730000D01*
X77842000Y-76977447D02*
X77842000Y-78572000D01*
X88800000Y-72630552D02*
X87680552Y-73750000D01*
X87000000Y-87730000D02*
X85730000Y-86460000D01*
X50052432Y-61675944D02*
X59673527Y-71297039D01*
X83150000Y-60750000D02*
X88800000Y-66400000D01*
X48324056Y-61675944D02*
X50052432Y-61675944D01*
X98250000Y-124500000D02*
X98250000Y-128250000D01*
X62272409Y-71297039D02*
X72819448Y-60750000D01*
%TO.N,/5V_S1*%
X82700000Y-61500000D02*
X73000000Y-61500000D01*
X83190000Y-95380000D02*
X84500000Y-94070000D01*
X84476000Y-89517776D02*
X84476000Y-88482224D01*
X107518656Y-119981344D02*
X103250000Y-124250000D01*
X84500000Y-88458224D02*
X84500000Y-87770000D01*
X87000000Y-73000000D02*
X87908000Y-72092000D01*
X58518439Y-71955039D02*
X49530000Y-62966600D01*
X62544961Y-71955039D02*
X58518439Y-71955039D01*
X73000000Y-61500000D02*
X62544961Y-71955039D01*
X83190000Y-86460000D02*
X83190000Y-85190000D01*
X122245000Y-119390000D02*
X121653656Y-119981344D01*
X103250000Y-124250000D02*
X103250000Y-128250000D01*
X84500000Y-94070000D02*
X84500000Y-89541776D01*
X121653656Y-119981344D02*
X107518656Y-119981344D01*
X84500000Y-89541776D02*
X84476000Y-89517776D01*
X83190000Y-85190000D02*
X77184000Y-79184000D01*
X87908000Y-66708000D02*
X82700000Y-61500000D01*
X77184000Y-79184000D02*
X77184000Y-76704895D01*
X87908000Y-72092000D02*
X87908000Y-66708000D01*
X84476000Y-88482224D02*
X84500000Y-88458224D01*
X80888895Y-73000000D02*
X87000000Y-73000000D01*
X77184000Y-76704895D02*
X80888895Y-73000000D01*
X84500000Y-87770000D02*
X83190000Y-86460000D01*
%TO.N,/3V3_S2*%
X124785000Y-116850000D02*
X123499000Y-118136000D01*
X108250000Y-125250000D02*
X108250000Y-128250000D01*
X88270000Y-86460000D02*
X88229447Y-86460000D01*
X88229447Y-86460000D02*
X81000000Y-79230553D01*
X123499000Y-118136000D02*
X123499000Y-119907776D01*
X112860656Y-120639344D02*
X108250000Y-125250000D01*
X89524000Y-94126000D02*
X89524000Y-87714000D01*
X123499000Y-119907776D02*
X122767432Y-120639344D01*
X81000000Y-79230553D02*
X81000000Y-77500000D01*
X88270000Y-95380000D02*
X89524000Y-94126000D01*
X122767432Y-120639344D02*
X112860656Y-120639344D01*
X89524000Y-87714000D02*
X88270000Y-86460000D01*
%TO.N,/3V3_S1*%
X78500000Y-77250000D02*
X78500000Y-77500000D01*
X92064000Y-94126000D02*
X92064000Y-87714000D01*
X79308000Y-76442000D02*
X78500000Y-77250000D01*
X117952656Y-121297344D02*
X113250000Y-126000000D01*
X82472553Y-76442000D02*
X79308000Y-76442000D01*
X124785000Y-119390000D02*
X124785000Y-119965000D01*
X90810000Y-95380000D02*
X92064000Y-94126000D01*
X90810000Y-84779447D02*
X82472553Y-76442000D01*
X123452656Y-121297344D02*
X117952656Y-121297344D01*
X113250000Y-126000000D02*
X113250000Y-128250000D01*
X90810000Y-86460000D02*
X90810000Y-84779447D01*
X124785000Y-119965000D02*
X123452656Y-121297344D01*
X92064000Y-87714000D02*
X90810000Y-86460000D01*
D15*
%TO.N,/BUS_CH1*%
X132300776Y-128199224D02*
X130894267Y-128199224D01*
X135250000Y-103750000D02*
X135250000Y-125250000D01*
X78000000Y-133000000D02*
X78000000Y-127000000D01*
X135250000Y-88750000D02*
X135250000Y-103750000D01*
X130330000Y-83830000D02*
X135250000Y-88750000D01*
X121500000Y-135000000D02*
X80000000Y-135000000D01*
X130781152Y-128312339D02*
X128187661Y-128312339D01*
X135250000Y-125250000D02*
X132300776Y-128199224D01*
X127325000Y-83830000D02*
X130330000Y-83830000D01*
X80000000Y-135000000D02*
X78000000Y-133000000D01*
X130894267Y-128199224D02*
X130781152Y-128312339D01*
X128187661Y-128312339D02*
X121500000Y-135000000D01*
%TO.N,/BUS_UNREG*%
X82250000Y-63250000D02*
X73500000Y-63250000D01*
X70500000Y-85500000D02*
X68500000Y-85500000D01*
X98430000Y-95380000D02*
X99280000Y-95380000D01*
X84000000Y-69000000D02*
X84000000Y-65000000D01*
X101250000Y-97350000D02*
X101250000Y-104500000D01*
X75570000Y-86460000D02*
X71460000Y-86460000D01*
X99280000Y-95380000D02*
X101250000Y-97350000D01*
X101250000Y-104500000D02*
X72500000Y-104500000D01*
X71460000Y-86460000D02*
X70500000Y-85500000D01*
X84000000Y-65000000D02*
X82250000Y-63250000D01*
%TO.N,/BUS_5V*%
X66500000Y-82750000D02*
X78250000Y-82750000D01*
X80650000Y-95380000D02*
X80650000Y-94534656D01*
X80650000Y-94534656D02*
X78365344Y-92250000D01*
X71250000Y-90000000D02*
X68000000Y-90000000D01*
X68000000Y-90000000D02*
X65750000Y-87750000D01*
X65750000Y-87750000D02*
X65750000Y-83500000D01*
X66000000Y-65500000D02*
X66000000Y-63750000D01*
X78365344Y-92250000D02*
X73500000Y-92250000D01*
X78250000Y-82750000D02*
X80650000Y-85150000D01*
X66000000Y-63750000D02*
X62521944Y-60271944D01*
X65750000Y-83500000D02*
X66500000Y-82750000D01*
X62521944Y-60271944D02*
X49530000Y-60271944D01*
X73500000Y-92250000D02*
X71250000Y-90000000D01*
X80650000Y-85150000D02*
X80650000Y-86460000D01*
%TO.N,/BUS_3V3*%
X96714656Y-82250000D02*
X93350000Y-85614656D01*
X67543400Y-78206600D02*
X77500000Y-68250000D01*
X93350000Y-94900000D02*
X96000000Y-92250000D01*
X98927556Y-92250000D02*
X101596000Y-89581556D01*
X101596000Y-83596000D02*
X100250000Y-82250000D01*
X77500000Y-68250000D02*
X79250000Y-68250000D01*
X93350000Y-95380000D02*
X93350000Y-94900000D01*
X101596000Y-89581556D02*
X101596000Y-83596000D01*
X96000000Y-92250000D02*
X98927556Y-92250000D01*
X100250000Y-82250000D02*
X96714656Y-82250000D01*
X93350000Y-85614656D02*
X93350000Y-86460000D01*
X49530000Y-78206600D02*
X67543400Y-78206600D01*
%TD*%
M02*
