%TF.GenerationSoftware,KiCad,Pcbnew,7.0.8*%
%TF.CreationDate,2024-04-10T10:35:42+02:00*%
%TF.ProjectId,ESLGSU_Adapter,45534c47-5355-45f4-9164-61707465722e,rev?*%
%TF.SameCoordinates,Original*%
%TF.FileFunction,Soldermask,Bot*%
%TF.FilePolarity,Negative*%
%FSLAX46Y46*%
G04 Gerber Fmt 4.6, Leading zero omitted, Abs format (unit mm)*
G04 Created by KiCad (PCBNEW 7.0.8) date 2024-04-10 10:35:42*
%MOMM*%
%LPD*%
G01*
G04 APERTURE LIST*
%ADD10C,2.760000*%
%ADD11C,1.994406*%
%ADD12C,3.200000*%
%ADD13R,1.700000X1.700000*%
%ADD14O,1.700000X1.700000*%
%ADD15C,2.200000*%
%ADD16C,1.150000*%
%ADD17C,0.750000*%
G04 APERTURE END LIST*
%TO.C,H1*%
D10*
X43380000Y-42000000D02*
G75*
G03*
X43380000Y-42000000I-1380000J0D01*
G01*
%TO.C,H9*%
X45515000Y-127010000D02*
G75*
G03*
X45515000Y-127010000I-1380000J0D01*
G01*
%TO.C,H3*%
X131245000Y-50810000D02*
G75*
G03*
X131245000Y-50810000I-1380000J0D01*
G01*
%TO.C,H7*%
X133380000Y-42000000D02*
G75*
G03*
X133380000Y-42000000I-1380000J0D01*
G01*
%TO.C,H4*%
X43380000Y-132000000D02*
G75*
G03*
X43380000Y-132000000I-1380000J0D01*
G01*
%TO.C,H11*%
D11*
X105997203Y-105000000D02*
G75*
G03*
X105997203Y-105000000I-997203J0D01*
G01*
%TO.C,H12*%
X69997203Y-105000000D02*
G75*
G03*
X69997203Y-105000000I-997203J0D01*
G01*
%TO.C,H5*%
D10*
X131245000Y-124470000D02*
G75*
G03*
X131245000Y-124470000I-1380000J0D01*
G01*
%TO.C,H6*%
D11*
X69997203Y-69000000D02*
G75*
G03*
X69997203Y-69000000I-997203J0D01*
G01*
%TO.C,H2*%
D10*
X133380000Y-132000000D02*
G75*
G03*
X133380000Y-132000000I-1380000J0D01*
G01*
%TO.C,H10*%
D11*
X105997203Y-69000000D02*
G75*
G03*
X105997203Y-69000000I-997203J0D01*
G01*
%TO.C,H8*%
D10*
X45515000Y-47000000D02*
G75*
G03*
X45515000Y-47000000I-1380000J0D01*
G01*
%TD*%
D12*
%TO.C,H1*%
X42000000Y-42000000D03*
%TD*%
%TO.C,H9*%
X44135000Y-127010000D03*
%TD*%
D13*
%TO.C,J5*%
X122245000Y-55890000D03*
D14*
X124785000Y-55890000D03*
X122245000Y-58430000D03*
X124785000Y-58430000D03*
X122245000Y-60970000D03*
X124785000Y-60970000D03*
X122245000Y-63510000D03*
X124785000Y-63510000D03*
X122245000Y-66050000D03*
X124785000Y-66050000D03*
X122245000Y-68590000D03*
X124785000Y-68590000D03*
X122245000Y-71130000D03*
X124785000Y-71130000D03*
X122245000Y-73670000D03*
X124785000Y-73670000D03*
X122245000Y-76210000D03*
X124785000Y-76210000D03*
X122245000Y-78750000D03*
X124785000Y-78750000D03*
X122245000Y-81290000D03*
X124785000Y-81290000D03*
X122245000Y-83830000D03*
X124785000Y-83830000D03*
X122245000Y-86370000D03*
X124785000Y-86370000D03*
X122245000Y-88910000D03*
X124785000Y-88910000D03*
X122245000Y-91450000D03*
X124785000Y-91450000D03*
X122245000Y-93990000D03*
X124785000Y-93990000D03*
X122245000Y-96530000D03*
X124785000Y-96530000D03*
X122245000Y-99070000D03*
X124785000Y-99070000D03*
X122245000Y-101610000D03*
X124785000Y-101610000D03*
X122245000Y-104150000D03*
X124785000Y-104150000D03*
X122245000Y-106690000D03*
X124785000Y-106690000D03*
X122245000Y-109230000D03*
X124785000Y-109230000D03*
X122245000Y-111770000D03*
X124785000Y-111770000D03*
X122245000Y-114310000D03*
X124785000Y-114310000D03*
X122245000Y-116850000D03*
X124785000Y-116850000D03*
X122245000Y-119390000D03*
X124785000Y-119390000D03*
%TD*%
D12*
%TO.C,H3*%
X129865000Y-50810000D03*
%TD*%
%TO.C,H7*%
X132000000Y-42000000D03*
%TD*%
%TO.C,H4*%
X42000000Y-132000000D03*
%TD*%
D15*
%TO.C,H11*%
X105000000Y-105000000D03*
%TD*%
%TO.C,H12*%
X69000000Y-105000000D03*
%TD*%
D12*
%TO.C,H5*%
X129865000Y-124470000D03*
%TD*%
D13*
%TO.C,J6*%
X127325000Y-55890000D03*
D14*
X129865000Y-55890000D03*
X127325000Y-58430000D03*
X129865000Y-58430000D03*
X127325000Y-60970000D03*
X129865000Y-60970000D03*
X127325000Y-63510000D03*
X129865000Y-63510000D03*
X127325000Y-66050000D03*
X129865000Y-66050000D03*
X127325000Y-68590000D03*
X129865000Y-68590000D03*
X127325000Y-71130000D03*
X129865000Y-71130000D03*
X127325000Y-73670000D03*
X129865000Y-73670000D03*
X127325000Y-76210000D03*
X129865000Y-76210000D03*
X127325000Y-78750000D03*
X129865000Y-78750000D03*
X127325000Y-81290000D03*
X129865000Y-81290000D03*
X127325000Y-83830000D03*
X129865000Y-83830000D03*
X127325000Y-86370000D03*
X129865000Y-86370000D03*
X127325000Y-88910000D03*
X129865000Y-88910000D03*
X127325000Y-91450000D03*
X129865000Y-91450000D03*
X127325000Y-93990000D03*
X129865000Y-93990000D03*
X127325000Y-96530000D03*
X129865000Y-96530000D03*
X127325000Y-99070000D03*
X129865000Y-99070000D03*
X127325000Y-101610000D03*
X129865000Y-101610000D03*
X127325000Y-104150000D03*
X129865000Y-104150000D03*
X127325000Y-106690000D03*
X129865000Y-106690000D03*
X127325000Y-109230000D03*
X129865000Y-109230000D03*
X127325000Y-111770000D03*
X129865000Y-111770000D03*
X127325000Y-114310000D03*
X129865000Y-114310000D03*
X127325000Y-116850000D03*
X129865000Y-116850000D03*
X127325000Y-119390000D03*
X129865000Y-119390000D03*
%TD*%
D15*
%TO.C,H6*%
X69000000Y-69000000D03*
%TD*%
D16*
%TO.C,J8*%
X75900000Y-74500000D03*
D17*
X98100000Y-74500000D03*
%TD*%
D12*
%TO.C,H2*%
X132000000Y-132000000D03*
%TD*%
D13*
%TO.C,J7*%
X75570000Y-86460000D03*
D14*
X78110000Y-86460000D03*
X80650000Y-86460000D03*
X83190000Y-86460000D03*
X85730000Y-86460000D03*
X88270000Y-86460000D03*
X90810000Y-86460000D03*
X93350000Y-86460000D03*
X95890000Y-86460000D03*
X98430000Y-86460000D03*
X98430000Y-89000000D03*
X95890000Y-89000000D03*
X93350000Y-89000000D03*
X90810000Y-89000000D03*
X88270000Y-89000000D03*
X85730000Y-89000000D03*
X83190000Y-89000000D03*
X80650000Y-89000000D03*
X78110000Y-89000000D03*
X75570000Y-89000000D03*
%TD*%
D15*
%TO.C,H10*%
X105000000Y-69000000D03*
%TD*%
D13*
%TO.C,J4*%
X75570000Y-95380000D03*
D14*
X78110000Y-95380000D03*
X80650000Y-95380000D03*
X83190000Y-95380000D03*
X85730000Y-95380000D03*
X88270000Y-95380000D03*
X90810000Y-95380000D03*
X93350000Y-95380000D03*
X95890000Y-95380000D03*
X98430000Y-95380000D03*
X98430000Y-97920000D03*
X95890000Y-97920000D03*
X93350000Y-97920000D03*
X90810000Y-97920000D03*
X88270000Y-97920000D03*
X85730000Y-97920000D03*
X83190000Y-97920000D03*
X80650000Y-97920000D03*
X78110000Y-97920000D03*
X75570000Y-97920000D03*
%TD*%
D13*
%TO.C,J3*%
X46990000Y-55346600D03*
D14*
X49530000Y-55346600D03*
X46990000Y-57886600D03*
X49530000Y-57886600D03*
X46990000Y-60426600D03*
X49530000Y-60426600D03*
X46990000Y-62966600D03*
X49530000Y-62966600D03*
X46990000Y-65506600D03*
X49530000Y-65506600D03*
X46990000Y-68046600D03*
X49530000Y-68046600D03*
X46990000Y-70586600D03*
X49530000Y-70586600D03*
X46990000Y-73126600D03*
X49530000Y-73126600D03*
X46990000Y-75666600D03*
X49530000Y-75666600D03*
X46990000Y-78206600D03*
X49530000Y-78206600D03*
X46990000Y-80746600D03*
X49530000Y-80746600D03*
X46990000Y-83286600D03*
X49530000Y-83286600D03*
X46990000Y-85826600D03*
X49530000Y-85826600D03*
X46990000Y-88366600D03*
X49530000Y-88366600D03*
X46990000Y-90906600D03*
X49530000Y-90906600D03*
X46990000Y-93446600D03*
X49530000Y-93446600D03*
X46990000Y-95986600D03*
X49530000Y-95986600D03*
X46990000Y-98526600D03*
X49530000Y-98526600D03*
X46990000Y-101066600D03*
X49530000Y-101066600D03*
X46990000Y-103606600D03*
X49530000Y-103606600D03*
X46990000Y-106146600D03*
X49530000Y-106146600D03*
X46990000Y-108686600D03*
X49530000Y-108686600D03*
X46990000Y-111226600D03*
X49530000Y-111226600D03*
X46990000Y-113766600D03*
X49530000Y-113766600D03*
X46990000Y-116306600D03*
X49530000Y-116306600D03*
X46990000Y-118846600D03*
X49530000Y-118846600D03*
%TD*%
D12*
%TO.C,H8*%
X44135000Y-47000000D03*
%TD*%
M02*
