%TF.GenerationSoftware,KiCad,Pcbnew,7.0.8*%
%TF.CreationDate,2024-04-10T10:35:42+02:00*%
%TF.ProjectId,ESLGSU_Adapter,45534c47-5355-45f4-9164-61707465722e,rev?*%
%TF.SameCoordinates,Original*%
%TF.FileFunction,Legend,Top*%
%TF.FilePolarity,Positive*%
%FSLAX46Y46*%
G04 Gerber Fmt 4.6, Leading zero omitted, Abs format (unit mm)*
G04 Created by KiCad (PCBNEW 7.0.8) date 2024-04-10 10:35:42*
%MOMM*%
%LPD*%
G01*
G04 APERTURE LIST*
G04 Aperture macros list*
%AMRoundRect*
0 Rectangle with rounded corners*
0 $1 Rounding radius*
0 $2 $3 $4 $5 $6 $7 $8 $9 X,Y pos of 4 corners*
0 Add a 4 corners polygon primitive as box body*
4,1,4,$2,$3,$4,$5,$6,$7,$8,$9,$2,$3,0*
0 Add four circle primitives for the rounded corners*
1,1,$1+$1,$2,$3*
1,1,$1+$1,$4,$5*
1,1,$1+$1,$6,$7*
1,1,$1+$1,$8,$9*
0 Add four rect primitives between the rounded corners*
20,1,$1+$1,$2,$3,$4,$5,0*
20,1,$1+$1,$4,$5,$6,$7,0*
20,1,$1+$1,$6,$7,$8,$9,0*
20,1,$1+$1,$8,$9,$2,$3,0*%
G04 Aperture macros list end*
%ADD10C,0.300000*%
%ADD11C,0.150000*%
%ADD12C,0.127000*%
%ADD13C,0.200000*%
%ADD14C,0.120000*%
%ADD15C,0.010000*%
%ADD16C,2.760000*%
%ADD17C,1.994406*%
%ADD18R,0.300000X1.200000*%
%ADD19C,3.200000*%
%ADD20R,1.700000X1.700000*%
%ADD21O,1.700000X1.700000*%
%ADD22C,2.200000*%
%ADD23C,1.150000*%
%ADD24C,0.750000*%
%ADD25RoundRect,0.102000X-0.175000X-1.225000X0.175000X-1.225000X0.175000X1.225000X-0.175000X1.225000X0*%
G04 APERTURE END LIST*
D10*
X66000000Y-66000000D02*
X108000000Y-66000000D01*
X108000000Y-108000000D01*
X66000000Y-108000000D01*
X66000000Y-66000000D01*
D11*
X75950000Y-45600000D02*
X81750000Y-45600000D01*
X81750000Y-47400000D01*
X75950000Y-47400000D01*
X75950000Y-45600000D01*
G36*
X75950000Y-45600000D02*
G01*
X81750000Y-45600000D01*
X81750000Y-47400000D01*
X75950000Y-47400000D01*
X75950000Y-45600000D01*
G37*
D10*
X118750000Y-46900000D02*
X133550000Y-46900000D01*
X133550000Y-128200000D01*
X118750000Y-128200000D01*
X118750000Y-46900000D01*
X57849000Y-121637000D02*
X117350000Y-121637000D01*
X117350000Y-135963000D01*
X57849000Y-135963000D01*
X57849000Y-121637000D01*
X66249000Y-82250000D02*
X107750000Y-82250000D01*
X107750000Y-102226000D01*
X66249000Y-102226000D01*
X66249000Y-82250000D01*
X43850000Y-52300000D02*
X52600000Y-52300000D01*
X52600000Y-121950000D01*
X43850000Y-121950000D01*
X43850000Y-52300000D01*
D11*
X120736779Y-54069819D02*
X120736779Y-53069819D01*
X120736779Y-53546009D02*
X121308207Y-53546009D01*
X121308207Y-54069819D02*
X121308207Y-53069819D01*
X122308207Y-54069819D02*
X121736779Y-54069819D01*
X122022493Y-54069819D02*
X122022493Y-53069819D01*
X122022493Y-53069819D02*
X121927255Y-53212676D01*
X121927255Y-53212676D02*
X121832017Y-53307914D01*
X121832017Y-53307914D02*
X121736779Y-53355533D01*
G36*
X71435209Y-80979077D02*
G01*
X71507151Y-81051019D01*
X71547493Y-81212386D01*
X71547493Y-81527251D01*
X71507151Y-81688617D01*
X71479635Y-81716133D01*
X71389812Y-81626309D01*
X71388330Y-81625617D01*
X71370320Y-81612260D01*
X71275082Y-81564641D01*
X71270628Y-81564128D01*
X71267193Y-81561246D01*
X71241541Y-81556723D01*
X71146303Y-81556723D01*
X71098094Y-81574270D01*
X71072442Y-81618699D01*
X71081351Y-81669223D01*
X71120651Y-81702200D01*
X71146303Y-81706723D01*
X71223836Y-81706723D01*
X71292351Y-81740980D01*
X71346190Y-81794819D01*
X71211627Y-81794819D01*
X71143111Y-81760561D01*
X71071168Y-81688617D01*
X71030827Y-81527251D01*
X71030827Y-81212386D01*
X71071168Y-81051019D01*
X71143111Y-80979077D01*
X71211627Y-80944819D01*
X71366693Y-80944819D01*
X71435209Y-80979077D01*
G37*
G36*
X70435209Y-80979077D02*
G01*
X70465616Y-81009484D01*
X70499874Y-81078000D01*
X70499874Y-81185447D01*
X70465616Y-81253963D01*
X70435209Y-81284370D01*
X70366693Y-81318628D01*
X70078446Y-81318628D01*
X70078446Y-80944819D01*
X70366693Y-80944819D01*
X70435209Y-80979077D01*
G37*
G36*
X71887834Y-82180861D02*
G01*
X67118922Y-82180861D01*
X67118922Y-81869819D01*
X67261779Y-81869819D01*
X67268442Y-81888127D01*
X67271827Y-81907319D01*
X67277011Y-81911669D01*
X67279326Y-81918028D01*
X67296199Y-81927770D01*
X67311127Y-81940296D01*
X67320869Y-81942013D01*
X67323755Y-81943680D01*
X67327037Y-81943101D01*
X67336779Y-81944819D01*
X67812969Y-81944819D01*
X67861178Y-81927272D01*
X67886830Y-81882843D01*
X67877921Y-81832319D01*
X67838621Y-81799342D01*
X67812969Y-81794819D01*
X67411779Y-81794819D01*
X67411779Y-81421009D01*
X67670112Y-81421009D01*
X67718321Y-81403462D01*
X67743973Y-81359033D01*
X67735064Y-81308509D01*
X67695764Y-81275532D01*
X67670112Y-81271009D01*
X67411779Y-81271009D01*
X67411779Y-81155533D01*
X68118922Y-81155533D01*
X68120455Y-81159746D01*
X68119414Y-81164107D01*
X68126840Y-81189074D01*
X68174459Y-81284312D01*
X68175648Y-81285437D01*
X68188508Y-81303804D01*
X68236127Y-81351423D01*
X68237608Y-81352114D01*
X68255619Y-81365472D01*
X68350857Y-81413091D01*
X68354385Y-81413497D01*
X68366208Y-81418770D01*
X68548698Y-81464392D01*
X68625685Y-81502886D01*
X68656092Y-81533293D01*
X68690350Y-81601809D01*
X68690350Y-81661637D01*
X68656091Y-81730153D01*
X68625684Y-81760561D01*
X68557169Y-81794819D01*
X68348949Y-81794819D01*
X68217639Y-81751049D01*
X68166355Y-81752450D01*
X68127970Y-81786487D01*
X68120445Y-81837236D01*
X68147300Y-81880948D01*
X68170205Y-81893351D01*
X68313061Y-81940970D01*
X68314696Y-81940925D01*
X68336779Y-81944819D01*
X68574874Y-81944819D01*
X68579087Y-81943285D01*
X68583448Y-81944327D01*
X68608415Y-81936901D01*
X68703653Y-81889282D01*
X68704777Y-81888094D01*
X68723146Y-81875232D01*
X68728559Y-81869819D01*
X69118922Y-81869819D01*
X69125585Y-81888127D01*
X69128970Y-81907319D01*
X69134154Y-81911669D01*
X69136469Y-81918028D01*
X69153342Y-81927770D01*
X69168270Y-81940296D01*
X69178012Y-81942013D01*
X69180898Y-81943680D01*
X69184180Y-81943101D01*
X69193922Y-81944819D01*
X69670112Y-81944819D01*
X69718321Y-81927272D01*
X69743973Y-81882843D01*
X69741676Y-81869819D01*
X69928446Y-81869819D01*
X69945993Y-81918028D01*
X69990422Y-81943680D01*
X70040946Y-81934771D01*
X70073923Y-81895471D01*
X70078446Y-81869819D01*
X70078446Y-81536485D01*
X70880827Y-81536485D01*
X70882012Y-81539742D01*
X70883066Y-81554675D01*
X70930685Y-81745151D01*
X70934827Y-81751283D01*
X70935472Y-81758657D01*
X70950413Y-81779994D01*
X71045651Y-81875233D01*
X71047133Y-81875924D01*
X71065143Y-81889282D01*
X71160381Y-81936901D01*
X71164834Y-81937413D01*
X71168270Y-81940296D01*
X71193922Y-81944819D01*
X71384398Y-81944819D01*
X71388611Y-81943285D01*
X71392972Y-81944327D01*
X71417939Y-81936901D01*
X71464827Y-81913457D01*
X71521841Y-81970471D01*
X71523322Y-81971161D01*
X71541333Y-81984520D01*
X71636571Y-82032139D01*
X71687537Y-82038004D01*
X71730350Y-82009738D01*
X71744977Y-81960563D01*
X71724574Y-81913492D01*
X71703653Y-81897975D01*
X71619301Y-81855799D01*
X71585701Y-81822199D01*
X71627908Y-81779993D01*
X71631035Y-81773285D01*
X71637025Y-81768940D01*
X71647635Y-81745151D01*
X71695254Y-81554675D01*
X71694893Y-81551226D01*
X71697493Y-81536485D01*
X71697493Y-81203152D01*
X71696307Y-81199894D01*
X71695254Y-81184962D01*
X71647635Y-80994486D01*
X71643493Y-80988353D01*
X71642848Y-80980980D01*
X71627907Y-80959643D01*
X71532669Y-80864405D01*
X71531187Y-80863714D01*
X71513177Y-80850356D01*
X71417939Y-80802737D01*
X71413485Y-80802224D01*
X71410050Y-80799342D01*
X71384398Y-80794819D01*
X71193922Y-80794819D01*
X71189708Y-80796352D01*
X71185347Y-80795311D01*
X71160381Y-80802737D01*
X71065143Y-80850356D01*
X71064019Y-80851542D01*
X71045651Y-80864405D01*
X70950413Y-80959643D01*
X70947285Y-80966350D01*
X70941295Y-80970697D01*
X70930685Y-80994486D01*
X70883066Y-81184962D01*
X70883426Y-81188410D01*
X70880827Y-81203152D01*
X70880827Y-81536485D01*
X70078446Y-81536485D01*
X70078446Y-81468628D01*
X70384398Y-81468628D01*
X70388611Y-81467094D01*
X70392972Y-81468136D01*
X70417939Y-81460710D01*
X70513177Y-81413091D01*
X70514302Y-81411901D01*
X70532669Y-81399042D01*
X70580288Y-81351423D01*
X70580979Y-81349941D01*
X70594337Y-81331931D01*
X70641956Y-81236693D01*
X70642468Y-81232239D01*
X70645351Y-81228804D01*
X70649874Y-81203152D01*
X70649874Y-81060295D01*
X70648340Y-81056081D01*
X70649382Y-81051720D01*
X70641956Y-81026754D01*
X70594337Y-80931516D01*
X70593147Y-80930390D01*
X70580288Y-80912024D01*
X70532669Y-80864405D01*
X70531187Y-80863714D01*
X70513177Y-80850356D01*
X70417939Y-80802737D01*
X70413485Y-80802224D01*
X70410050Y-80799342D01*
X70384398Y-80794819D01*
X70003446Y-80794819D01*
X69985137Y-80801482D01*
X69965946Y-80804867D01*
X69961595Y-80810051D01*
X69955237Y-80812366D01*
X69945494Y-80829239D01*
X69932969Y-80844167D01*
X69931251Y-80853909D01*
X69929585Y-80856795D01*
X69930163Y-80860077D01*
X69928446Y-80869819D01*
X69928446Y-81869819D01*
X69741676Y-81869819D01*
X69735064Y-81832319D01*
X69695764Y-81799342D01*
X69670112Y-81794819D01*
X69268922Y-81794819D01*
X69268922Y-80869819D01*
X69251375Y-80821610D01*
X69206946Y-80795958D01*
X69156422Y-80804867D01*
X69123445Y-80844167D01*
X69118922Y-80869819D01*
X69118922Y-81869819D01*
X68728559Y-81869819D01*
X68770764Y-81827613D01*
X68771454Y-81826131D01*
X68784813Y-81808121D01*
X68832432Y-81712883D01*
X68832944Y-81708429D01*
X68835827Y-81704994D01*
X68840350Y-81679342D01*
X68840350Y-81584104D01*
X68838816Y-81579890D01*
X68839858Y-81575529D01*
X68832432Y-81550563D01*
X68784813Y-81455325D01*
X68783623Y-81454199D01*
X68770764Y-81435833D01*
X68723145Y-81388214D01*
X68721663Y-81387523D01*
X68703653Y-81374165D01*
X68608415Y-81326546D01*
X68604886Y-81326139D01*
X68593064Y-81320867D01*
X68410574Y-81275244D01*
X68333587Y-81236751D01*
X68303180Y-81206344D01*
X68268922Y-81137828D01*
X68268922Y-81078000D01*
X68303180Y-81009484D01*
X68333587Y-80979077D01*
X68402103Y-80944819D01*
X68610323Y-80944819D01*
X68741632Y-80988589D01*
X68792916Y-80987188D01*
X68831302Y-80953150D01*
X68838827Y-80902402D01*
X68811972Y-80858689D01*
X68789067Y-80846287D01*
X68646210Y-80798668D01*
X68644575Y-80798712D01*
X68622493Y-80794819D01*
X68384398Y-80794819D01*
X68380184Y-80796352D01*
X68375823Y-80795311D01*
X68350857Y-80802737D01*
X68255619Y-80850356D01*
X68254493Y-80851545D01*
X68236127Y-80864405D01*
X68188508Y-80912024D01*
X68187817Y-80913505D01*
X68174459Y-80931516D01*
X68126840Y-81026754D01*
X68126327Y-81031207D01*
X68123445Y-81034643D01*
X68118922Y-81060295D01*
X68118922Y-81155533D01*
X67411779Y-81155533D01*
X67411779Y-80944819D01*
X67812969Y-80944819D01*
X67861178Y-80927272D01*
X67886830Y-80882843D01*
X67877921Y-80832319D01*
X67838621Y-80799342D01*
X67812969Y-80794819D01*
X67336779Y-80794819D01*
X67318470Y-80801482D01*
X67299279Y-80804867D01*
X67294928Y-80810051D01*
X67288570Y-80812366D01*
X67278827Y-80829239D01*
X67266302Y-80844167D01*
X67264584Y-80853909D01*
X67262918Y-80856795D01*
X67263496Y-80860077D01*
X67261779Y-80869819D01*
X67261779Y-81869819D01*
X67118922Y-81869819D01*
X67118922Y-80651962D01*
X71887834Y-80651962D01*
X71887834Y-82180861D01*
G37*
G36*
X68418542Y-64729077D02*
G01*
X68490484Y-64801019D01*
X68530826Y-64962386D01*
X68530826Y-65277251D01*
X68490484Y-65438617D01*
X68462968Y-65466133D01*
X68373145Y-65376309D01*
X68371663Y-65375617D01*
X68353653Y-65362260D01*
X68258415Y-65314641D01*
X68253961Y-65314128D01*
X68250526Y-65311246D01*
X68224874Y-65306723D01*
X68129636Y-65306723D01*
X68081427Y-65324270D01*
X68055775Y-65368699D01*
X68064684Y-65419223D01*
X68103984Y-65452200D01*
X68129636Y-65456723D01*
X68207169Y-65456723D01*
X68275684Y-65490980D01*
X68329523Y-65544819D01*
X68194960Y-65544819D01*
X68126444Y-65510561D01*
X68054501Y-65438617D01*
X68014160Y-65277251D01*
X68014160Y-64962386D01*
X68054501Y-64801019D01*
X68126444Y-64729077D01*
X68194960Y-64694819D01*
X68350026Y-64694819D01*
X68418542Y-64729077D01*
G37*
G36*
X69418542Y-65110029D02*
G01*
X69448949Y-65140436D01*
X69483207Y-65208952D01*
X69483207Y-65411637D01*
X69448948Y-65480153D01*
X69418541Y-65510561D01*
X69350026Y-65544819D01*
X69194960Y-65544819D01*
X69126444Y-65510561D01*
X69096037Y-65480153D01*
X69061779Y-65411637D01*
X69061779Y-65208952D01*
X69096037Y-65140436D01*
X69126444Y-65110029D01*
X69194960Y-65075771D01*
X69350026Y-65075771D01*
X69418542Y-65110029D01*
G37*
G36*
X70323304Y-64729077D02*
G01*
X70353711Y-64759484D01*
X70392204Y-64836471D01*
X70435588Y-65010005D01*
X70435588Y-65229632D01*
X70392204Y-65403166D01*
X70353710Y-65480153D01*
X70323303Y-65510561D01*
X70254788Y-65544819D01*
X70194960Y-65544819D01*
X70126444Y-65510561D01*
X70096037Y-65480153D01*
X70057543Y-65403166D01*
X70014160Y-65229632D01*
X70014160Y-65010005D01*
X70057543Y-64836471D01*
X70096037Y-64759484D01*
X70126444Y-64729077D01*
X70194960Y-64694819D01*
X70254788Y-64694819D01*
X70323304Y-64729077D01*
G37*
G36*
X67418542Y-64729077D02*
G01*
X67448949Y-64759484D01*
X67483207Y-64828000D01*
X67483207Y-64935447D01*
X67448949Y-65003963D01*
X67418542Y-65034370D01*
X67350026Y-65068628D01*
X67061779Y-65068628D01*
X67061779Y-64694819D01*
X67350026Y-64694819D01*
X67418542Y-64729077D01*
G37*
G36*
X70728445Y-65930861D02*
G01*
X66768922Y-65930861D01*
X66768922Y-65619819D01*
X66911779Y-65619819D01*
X66929326Y-65668028D01*
X66973755Y-65693680D01*
X67024279Y-65684771D01*
X67057256Y-65645471D01*
X67061779Y-65619819D01*
X67061779Y-65286485D01*
X67864160Y-65286485D01*
X67865345Y-65289742D01*
X67866399Y-65304675D01*
X67914018Y-65495151D01*
X67918160Y-65501283D01*
X67918805Y-65508657D01*
X67933746Y-65529994D01*
X68028984Y-65625233D01*
X68030466Y-65625924D01*
X68048476Y-65639282D01*
X68143714Y-65686901D01*
X68148167Y-65687413D01*
X68151603Y-65690296D01*
X68177255Y-65694819D01*
X68367731Y-65694819D01*
X68371944Y-65693285D01*
X68376305Y-65694327D01*
X68401272Y-65686901D01*
X68448160Y-65663457D01*
X68505174Y-65720471D01*
X68506655Y-65721161D01*
X68524666Y-65734520D01*
X68619904Y-65782139D01*
X68670870Y-65788004D01*
X68713683Y-65759738D01*
X68728310Y-65710563D01*
X68707907Y-65663492D01*
X68686986Y-65647975D01*
X68602634Y-65605799D01*
X68569034Y-65572199D01*
X68611241Y-65529993D01*
X68614368Y-65523285D01*
X68620358Y-65518940D01*
X68630968Y-65495151D01*
X68647420Y-65429342D01*
X68911779Y-65429342D01*
X68913312Y-65433555D01*
X68912271Y-65437916D01*
X68919697Y-65462883D01*
X68967316Y-65558121D01*
X68968504Y-65559246D01*
X68981364Y-65577612D01*
X69028983Y-65625232D01*
X69030464Y-65625922D01*
X69048476Y-65639282D01*
X69143714Y-65686901D01*
X69148167Y-65687413D01*
X69151603Y-65690296D01*
X69177255Y-65694819D01*
X69367731Y-65694819D01*
X69371944Y-65693285D01*
X69376305Y-65694327D01*
X69401272Y-65686901D01*
X69496510Y-65639282D01*
X69497634Y-65638094D01*
X69516003Y-65625232D01*
X69563621Y-65577613D01*
X69564311Y-65576131D01*
X69577670Y-65558121D01*
X69625289Y-65462883D01*
X69625801Y-65458429D01*
X69628684Y-65454994D01*
X69633207Y-65429342D01*
X69633207Y-65238866D01*
X69864160Y-65238866D01*
X69865345Y-65242123D01*
X69866399Y-65257056D01*
X69914018Y-65447532D01*
X69916006Y-65450476D01*
X69919697Y-65462883D01*
X69967316Y-65558121D01*
X69968504Y-65559246D01*
X69981364Y-65577612D01*
X70028983Y-65625232D01*
X70030464Y-65625922D01*
X70048476Y-65639282D01*
X70143714Y-65686901D01*
X70148167Y-65687413D01*
X70151603Y-65690296D01*
X70177255Y-65694819D01*
X70272493Y-65694819D01*
X70276706Y-65693285D01*
X70281067Y-65694327D01*
X70306034Y-65686901D01*
X70401272Y-65639282D01*
X70402396Y-65638094D01*
X70420765Y-65625232D01*
X70468383Y-65577613D01*
X70469073Y-65576131D01*
X70482432Y-65558121D01*
X70530051Y-65462883D01*
X70530457Y-65459354D01*
X70535730Y-65447532D01*
X70583349Y-65257056D01*
X70582988Y-65253607D01*
X70585588Y-65238866D01*
X70585588Y-65000771D01*
X70584402Y-64997513D01*
X70583349Y-64982581D01*
X70535730Y-64792105D01*
X70533741Y-64789160D01*
X70530051Y-64776754D01*
X70482432Y-64681516D01*
X70481242Y-64680390D01*
X70468383Y-64662024D01*
X70420764Y-64614405D01*
X70419282Y-64613714D01*
X70401272Y-64600356D01*
X70306034Y-64552737D01*
X70301580Y-64552224D01*
X70298145Y-64549342D01*
X70272493Y-64544819D01*
X70177255Y-64544819D01*
X70173041Y-64546352D01*
X70168680Y-64545311D01*
X70143714Y-64552737D01*
X70048476Y-64600356D01*
X70047350Y-64601545D01*
X70028984Y-64614405D01*
X69981365Y-64662024D01*
X69980674Y-64663505D01*
X69967316Y-64681516D01*
X69919697Y-64776754D01*
X69919290Y-64780282D01*
X69914018Y-64792105D01*
X69866399Y-64982581D01*
X69866759Y-64986029D01*
X69864160Y-65000771D01*
X69864160Y-65238866D01*
X69633207Y-65238866D01*
X69633207Y-65191247D01*
X69631673Y-65187033D01*
X69632715Y-65182672D01*
X69625289Y-65157706D01*
X69577670Y-65062468D01*
X69576480Y-65061342D01*
X69563621Y-65042976D01*
X69516002Y-64995357D01*
X69514520Y-64994666D01*
X69496510Y-64981308D01*
X69401272Y-64933689D01*
X69396818Y-64933176D01*
X69393383Y-64930294D01*
X69367731Y-64925771D01*
X69177255Y-64925771D01*
X69173041Y-64927304D01*
X69168680Y-64926263D01*
X69143714Y-64933689D01*
X69085484Y-64962804D01*
X69104008Y-64888707D01*
X69187920Y-64762838D01*
X69221682Y-64729077D01*
X69290198Y-64694819D01*
X69462969Y-64694819D01*
X69511178Y-64677272D01*
X69536830Y-64632843D01*
X69527921Y-64582319D01*
X69488621Y-64549342D01*
X69462969Y-64544819D01*
X69272493Y-64544819D01*
X69268279Y-64546352D01*
X69263918Y-64545311D01*
X69238952Y-64552737D01*
X69143714Y-64600356D01*
X69142588Y-64601545D01*
X69124222Y-64614405D01*
X69076603Y-64662024D01*
X69075126Y-64665189D01*
X69067232Y-64673454D01*
X68971994Y-64816311D01*
X68971891Y-64816732D01*
X68961637Y-64839724D01*
X68914018Y-65030200D01*
X68914378Y-65033648D01*
X68911779Y-65048390D01*
X68911779Y-65429342D01*
X68647420Y-65429342D01*
X68678587Y-65304675D01*
X68678226Y-65301226D01*
X68680826Y-65286485D01*
X68680826Y-64953152D01*
X68679640Y-64949894D01*
X68678587Y-64934962D01*
X68630968Y-64744486D01*
X68626826Y-64738353D01*
X68626181Y-64730980D01*
X68611240Y-64709643D01*
X68516002Y-64614405D01*
X68514520Y-64613714D01*
X68496510Y-64600356D01*
X68401272Y-64552737D01*
X68396818Y-64552224D01*
X68393383Y-64549342D01*
X68367731Y-64544819D01*
X68177255Y-64544819D01*
X68173041Y-64546352D01*
X68168680Y-64545311D01*
X68143714Y-64552737D01*
X68048476Y-64600356D01*
X68047352Y-64601542D01*
X68028984Y-64614405D01*
X67933746Y-64709643D01*
X67930618Y-64716350D01*
X67924628Y-64720697D01*
X67914018Y-64744486D01*
X67866399Y-64934962D01*
X67866759Y-64938410D01*
X67864160Y-64953152D01*
X67864160Y-65286485D01*
X67061779Y-65286485D01*
X67061779Y-65218628D01*
X67367731Y-65218628D01*
X67371944Y-65217094D01*
X67376305Y-65218136D01*
X67401272Y-65210710D01*
X67496510Y-65163091D01*
X67497635Y-65161901D01*
X67516002Y-65149042D01*
X67563621Y-65101423D01*
X67564312Y-65099941D01*
X67577670Y-65081931D01*
X67625289Y-64986693D01*
X67625801Y-64982239D01*
X67628684Y-64978804D01*
X67633207Y-64953152D01*
X67633207Y-64810295D01*
X67631673Y-64806081D01*
X67632715Y-64801720D01*
X67625289Y-64776754D01*
X67577670Y-64681516D01*
X67576480Y-64680390D01*
X67563621Y-64662024D01*
X67516002Y-64614405D01*
X67514520Y-64613714D01*
X67496510Y-64600356D01*
X67401272Y-64552737D01*
X67396818Y-64552224D01*
X67393383Y-64549342D01*
X67367731Y-64544819D01*
X66986779Y-64544819D01*
X66968470Y-64551482D01*
X66949279Y-64554867D01*
X66944928Y-64560051D01*
X66938570Y-64562366D01*
X66928827Y-64579239D01*
X66916302Y-64594167D01*
X66914584Y-64603909D01*
X66912918Y-64606795D01*
X66913496Y-64610077D01*
X66911779Y-64619819D01*
X66911779Y-65619819D01*
X66768922Y-65619819D01*
X66768922Y-64401962D01*
X70728445Y-64401962D01*
X70728445Y-65930861D01*
G37*
X125836779Y-54069819D02*
X125836779Y-53069819D01*
X125836779Y-53546009D02*
X126408207Y-53546009D01*
X126408207Y-54069819D02*
X126408207Y-53069819D01*
X126836779Y-53165057D02*
X126884398Y-53117438D01*
X126884398Y-53117438D02*
X126979636Y-53069819D01*
X126979636Y-53069819D02*
X127217731Y-53069819D01*
X127217731Y-53069819D02*
X127312969Y-53117438D01*
X127312969Y-53117438D02*
X127360588Y-53165057D01*
X127360588Y-53165057D02*
X127408207Y-53260295D01*
X127408207Y-53260295D02*
X127408207Y-53355533D01*
X127408207Y-53355533D02*
X127360588Y-53498390D01*
X127360588Y-53498390D02*
X126789160Y-54069819D01*
X126789160Y-54069819D02*
X127408207Y-54069819D01*
D10*
X72779510Y-41635114D02*
X73279510Y-41635114D01*
X73493796Y-42420828D02*
X72779510Y-42420828D01*
X72779510Y-42420828D02*
X72779510Y-40920828D01*
X72779510Y-40920828D02*
X73493796Y-40920828D01*
X74065225Y-42349400D02*
X74279511Y-42420828D01*
X74279511Y-42420828D02*
X74636653Y-42420828D01*
X74636653Y-42420828D02*
X74779511Y-42349400D01*
X74779511Y-42349400D02*
X74850939Y-42277971D01*
X74850939Y-42277971D02*
X74922368Y-42135114D01*
X74922368Y-42135114D02*
X74922368Y-41992257D01*
X74922368Y-41992257D02*
X74850939Y-41849400D01*
X74850939Y-41849400D02*
X74779511Y-41777971D01*
X74779511Y-41777971D02*
X74636653Y-41706542D01*
X74636653Y-41706542D02*
X74350939Y-41635114D01*
X74350939Y-41635114D02*
X74208082Y-41563685D01*
X74208082Y-41563685D02*
X74136653Y-41492257D01*
X74136653Y-41492257D02*
X74065225Y-41349400D01*
X74065225Y-41349400D02*
X74065225Y-41206542D01*
X74065225Y-41206542D02*
X74136653Y-41063685D01*
X74136653Y-41063685D02*
X74208082Y-40992257D01*
X74208082Y-40992257D02*
X74350939Y-40920828D01*
X74350939Y-40920828D02*
X74708082Y-40920828D01*
X74708082Y-40920828D02*
X74922368Y-40992257D01*
X76279510Y-42420828D02*
X75565224Y-42420828D01*
X75565224Y-42420828D02*
X75565224Y-40920828D01*
X76779510Y-41849400D02*
X77922368Y-41849400D01*
X79422368Y-40992257D02*
X79279511Y-40920828D01*
X79279511Y-40920828D02*
X79065225Y-40920828D01*
X79065225Y-40920828D02*
X78850939Y-40992257D01*
X78850939Y-40992257D02*
X78708082Y-41135114D01*
X78708082Y-41135114D02*
X78636653Y-41277971D01*
X78636653Y-41277971D02*
X78565225Y-41563685D01*
X78565225Y-41563685D02*
X78565225Y-41777971D01*
X78565225Y-41777971D02*
X78636653Y-42063685D01*
X78636653Y-42063685D02*
X78708082Y-42206542D01*
X78708082Y-42206542D02*
X78850939Y-42349400D01*
X78850939Y-42349400D02*
X79065225Y-42420828D01*
X79065225Y-42420828D02*
X79208082Y-42420828D01*
X79208082Y-42420828D02*
X79422368Y-42349400D01*
X79422368Y-42349400D02*
X79493796Y-42277971D01*
X79493796Y-42277971D02*
X79493796Y-41777971D01*
X79493796Y-41777971D02*
X79208082Y-41777971D01*
X80065225Y-42349400D02*
X80279511Y-42420828D01*
X80279511Y-42420828D02*
X80636653Y-42420828D01*
X80636653Y-42420828D02*
X80779511Y-42349400D01*
X80779511Y-42349400D02*
X80850939Y-42277971D01*
X80850939Y-42277971D02*
X80922368Y-42135114D01*
X80922368Y-42135114D02*
X80922368Y-41992257D01*
X80922368Y-41992257D02*
X80850939Y-41849400D01*
X80850939Y-41849400D02*
X80779511Y-41777971D01*
X80779511Y-41777971D02*
X80636653Y-41706542D01*
X80636653Y-41706542D02*
X80350939Y-41635114D01*
X80350939Y-41635114D02*
X80208082Y-41563685D01*
X80208082Y-41563685D02*
X80136653Y-41492257D01*
X80136653Y-41492257D02*
X80065225Y-41349400D01*
X80065225Y-41349400D02*
X80065225Y-41206542D01*
X80065225Y-41206542D02*
X80136653Y-41063685D01*
X80136653Y-41063685D02*
X80208082Y-40992257D01*
X80208082Y-40992257D02*
X80350939Y-40920828D01*
X80350939Y-40920828D02*
X80708082Y-40920828D01*
X80708082Y-40920828D02*
X80922368Y-40992257D01*
X81565224Y-40920828D02*
X81565224Y-42135114D01*
X81565224Y-42135114D02*
X81636653Y-42277971D01*
X81636653Y-42277971D02*
X81708082Y-42349400D01*
X81708082Y-42349400D02*
X81850939Y-42420828D01*
X81850939Y-42420828D02*
X82136653Y-42420828D01*
X82136653Y-42420828D02*
X82279510Y-42349400D01*
X82279510Y-42349400D02*
X82350939Y-42277971D01*
X82350939Y-42277971D02*
X82422367Y-42135114D01*
X82422367Y-42135114D02*
X82422367Y-40920828D01*
X84208082Y-41992257D02*
X84922368Y-41992257D01*
X84065225Y-42420828D02*
X84565225Y-40920828D01*
X84565225Y-40920828D02*
X85065225Y-42420828D01*
X86208082Y-42420828D02*
X86208082Y-40920828D01*
X86208082Y-42349400D02*
X86065224Y-42420828D01*
X86065224Y-42420828D02*
X85779510Y-42420828D01*
X85779510Y-42420828D02*
X85636653Y-42349400D01*
X85636653Y-42349400D02*
X85565224Y-42277971D01*
X85565224Y-42277971D02*
X85493796Y-42135114D01*
X85493796Y-42135114D02*
X85493796Y-41706542D01*
X85493796Y-41706542D02*
X85565224Y-41563685D01*
X85565224Y-41563685D02*
X85636653Y-41492257D01*
X85636653Y-41492257D02*
X85779510Y-41420828D01*
X85779510Y-41420828D02*
X86065224Y-41420828D01*
X86065224Y-41420828D02*
X86208082Y-41492257D01*
X87565225Y-42420828D02*
X87565225Y-41635114D01*
X87565225Y-41635114D02*
X87493796Y-41492257D01*
X87493796Y-41492257D02*
X87350939Y-41420828D01*
X87350939Y-41420828D02*
X87065225Y-41420828D01*
X87065225Y-41420828D02*
X86922367Y-41492257D01*
X87565225Y-42349400D02*
X87422367Y-42420828D01*
X87422367Y-42420828D02*
X87065225Y-42420828D01*
X87065225Y-42420828D02*
X86922367Y-42349400D01*
X86922367Y-42349400D02*
X86850939Y-42206542D01*
X86850939Y-42206542D02*
X86850939Y-42063685D01*
X86850939Y-42063685D02*
X86922367Y-41920828D01*
X86922367Y-41920828D02*
X87065225Y-41849400D01*
X87065225Y-41849400D02*
X87422367Y-41849400D01*
X87422367Y-41849400D02*
X87565225Y-41777971D01*
X88279510Y-41420828D02*
X88279510Y-42920828D01*
X88279510Y-41492257D02*
X88422368Y-41420828D01*
X88422368Y-41420828D02*
X88708082Y-41420828D01*
X88708082Y-41420828D02*
X88850939Y-41492257D01*
X88850939Y-41492257D02*
X88922368Y-41563685D01*
X88922368Y-41563685D02*
X88993796Y-41706542D01*
X88993796Y-41706542D02*
X88993796Y-42135114D01*
X88993796Y-42135114D02*
X88922368Y-42277971D01*
X88922368Y-42277971D02*
X88850939Y-42349400D01*
X88850939Y-42349400D02*
X88708082Y-42420828D01*
X88708082Y-42420828D02*
X88422368Y-42420828D01*
X88422368Y-42420828D02*
X88279510Y-42349400D01*
X89422368Y-41420828D02*
X89993796Y-41420828D01*
X89636653Y-40920828D02*
X89636653Y-42206542D01*
X89636653Y-42206542D02*
X89708082Y-42349400D01*
X89708082Y-42349400D02*
X89850939Y-42420828D01*
X89850939Y-42420828D02*
X89993796Y-42420828D01*
X91065225Y-42349400D02*
X90922368Y-42420828D01*
X90922368Y-42420828D02*
X90636654Y-42420828D01*
X90636654Y-42420828D02*
X90493796Y-42349400D01*
X90493796Y-42349400D02*
X90422368Y-42206542D01*
X90422368Y-42206542D02*
X90422368Y-41635114D01*
X90422368Y-41635114D02*
X90493796Y-41492257D01*
X90493796Y-41492257D02*
X90636654Y-41420828D01*
X90636654Y-41420828D02*
X90922368Y-41420828D01*
X90922368Y-41420828D02*
X91065225Y-41492257D01*
X91065225Y-41492257D02*
X91136654Y-41635114D01*
X91136654Y-41635114D02*
X91136654Y-41777971D01*
X91136654Y-41777971D02*
X90422368Y-41920828D01*
X91779510Y-42420828D02*
X91779510Y-41420828D01*
X91779510Y-41706542D02*
X91850939Y-41563685D01*
X91850939Y-41563685D02*
X91922368Y-41492257D01*
X91922368Y-41492257D02*
X92065225Y-41420828D01*
X92065225Y-41420828D02*
X92208082Y-41420828D01*
X94350938Y-41635114D02*
X94565224Y-41706542D01*
X94565224Y-41706542D02*
X94636653Y-41777971D01*
X94636653Y-41777971D02*
X94708081Y-41920828D01*
X94708081Y-41920828D02*
X94708081Y-42135114D01*
X94708081Y-42135114D02*
X94636653Y-42277971D01*
X94636653Y-42277971D02*
X94565224Y-42349400D01*
X94565224Y-42349400D02*
X94422367Y-42420828D01*
X94422367Y-42420828D02*
X93850938Y-42420828D01*
X93850938Y-42420828D02*
X93850938Y-40920828D01*
X93850938Y-40920828D02*
X94350938Y-40920828D01*
X94350938Y-40920828D02*
X94493796Y-40992257D01*
X94493796Y-40992257D02*
X94565224Y-41063685D01*
X94565224Y-41063685D02*
X94636653Y-41206542D01*
X94636653Y-41206542D02*
X94636653Y-41349400D01*
X94636653Y-41349400D02*
X94565224Y-41492257D01*
X94565224Y-41492257D02*
X94493796Y-41563685D01*
X94493796Y-41563685D02*
X94350938Y-41635114D01*
X94350938Y-41635114D02*
X93850938Y-41635114D01*
X95565224Y-42420828D02*
X95422367Y-42349400D01*
X95422367Y-42349400D02*
X95350938Y-42277971D01*
X95350938Y-42277971D02*
X95279510Y-42135114D01*
X95279510Y-42135114D02*
X95279510Y-41706542D01*
X95279510Y-41706542D02*
X95350938Y-41563685D01*
X95350938Y-41563685D02*
X95422367Y-41492257D01*
X95422367Y-41492257D02*
X95565224Y-41420828D01*
X95565224Y-41420828D02*
X95779510Y-41420828D01*
X95779510Y-41420828D02*
X95922367Y-41492257D01*
X95922367Y-41492257D02*
X95993796Y-41563685D01*
X95993796Y-41563685D02*
X96065224Y-41706542D01*
X96065224Y-41706542D02*
X96065224Y-42135114D01*
X96065224Y-42135114D02*
X95993796Y-42277971D01*
X95993796Y-42277971D02*
X95922367Y-42349400D01*
X95922367Y-42349400D02*
X95779510Y-42420828D01*
X95779510Y-42420828D02*
X95565224Y-42420828D01*
X97350939Y-42420828D02*
X97350939Y-41635114D01*
X97350939Y-41635114D02*
X97279510Y-41492257D01*
X97279510Y-41492257D02*
X97136653Y-41420828D01*
X97136653Y-41420828D02*
X96850939Y-41420828D01*
X96850939Y-41420828D02*
X96708081Y-41492257D01*
X97350939Y-42349400D02*
X97208081Y-42420828D01*
X97208081Y-42420828D02*
X96850939Y-42420828D01*
X96850939Y-42420828D02*
X96708081Y-42349400D01*
X96708081Y-42349400D02*
X96636653Y-42206542D01*
X96636653Y-42206542D02*
X96636653Y-42063685D01*
X96636653Y-42063685D02*
X96708081Y-41920828D01*
X96708081Y-41920828D02*
X96850939Y-41849400D01*
X96850939Y-41849400D02*
X97208081Y-41849400D01*
X97208081Y-41849400D02*
X97350939Y-41777971D01*
X98065224Y-42420828D02*
X98065224Y-41420828D01*
X98065224Y-41706542D02*
X98136653Y-41563685D01*
X98136653Y-41563685D02*
X98208082Y-41492257D01*
X98208082Y-41492257D02*
X98350939Y-41420828D01*
X98350939Y-41420828D02*
X98493796Y-41420828D01*
X99636653Y-42420828D02*
X99636653Y-40920828D01*
X99636653Y-42349400D02*
X99493795Y-42420828D01*
X99493795Y-42420828D02*
X99208081Y-42420828D01*
X99208081Y-42420828D02*
X99065224Y-42349400D01*
X99065224Y-42349400D02*
X98993795Y-42277971D01*
X98993795Y-42277971D02*
X98922367Y-42135114D01*
X98922367Y-42135114D02*
X98922367Y-41706542D01*
X98922367Y-41706542D02*
X98993795Y-41563685D01*
X98993795Y-41563685D02*
X99065224Y-41492257D01*
X99065224Y-41492257D02*
X99208081Y-41420828D01*
X99208081Y-41420828D02*
X99493795Y-41420828D01*
X99493795Y-41420828D02*
X99636653Y-41492257D01*
X73636653Y-44835828D02*
X73136653Y-44121542D01*
X72779510Y-44835828D02*
X72779510Y-43335828D01*
X72779510Y-43335828D02*
X73350939Y-43335828D01*
X73350939Y-43335828D02*
X73493796Y-43407257D01*
X73493796Y-43407257D02*
X73565225Y-43478685D01*
X73565225Y-43478685D02*
X73636653Y-43621542D01*
X73636653Y-43621542D02*
X73636653Y-43835828D01*
X73636653Y-43835828D02*
X73565225Y-43978685D01*
X73565225Y-43978685D02*
X73493796Y-44050114D01*
X73493796Y-44050114D02*
X73350939Y-44121542D01*
X73350939Y-44121542D02*
X72779510Y-44121542D01*
X74850939Y-44764400D02*
X74708082Y-44835828D01*
X74708082Y-44835828D02*
X74422368Y-44835828D01*
X74422368Y-44835828D02*
X74279510Y-44764400D01*
X74279510Y-44764400D02*
X74208082Y-44621542D01*
X74208082Y-44621542D02*
X74208082Y-44050114D01*
X74208082Y-44050114D02*
X74279510Y-43907257D01*
X74279510Y-43907257D02*
X74422368Y-43835828D01*
X74422368Y-43835828D02*
X74708082Y-43835828D01*
X74708082Y-43835828D02*
X74850939Y-43907257D01*
X74850939Y-43907257D02*
X74922368Y-44050114D01*
X74922368Y-44050114D02*
X74922368Y-44192971D01*
X74922368Y-44192971D02*
X74208082Y-44335828D01*
X75422367Y-43835828D02*
X75779510Y-44835828D01*
X75779510Y-44835828D02*
X76136653Y-43835828D01*
X77779510Y-43478685D02*
X77850938Y-43407257D01*
X77850938Y-43407257D02*
X77993796Y-43335828D01*
X77993796Y-43335828D02*
X78350938Y-43335828D01*
X78350938Y-43335828D02*
X78493796Y-43407257D01*
X78493796Y-43407257D02*
X78565224Y-43478685D01*
X78565224Y-43478685D02*
X78636653Y-43621542D01*
X78636653Y-43621542D02*
X78636653Y-43764400D01*
X78636653Y-43764400D02*
X78565224Y-43978685D01*
X78565224Y-43978685D02*
X77708081Y-44835828D01*
X77708081Y-44835828D02*
X78636653Y-44835828D01*
X79279509Y-44692971D02*
X79350938Y-44764400D01*
X79350938Y-44764400D02*
X79279509Y-44835828D01*
X79279509Y-44835828D02*
X79208081Y-44764400D01*
X79208081Y-44764400D02*
X79279509Y-44692971D01*
X79279509Y-44692971D02*
X79279509Y-44835828D01*
X80279510Y-43335828D02*
X80422367Y-43335828D01*
X80422367Y-43335828D02*
X80565224Y-43407257D01*
X80565224Y-43407257D02*
X80636653Y-43478685D01*
X80636653Y-43478685D02*
X80708081Y-43621542D01*
X80708081Y-43621542D02*
X80779510Y-43907257D01*
X80779510Y-43907257D02*
X80779510Y-44264400D01*
X80779510Y-44264400D02*
X80708081Y-44550114D01*
X80708081Y-44550114D02*
X80636653Y-44692971D01*
X80636653Y-44692971D02*
X80565224Y-44764400D01*
X80565224Y-44764400D02*
X80422367Y-44835828D01*
X80422367Y-44835828D02*
X80279510Y-44835828D01*
X80279510Y-44835828D02*
X80136653Y-44764400D01*
X80136653Y-44764400D02*
X80065224Y-44692971D01*
X80065224Y-44692971D02*
X79993795Y-44550114D01*
X79993795Y-44550114D02*
X79922367Y-44264400D01*
X79922367Y-44264400D02*
X79922367Y-43907257D01*
X79922367Y-43907257D02*
X79993795Y-43621542D01*
X79993795Y-43621542D02*
X80065224Y-43478685D01*
X80065224Y-43478685D02*
X80136653Y-43407257D01*
X80136653Y-43407257D02*
X80279510Y-43335828D01*
X72708082Y-47179400D02*
X72922368Y-47250828D01*
X72922368Y-47250828D02*
X73279510Y-47250828D01*
X73279510Y-47250828D02*
X73422368Y-47179400D01*
X73422368Y-47179400D02*
X73493796Y-47107971D01*
X73493796Y-47107971D02*
X73565225Y-46965114D01*
X73565225Y-46965114D02*
X73565225Y-46822257D01*
X73565225Y-46822257D02*
X73493796Y-46679400D01*
X73493796Y-46679400D02*
X73422368Y-46607971D01*
X73422368Y-46607971D02*
X73279510Y-46536542D01*
X73279510Y-46536542D02*
X72993796Y-46465114D01*
X72993796Y-46465114D02*
X72850939Y-46393685D01*
X72850939Y-46393685D02*
X72779510Y-46322257D01*
X72779510Y-46322257D02*
X72708082Y-46179400D01*
X72708082Y-46179400D02*
X72708082Y-46036542D01*
X72708082Y-46036542D02*
X72779510Y-45893685D01*
X72779510Y-45893685D02*
X72850939Y-45822257D01*
X72850939Y-45822257D02*
X72993796Y-45750828D01*
X72993796Y-45750828D02*
X73350939Y-45750828D01*
X73350939Y-45750828D02*
X73565225Y-45822257D01*
X74208081Y-47250828D02*
X74208081Y-45750828D01*
X74208081Y-45750828D02*
X75065224Y-47250828D01*
X75065224Y-47250828D02*
X75065224Y-45750828D01*
D11*
X68215350Y-86693152D02*
X68215350Y-87359819D01*
X67786779Y-86693152D02*
X67786779Y-87216961D01*
X67786779Y-87216961D02*
X67834398Y-87312200D01*
X67834398Y-87312200D02*
X67929636Y-87359819D01*
X67929636Y-87359819D02*
X68072493Y-87359819D01*
X68072493Y-87359819D02*
X68167731Y-87312200D01*
X68167731Y-87312200D02*
X68215350Y-87264580D01*
X68691541Y-86693152D02*
X68691541Y-87359819D01*
X68691541Y-86788390D02*
X68739160Y-86740771D01*
X68739160Y-86740771D02*
X68834398Y-86693152D01*
X68834398Y-86693152D02*
X68977255Y-86693152D01*
X68977255Y-86693152D02*
X69072493Y-86740771D01*
X69072493Y-86740771D02*
X69120112Y-86836009D01*
X69120112Y-86836009D02*
X69120112Y-87359819D01*
X69596303Y-87359819D02*
X69596303Y-86693152D01*
X69596303Y-86883628D02*
X69643922Y-86788390D01*
X69643922Y-86788390D02*
X69691541Y-86740771D01*
X69691541Y-86740771D02*
X69786779Y-86693152D01*
X69786779Y-86693152D02*
X69882017Y-86693152D01*
X70596303Y-87312200D02*
X70501065Y-87359819D01*
X70501065Y-87359819D02*
X70310589Y-87359819D01*
X70310589Y-87359819D02*
X70215351Y-87312200D01*
X70215351Y-87312200D02*
X70167732Y-87216961D01*
X70167732Y-87216961D02*
X70167732Y-86836009D01*
X70167732Y-86836009D02*
X70215351Y-86740771D01*
X70215351Y-86740771D02*
X70310589Y-86693152D01*
X70310589Y-86693152D02*
X70501065Y-86693152D01*
X70501065Y-86693152D02*
X70596303Y-86740771D01*
X70596303Y-86740771D02*
X70643922Y-86836009D01*
X70643922Y-86836009D02*
X70643922Y-86931247D01*
X70643922Y-86931247D02*
X70167732Y-87026485D01*
X71501065Y-86693152D02*
X71501065Y-87502676D01*
X71501065Y-87502676D02*
X71453446Y-87597914D01*
X71453446Y-87597914D02*
X71405827Y-87645533D01*
X71405827Y-87645533D02*
X71310589Y-87693152D01*
X71310589Y-87693152D02*
X71167732Y-87693152D01*
X71167732Y-87693152D02*
X71072494Y-87645533D01*
X71501065Y-87312200D02*
X71405827Y-87359819D01*
X71405827Y-87359819D02*
X71215351Y-87359819D01*
X71215351Y-87359819D02*
X71120113Y-87312200D01*
X71120113Y-87312200D02*
X71072494Y-87264580D01*
X71072494Y-87264580D02*
X71024875Y-87169342D01*
X71024875Y-87169342D02*
X71024875Y-86883628D01*
X71024875Y-86883628D02*
X71072494Y-86788390D01*
X71072494Y-86788390D02*
X71120113Y-86740771D01*
X71120113Y-86740771D02*
X71215351Y-86693152D01*
X71215351Y-86693152D02*
X71405827Y-86693152D01*
X71405827Y-86693152D02*
X71501065Y-86740771D01*
X67786779Y-88303152D02*
X68548684Y-88588866D01*
X68548684Y-88588866D02*
X67786779Y-88874580D01*
X69739160Y-88922200D02*
X69834398Y-88969819D01*
X69834398Y-88969819D02*
X70024874Y-88969819D01*
X70024874Y-88969819D02*
X70120112Y-88922200D01*
X70120112Y-88922200D02*
X70167731Y-88826961D01*
X70167731Y-88826961D02*
X70167731Y-88779342D01*
X70167731Y-88779342D02*
X70120112Y-88684104D01*
X70120112Y-88684104D02*
X70024874Y-88636485D01*
X70024874Y-88636485D02*
X69882017Y-88636485D01*
X69882017Y-88636485D02*
X69786779Y-88588866D01*
X69786779Y-88588866D02*
X69739160Y-88493628D01*
X69739160Y-88493628D02*
X69739160Y-88446009D01*
X69739160Y-88446009D02*
X69786779Y-88350771D01*
X69786779Y-88350771D02*
X69882017Y-88303152D01*
X69882017Y-88303152D02*
X70024874Y-88303152D01*
X70024874Y-88303152D02*
X70120112Y-88350771D01*
X70739160Y-88969819D02*
X70643922Y-88922200D01*
X70643922Y-88922200D02*
X70596303Y-88874580D01*
X70596303Y-88874580D02*
X70548684Y-88779342D01*
X70548684Y-88779342D02*
X70548684Y-88493628D01*
X70548684Y-88493628D02*
X70596303Y-88398390D01*
X70596303Y-88398390D02*
X70643922Y-88350771D01*
X70643922Y-88350771D02*
X70739160Y-88303152D01*
X70739160Y-88303152D02*
X70882017Y-88303152D01*
X70882017Y-88303152D02*
X70977255Y-88350771D01*
X70977255Y-88350771D02*
X71024874Y-88398390D01*
X71024874Y-88398390D02*
X71072493Y-88493628D01*
X71072493Y-88493628D02*
X71072493Y-88779342D01*
X71072493Y-88779342D02*
X71024874Y-88874580D01*
X71024874Y-88874580D02*
X70977255Y-88922200D01*
X70977255Y-88922200D02*
X70882017Y-88969819D01*
X70882017Y-88969819D02*
X70739160Y-88969819D01*
X71643922Y-88969819D02*
X71548684Y-88922200D01*
X71548684Y-88922200D02*
X71501065Y-88826961D01*
X71501065Y-88826961D02*
X71501065Y-87969819D01*
X72453446Y-88969819D02*
X72453446Y-88446009D01*
X72453446Y-88446009D02*
X72405827Y-88350771D01*
X72405827Y-88350771D02*
X72310589Y-88303152D01*
X72310589Y-88303152D02*
X72120113Y-88303152D01*
X72120113Y-88303152D02*
X72024875Y-88350771D01*
X72453446Y-88922200D02*
X72358208Y-88969819D01*
X72358208Y-88969819D02*
X72120113Y-88969819D01*
X72120113Y-88969819D02*
X72024875Y-88922200D01*
X72024875Y-88922200D02*
X71977256Y-88826961D01*
X71977256Y-88826961D02*
X71977256Y-88731723D01*
X71977256Y-88731723D02*
X72024875Y-88636485D01*
X72024875Y-88636485D02*
X72120113Y-88588866D01*
X72120113Y-88588866D02*
X72358208Y-88588866D01*
X72358208Y-88588866D02*
X72453446Y-88541247D01*
X72929637Y-88969819D02*
X72929637Y-88303152D01*
X72929637Y-88493628D02*
X72977256Y-88398390D01*
X72977256Y-88398390D02*
X73024875Y-88350771D01*
X73024875Y-88350771D02*
X73120113Y-88303152D01*
X73120113Y-88303152D02*
X73215351Y-88303152D01*
G36*
X122825685Y-45729077D02*
G01*
X122856092Y-45759484D01*
X122894585Y-45836471D01*
X122937969Y-46010005D01*
X122937969Y-46229632D01*
X122894585Y-46403166D01*
X122856091Y-46480153D01*
X122825684Y-46510561D01*
X122757169Y-46544819D01*
X122697341Y-46544819D01*
X122628825Y-46510561D01*
X122598418Y-46480153D01*
X122559924Y-46403166D01*
X122516541Y-46229632D01*
X122516541Y-46010005D01*
X122559924Y-45836471D01*
X122598418Y-45759484D01*
X122628825Y-45729077D01*
X122697341Y-45694819D01*
X122757169Y-45694819D01*
X122825685Y-45729077D01*
G37*
G36*
X119968542Y-45729077D02*
G01*
X119998949Y-45759484D01*
X120033207Y-45828000D01*
X120033207Y-45935447D01*
X119998949Y-46003963D01*
X119968542Y-46034370D01*
X119900026Y-46068628D01*
X119611779Y-46068628D01*
X119611779Y-45694819D01*
X119900026Y-45694819D01*
X119968542Y-45729077D01*
G37*
G36*
X124229687Y-46837676D02*
G01*
X119318922Y-46837676D01*
X119318922Y-46619819D01*
X119461779Y-46619819D01*
X119479326Y-46668028D01*
X119523755Y-46693680D01*
X119574279Y-46684771D01*
X119607256Y-46645471D01*
X119611779Y-46619819D01*
X119611779Y-46218628D01*
X119917731Y-46218628D01*
X119921944Y-46217094D01*
X119926305Y-46218136D01*
X119951272Y-46210710D01*
X119990198Y-46191247D01*
X120414160Y-46191247D01*
X120415345Y-46194504D01*
X120416399Y-46209437D01*
X120464018Y-46399913D01*
X120466006Y-46402857D01*
X120469697Y-46415264D01*
X120517316Y-46510502D01*
X120518502Y-46511625D01*
X120531365Y-46529994D01*
X120626603Y-46625233D01*
X120630667Y-46627128D01*
X120633014Y-46630948D01*
X120655919Y-46643351D01*
X120798775Y-46690970D01*
X120800410Y-46690925D01*
X120822493Y-46694819D01*
X120917731Y-46694819D01*
X120919269Y-46694258D01*
X120941448Y-46690970D01*
X121084305Y-46643351D01*
X121087816Y-46640563D01*
X121092285Y-46640173D01*
X121113622Y-46625232D01*
X121132059Y-46606795D01*
X121415299Y-46606795D01*
X121424208Y-46657319D01*
X121463508Y-46690296D01*
X121489160Y-46694819D01*
X122060588Y-46694819D01*
X122108797Y-46677272D01*
X122134449Y-46632843D01*
X122125540Y-46582319D01*
X122086240Y-46549342D01*
X122060588Y-46544819D01*
X121849874Y-46544819D01*
X121849874Y-46238866D01*
X122366541Y-46238866D01*
X122367726Y-46242123D01*
X122368780Y-46257056D01*
X122416399Y-46447532D01*
X122418387Y-46450476D01*
X122422078Y-46462883D01*
X122469697Y-46558121D01*
X122470885Y-46559246D01*
X122483745Y-46577612D01*
X122531364Y-46625232D01*
X122532845Y-46625922D01*
X122550857Y-46639282D01*
X122646095Y-46686901D01*
X122650548Y-46687413D01*
X122653984Y-46690296D01*
X122679636Y-46694819D01*
X122774874Y-46694819D01*
X122779087Y-46693285D01*
X122783448Y-46694327D01*
X122808415Y-46686901D01*
X122903653Y-46639282D01*
X122904777Y-46638094D01*
X122923146Y-46625232D01*
X122970764Y-46577613D01*
X122971454Y-46576131D01*
X122984813Y-46558121D01*
X123032432Y-46462883D01*
X123032838Y-46459354D01*
X123038111Y-46447532D01*
X123081629Y-46273461D01*
X123320061Y-46273461D01*
X123323613Y-46293607D01*
X123324172Y-46314052D01*
X123327974Y-46318340D01*
X123328970Y-46323985D01*
X123344637Y-46337131D01*
X123358209Y-46352437D01*
X123363879Y-46353277D01*
X123368270Y-46356962D01*
X123393922Y-46361485D01*
X123795112Y-46361485D01*
X123795112Y-46619819D01*
X123812659Y-46668028D01*
X123857088Y-46693680D01*
X123907612Y-46684771D01*
X123940589Y-46645471D01*
X123945112Y-46619819D01*
X123945112Y-46361485D01*
X124012969Y-46361485D01*
X124061178Y-46343938D01*
X124086830Y-46299509D01*
X124077921Y-46248985D01*
X124038621Y-46216008D01*
X124012969Y-46211485D01*
X123945112Y-46211485D01*
X123945112Y-45953152D01*
X123927565Y-45904943D01*
X123883136Y-45879291D01*
X123832612Y-45888200D01*
X123799635Y-45927500D01*
X123795112Y-45953152D01*
X123795112Y-46211485D01*
X123497979Y-46211485D01*
X123703168Y-45595918D01*
X123701767Y-45544634D01*
X123667729Y-45506248D01*
X123616981Y-45498723D01*
X123573268Y-45525578D01*
X123560866Y-45548483D01*
X123322771Y-46262768D01*
X123322927Y-46268496D01*
X123320061Y-46273461D01*
X123081629Y-46273461D01*
X123085730Y-46257056D01*
X123085369Y-46253607D01*
X123087969Y-46238866D01*
X123087969Y-46000771D01*
X123086783Y-45997513D01*
X123085730Y-45982581D01*
X123038111Y-45792105D01*
X123036122Y-45789160D01*
X123032432Y-45776754D01*
X122984813Y-45681516D01*
X122983623Y-45680390D01*
X122970764Y-45662024D01*
X122923145Y-45614405D01*
X122921663Y-45613714D01*
X122903653Y-45600356D01*
X122808415Y-45552737D01*
X122803961Y-45552224D01*
X122800526Y-45549342D01*
X122774874Y-45544819D01*
X122679636Y-45544819D01*
X122675422Y-45546352D01*
X122671061Y-45545311D01*
X122646095Y-45552737D01*
X122550857Y-45600356D01*
X122549731Y-45601545D01*
X122531365Y-45614405D01*
X122483746Y-45662024D01*
X122483055Y-45663505D01*
X122469697Y-45681516D01*
X122422078Y-45776754D01*
X122421671Y-45780282D01*
X122416399Y-45792105D01*
X122368780Y-45982581D01*
X122369140Y-45986029D01*
X122366541Y-46000771D01*
X122366541Y-46238866D01*
X121849874Y-46238866D01*
X121849874Y-45619819D01*
X121848398Y-45615765D01*
X121849419Y-45611576D01*
X121839771Y-45592063D01*
X121832327Y-45571610D01*
X121828592Y-45569454D01*
X121826681Y-45565587D01*
X121806746Y-45556840D01*
X121787898Y-45545958D01*
X121783650Y-45546706D01*
X121779701Y-45544974D01*
X121758806Y-45551087D01*
X121737374Y-45554867D01*
X121734602Y-45558169D01*
X121730463Y-45559381D01*
X121712470Y-45578216D01*
X121621350Y-45714896D01*
X121539971Y-45796275D01*
X121455619Y-45838451D01*
X121420347Y-45875705D01*
X121417272Y-45926916D01*
X121447836Y-45968121D01*
X121497734Y-45980041D01*
X121522701Y-45972615D01*
X121617939Y-45924996D01*
X121619064Y-45923806D01*
X121637431Y-45910947D01*
X121699874Y-45848504D01*
X121699874Y-46544819D01*
X121489160Y-46544819D01*
X121440951Y-46562366D01*
X121415299Y-46606795D01*
X121132059Y-46606795D01*
X121161240Y-46577613D01*
X121182921Y-46531116D01*
X121169643Y-46481561D01*
X121127618Y-46452135D01*
X121076510Y-46456607D01*
X121055173Y-46471548D01*
X121020074Y-46506647D01*
X120905561Y-46544819D01*
X120834663Y-46544819D01*
X120720150Y-46506648D01*
X120646037Y-46432534D01*
X120607543Y-46355547D01*
X120564160Y-46182013D01*
X120564160Y-46057624D01*
X120607543Y-45884090D01*
X120646037Y-45807103D01*
X120720150Y-45732990D01*
X120834663Y-45694819D01*
X120905561Y-45694819D01*
X121020074Y-45732990D01*
X121055174Y-45768090D01*
X121101670Y-45789771D01*
X121151225Y-45776494D01*
X121180651Y-45734468D01*
X121176180Y-45683361D01*
X121161240Y-45662024D01*
X121113621Y-45614405D01*
X121109557Y-45612510D01*
X121107210Y-45608689D01*
X121084305Y-45596287D01*
X120941448Y-45548668D01*
X120939813Y-45548712D01*
X120917731Y-45544819D01*
X120822493Y-45544819D01*
X120820955Y-45545378D01*
X120798775Y-45548668D01*
X120655919Y-45596287D01*
X120652408Y-45599073D01*
X120647940Y-45599464D01*
X120626603Y-45614405D01*
X120531365Y-45709643D01*
X120530674Y-45711124D01*
X120517316Y-45729135D01*
X120469697Y-45824373D01*
X120469290Y-45827901D01*
X120464018Y-45839724D01*
X120416399Y-46030200D01*
X120416759Y-46033648D01*
X120414160Y-46048390D01*
X120414160Y-46191247D01*
X119990198Y-46191247D01*
X120046510Y-46163091D01*
X120047635Y-46161901D01*
X120066002Y-46149042D01*
X120113621Y-46101423D01*
X120114312Y-46099941D01*
X120127670Y-46081931D01*
X120175289Y-45986693D01*
X120175801Y-45982239D01*
X120178684Y-45978804D01*
X120183207Y-45953152D01*
X120183207Y-45810295D01*
X120181673Y-45806081D01*
X120182715Y-45801720D01*
X120175289Y-45776754D01*
X120127670Y-45681516D01*
X120126480Y-45680390D01*
X120113621Y-45662024D01*
X120066002Y-45614405D01*
X120064520Y-45613714D01*
X120046510Y-45600356D01*
X119951272Y-45552737D01*
X119946818Y-45552224D01*
X119943383Y-45549342D01*
X119917731Y-45544819D01*
X119536779Y-45544819D01*
X119518470Y-45551482D01*
X119499279Y-45554867D01*
X119494928Y-45560051D01*
X119488570Y-45562366D01*
X119478827Y-45579239D01*
X119466302Y-45594167D01*
X119464584Y-45603909D01*
X119462918Y-45606795D01*
X119463496Y-45610077D01*
X119461779Y-45619819D01*
X119461779Y-46619819D01*
X119318922Y-46619819D01*
X119318922Y-45355866D01*
X124229687Y-45355866D01*
X124229687Y-46837676D01*
G37*
G36*
X46727960Y-51659104D02*
G01*
X46459884Y-51659104D01*
X46593922Y-51256989D01*
X46727960Y-51659104D01*
G37*
G36*
X49299389Y-51659104D02*
G01*
X49031313Y-51659104D01*
X49165351Y-51256989D01*
X49299389Y-51659104D01*
G37*
G36*
X50477307Y-52237676D02*
G01*
X44518922Y-52237676D01*
X44518922Y-52019819D01*
X44661779Y-52019819D01*
X44679326Y-52068028D01*
X44723755Y-52093680D01*
X44774279Y-52084771D01*
X44807256Y-52045471D01*
X44811779Y-52019819D01*
X45518922Y-52019819D01*
X45525585Y-52038127D01*
X45528970Y-52057319D01*
X45534154Y-52061669D01*
X45536469Y-52068028D01*
X45553342Y-52077770D01*
X45568270Y-52090296D01*
X45578012Y-52092013D01*
X45580898Y-52093680D01*
X45584180Y-52093101D01*
X45593922Y-52094819D01*
X46070112Y-52094819D01*
X46118321Y-52077272D01*
X46143973Y-52032843D01*
X46137494Y-51996102D01*
X46189438Y-51996102D01*
X46190839Y-52047386D01*
X46224876Y-52085771D01*
X46275625Y-52093296D01*
X46319337Y-52066441D01*
X46331740Y-52043536D01*
X46409884Y-51809104D01*
X46777960Y-51809104D01*
X46856104Y-52043536D01*
X46887995Y-52083722D01*
X46938256Y-52094008D01*
X46983370Y-52069579D01*
X47002227Y-52021867D01*
X46998406Y-51996102D01*
X46668637Y-51006795D01*
X47043871Y-51006795D01*
X47052780Y-51057319D01*
X47092080Y-51090296D01*
X47117732Y-51094819D01*
X47328446Y-51094819D01*
X47328446Y-52019819D01*
X47345993Y-52068028D01*
X47390422Y-52093680D01*
X47440946Y-52084771D01*
X47473923Y-52045471D01*
X47478446Y-52019819D01*
X47478446Y-51305533D01*
X47899875Y-51305533D01*
X47901408Y-51309746D01*
X47900367Y-51314107D01*
X47907793Y-51339074D01*
X47955412Y-51434312D01*
X47956601Y-51435437D01*
X47969461Y-51453804D01*
X48017080Y-51501423D01*
X48018561Y-51502114D01*
X48036572Y-51515472D01*
X48131810Y-51563091D01*
X48135338Y-51563497D01*
X48147161Y-51568770D01*
X48329651Y-51614392D01*
X48406638Y-51652886D01*
X48437045Y-51683293D01*
X48471303Y-51751809D01*
X48471303Y-51811637D01*
X48437044Y-51880153D01*
X48406637Y-51910561D01*
X48338122Y-51944819D01*
X48129902Y-51944819D01*
X47998592Y-51901049D01*
X47947308Y-51902450D01*
X47908923Y-51936487D01*
X47901398Y-51987236D01*
X47928253Y-52030948D01*
X47951158Y-52043351D01*
X48094014Y-52090970D01*
X48095649Y-52090925D01*
X48117732Y-52094819D01*
X48355827Y-52094819D01*
X48360040Y-52093285D01*
X48364401Y-52094327D01*
X48389368Y-52086901D01*
X48484606Y-52039282D01*
X48485730Y-52038094D01*
X48504099Y-52025232D01*
X48533228Y-51996102D01*
X48760867Y-51996102D01*
X48762268Y-52047386D01*
X48796305Y-52085771D01*
X48847054Y-52093296D01*
X48890766Y-52066441D01*
X48903169Y-52043536D01*
X48981313Y-51809104D01*
X49349389Y-51809104D01*
X49427533Y-52043536D01*
X49459424Y-52083722D01*
X49509685Y-52094008D01*
X49554799Y-52069579D01*
X49573656Y-52021867D01*
X49569835Y-51996102D01*
X49240066Y-51006795D01*
X49615300Y-51006795D01*
X49624209Y-51057319D01*
X49663509Y-51090296D01*
X49689161Y-51094819D01*
X49899875Y-51094819D01*
X49899875Y-52019819D01*
X49917422Y-52068028D01*
X49961851Y-52093680D01*
X50012375Y-52084771D01*
X50045352Y-52045471D01*
X50049875Y-52019819D01*
X50049875Y-51094819D01*
X50260589Y-51094819D01*
X50308798Y-51077272D01*
X50334450Y-51032843D01*
X50325541Y-50982319D01*
X50286241Y-50949342D01*
X50260589Y-50944819D01*
X49689161Y-50944819D01*
X49640952Y-50962366D01*
X49615300Y-51006795D01*
X49240066Y-51006795D01*
X49236502Y-50996102D01*
X49235159Y-50994410D01*
X49235101Y-50992253D01*
X49219359Y-50974500D01*
X49204611Y-50955916D01*
X49202496Y-50955483D01*
X49201063Y-50953867D01*
X49177594Y-50950387D01*
X49154350Y-50945630D01*
X49152450Y-50946658D01*
X49150315Y-50946342D01*
X49130097Y-50958762D01*
X49109236Y-50970059D01*
X49108442Y-50972066D01*
X49106602Y-50973197D01*
X49094200Y-50996102D01*
X48760867Y-51996102D01*
X48533228Y-51996102D01*
X48551717Y-51977613D01*
X48552407Y-51976131D01*
X48565766Y-51958121D01*
X48613385Y-51862883D01*
X48613897Y-51858429D01*
X48616780Y-51854994D01*
X48621303Y-51829342D01*
X48621303Y-51734104D01*
X48619769Y-51729890D01*
X48620811Y-51725529D01*
X48613385Y-51700563D01*
X48565766Y-51605325D01*
X48564576Y-51604199D01*
X48551717Y-51585833D01*
X48504098Y-51538214D01*
X48502616Y-51537523D01*
X48484606Y-51524165D01*
X48389368Y-51476546D01*
X48385839Y-51476139D01*
X48374017Y-51470867D01*
X48191527Y-51425244D01*
X48114540Y-51386751D01*
X48084133Y-51356344D01*
X48049875Y-51287828D01*
X48049875Y-51228000D01*
X48084133Y-51159484D01*
X48114540Y-51129077D01*
X48183056Y-51094819D01*
X48391276Y-51094819D01*
X48522585Y-51138589D01*
X48573869Y-51137188D01*
X48612255Y-51103150D01*
X48619780Y-51052402D01*
X48592925Y-51008689D01*
X48570020Y-50996287D01*
X48427163Y-50948668D01*
X48425528Y-50948712D01*
X48403446Y-50944819D01*
X48165351Y-50944819D01*
X48161137Y-50946352D01*
X48156776Y-50945311D01*
X48131810Y-50952737D01*
X48036572Y-51000356D01*
X48035446Y-51001545D01*
X48017080Y-51014405D01*
X47969461Y-51062024D01*
X47968770Y-51063505D01*
X47955412Y-51081516D01*
X47907793Y-51176754D01*
X47907280Y-51181207D01*
X47904398Y-51184643D01*
X47899875Y-51210295D01*
X47899875Y-51305533D01*
X47478446Y-51305533D01*
X47478446Y-51094819D01*
X47689160Y-51094819D01*
X47737369Y-51077272D01*
X47763021Y-51032843D01*
X47754112Y-50982319D01*
X47714812Y-50949342D01*
X47689160Y-50944819D01*
X47117732Y-50944819D01*
X47069523Y-50962366D01*
X47043871Y-51006795D01*
X46668637Y-51006795D01*
X46665073Y-50996102D01*
X46663730Y-50994410D01*
X46663672Y-50992253D01*
X46647930Y-50974500D01*
X46633182Y-50955916D01*
X46631067Y-50955483D01*
X46629634Y-50953867D01*
X46606165Y-50950387D01*
X46582921Y-50945630D01*
X46581021Y-50946658D01*
X46578886Y-50946342D01*
X46558668Y-50958762D01*
X46537807Y-50970059D01*
X46537013Y-50972066D01*
X46535173Y-50973197D01*
X46522771Y-50996102D01*
X46189438Y-51996102D01*
X46137494Y-51996102D01*
X46135064Y-51982319D01*
X46095764Y-51949342D01*
X46070112Y-51944819D01*
X45668922Y-51944819D01*
X45668922Y-51019819D01*
X45651375Y-50971610D01*
X45606946Y-50945958D01*
X45556422Y-50954867D01*
X45523445Y-50994167D01*
X45518922Y-51019819D01*
X45518922Y-52019819D01*
X44811779Y-52019819D01*
X44811779Y-51571009D01*
X45070112Y-51571009D01*
X45118321Y-51553462D01*
X45143973Y-51509033D01*
X45135064Y-51458509D01*
X45095764Y-51425532D01*
X45070112Y-51421009D01*
X44811779Y-51421009D01*
X44811779Y-51094819D01*
X45212969Y-51094819D01*
X45261178Y-51077272D01*
X45286830Y-51032843D01*
X45277921Y-50982319D01*
X45238621Y-50949342D01*
X45212969Y-50944819D01*
X44736779Y-50944819D01*
X44718470Y-50951482D01*
X44699279Y-50954867D01*
X44694928Y-50960051D01*
X44688570Y-50962366D01*
X44678827Y-50979239D01*
X44666302Y-50994167D01*
X44664584Y-51003909D01*
X44662918Y-51006795D01*
X44663496Y-51010077D01*
X44661779Y-51019819D01*
X44661779Y-52019819D01*
X44518922Y-52019819D01*
X44518922Y-50801962D01*
X50477307Y-50801962D01*
X50477307Y-52237676D01*
G37*
X68265350Y-95693152D02*
X68265350Y-96359819D01*
X67836779Y-95693152D02*
X67836779Y-96216961D01*
X67836779Y-96216961D02*
X67884398Y-96312200D01*
X67884398Y-96312200D02*
X67979636Y-96359819D01*
X67979636Y-96359819D02*
X68122493Y-96359819D01*
X68122493Y-96359819D02*
X68217731Y-96312200D01*
X68217731Y-96312200D02*
X68265350Y-96264580D01*
X68741541Y-95693152D02*
X68741541Y-96359819D01*
X68741541Y-95788390D02*
X68789160Y-95740771D01*
X68789160Y-95740771D02*
X68884398Y-95693152D01*
X68884398Y-95693152D02*
X69027255Y-95693152D01*
X69027255Y-95693152D02*
X69122493Y-95740771D01*
X69122493Y-95740771D02*
X69170112Y-95836009D01*
X69170112Y-95836009D02*
X69170112Y-96359819D01*
X69646303Y-96359819D02*
X69646303Y-95693152D01*
X69646303Y-95883628D02*
X69693922Y-95788390D01*
X69693922Y-95788390D02*
X69741541Y-95740771D01*
X69741541Y-95740771D02*
X69836779Y-95693152D01*
X69836779Y-95693152D02*
X69932017Y-95693152D01*
X70646303Y-96312200D02*
X70551065Y-96359819D01*
X70551065Y-96359819D02*
X70360589Y-96359819D01*
X70360589Y-96359819D02*
X70265351Y-96312200D01*
X70265351Y-96312200D02*
X70217732Y-96216961D01*
X70217732Y-96216961D02*
X70217732Y-95836009D01*
X70217732Y-95836009D02*
X70265351Y-95740771D01*
X70265351Y-95740771D02*
X70360589Y-95693152D01*
X70360589Y-95693152D02*
X70551065Y-95693152D01*
X70551065Y-95693152D02*
X70646303Y-95740771D01*
X70646303Y-95740771D02*
X70693922Y-95836009D01*
X70693922Y-95836009D02*
X70693922Y-95931247D01*
X70693922Y-95931247D02*
X70217732Y-96026485D01*
X71551065Y-95693152D02*
X71551065Y-96502676D01*
X71551065Y-96502676D02*
X71503446Y-96597914D01*
X71503446Y-96597914D02*
X71455827Y-96645533D01*
X71455827Y-96645533D02*
X71360589Y-96693152D01*
X71360589Y-96693152D02*
X71217732Y-96693152D01*
X71217732Y-96693152D02*
X71122494Y-96645533D01*
X71551065Y-96312200D02*
X71455827Y-96359819D01*
X71455827Y-96359819D02*
X71265351Y-96359819D01*
X71265351Y-96359819D02*
X71170113Y-96312200D01*
X71170113Y-96312200D02*
X71122494Y-96264580D01*
X71122494Y-96264580D02*
X71074875Y-96169342D01*
X71074875Y-96169342D02*
X71074875Y-95883628D01*
X71074875Y-95883628D02*
X71122494Y-95788390D01*
X71122494Y-95788390D02*
X71170113Y-95740771D01*
X71170113Y-95740771D02*
X71265351Y-95693152D01*
X71265351Y-95693152D02*
X71455827Y-95693152D01*
X71455827Y-95693152D02*
X71551065Y-95740771D01*
X67836779Y-97303152D02*
X68598684Y-97588866D01*
X68598684Y-97588866D02*
X67836779Y-97874580D01*
X69836779Y-97969819D02*
X69836779Y-96969819D01*
X69836779Y-97350771D02*
X69932017Y-97303152D01*
X69932017Y-97303152D02*
X70122493Y-97303152D01*
X70122493Y-97303152D02*
X70217731Y-97350771D01*
X70217731Y-97350771D02*
X70265350Y-97398390D01*
X70265350Y-97398390D02*
X70312969Y-97493628D01*
X70312969Y-97493628D02*
X70312969Y-97779342D01*
X70312969Y-97779342D02*
X70265350Y-97874580D01*
X70265350Y-97874580D02*
X70217731Y-97922200D01*
X70217731Y-97922200D02*
X70122493Y-97969819D01*
X70122493Y-97969819D02*
X69932017Y-97969819D01*
X69932017Y-97969819D02*
X69836779Y-97922200D01*
X71170112Y-97969819D02*
X71170112Y-97446009D01*
X71170112Y-97446009D02*
X71122493Y-97350771D01*
X71122493Y-97350771D02*
X71027255Y-97303152D01*
X71027255Y-97303152D02*
X70836779Y-97303152D01*
X70836779Y-97303152D02*
X70741541Y-97350771D01*
X71170112Y-97922200D02*
X71074874Y-97969819D01*
X71074874Y-97969819D02*
X70836779Y-97969819D01*
X70836779Y-97969819D02*
X70741541Y-97922200D01*
X70741541Y-97922200D02*
X70693922Y-97826961D01*
X70693922Y-97826961D02*
X70693922Y-97731723D01*
X70693922Y-97731723D02*
X70741541Y-97636485D01*
X70741541Y-97636485D02*
X70836779Y-97588866D01*
X70836779Y-97588866D02*
X71074874Y-97588866D01*
X71074874Y-97588866D02*
X71170112Y-97541247D01*
X71503446Y-97303152D02*
X71884398Y-97303152D01*
X71646303Y-96969819D02*
X71646303Y-97826961D01*
X71646303Y-97826961D02*
X71693922Y-97922200D01*
X71693922Y-97922200D02*
X71789160Y-97969819D01*
X71789160Y-97969819D02*
X71884398Y-97969819D01*
X72074875Y-97303152D02*
X72455827Y-97303152D01*
X72217732Y-96969819D02*
X72217732Y-97826961D01*
X72217732Y-97826961D02*
X72265351Y-97922200D01*
X72265351Y-97922200D02*
X72360589Y-97969819D01*
X72360589Y-97969819D02*
X72455827Y-97969819D01*
G36*
X61578445Y-121587676D02*
G01*
X58571303Y-121587676D01*
X58571303Y-120941247D01*
X58714160Y-120941247D01*
X58715345Y-120944504D01*
X58716399Y-120959437D01*
X58764018Y-121149913D01*
X58766006Y-121152857D01*
X58769697Y-121165264D01*
X58817316Y-121260502D01*
X58818502Y-121261625D01*
X58831365Y-121279994D01*
X58926603Y-121375233D01*
X58930667Y-121377128D01*
X58933014Y-121380948D01*
X58955919Y-121393351D01*
X59098775Y-121440970D01*
X59100410Y-121440925D01*
X59122493Y-121444819D01*
X59217731Y-121444819D01*
X59219269Y-121444258D01*
X59241448Y-121440970D01*
X59384305Y-121393351D01*
X59387816Y-121390563D01*
X59392285Y-121390173D01*
X59413622Y-121375232D01*
X59461240Y-121327613D01*
X59468158Y-121312775D01*
X59478684Y-121300232D01*
X59481527Y-121284104D01*
X59482921Y-121281116D01*
X59482398Y-121279165D01*
X59483207Y-121274580D01*
X59483207Y-120941247D01*
X59476543Y-120922938D01*
X59473159Y-120903747D01*
X59467974Y-120899396D01*
X59465660Y-120893038D01*
X59448786Y-120883295D01*
X59433859Y-120870770D01*
X59424116Y-120869052D01*
X59421231Y-120867386D01*
X59417948Y-120867964D01*
X59408207Y-120866247D01*
X59217731Y-120866247D01*
X59169522Y-120883794D01*
X59143870Y-120928223D01*
X59152779Y-120978747D01*
X59192079Y-121011724D01*
X59217731Y-121016247D01*
X59333207Y-121016247D01*
X59333207Y-121243514D01*
X59320074Y-121256647D01*
X59205561Y-121294819D01*
X59134663Y-121294819D01*
X59020150Y-121256648D01*
X58946037Y-121182534D01*
X58907543Y-121105547D01*
X58864160Y-120932013D01*
X58864160Y-120807624D01*
X58902182Y-120655533D01*
X59714160Y-120655533D01*
X59715693Y-120659746D01*
X59714652Y-120664107D01*
X59722078Y-120689074D01*
X59769697Y-120784312D01*
X59770886Y-120785437D01*
X59783746Y-120803804D01*
X59831365Y-120851423D01*
X59832846Y-120852114D01*
X59850857Y-120865472D01*
X59946095Y-120913091D01*
X59949623Y-120913497D01*
X59961446Y-120918770D01*
X60143936Y-120964392D01*
X60220923Y-121002886D01*
X60251330Y-121033293D01*
X60285588Y-121101809D01*
X60285588Y-121161637D01*
X60251329Y-121230153D01*
X60220922Y-121260561D01*
X60152407Y-121294819D01*
X59944187Y-121294819D01*
X59812877Y-121251049D01*
X59761593Y-121252450D01*
X59723208Y-121286487D01*
X59715683Y-121337236D01*
X59742538Y-121380948D01*
X59765443Y-121393351D01*
X59908299Y-121440970D01*
X59909934Y-121440925D01*
X59932017Y-121444819D01*
X60170112Y-121444819D01*
X60174325Y-121443285D01*
X60178686Y-121444327D01*
X60203653Y-121436901D01*
X60298891Y-121389282D01*
X60300015Y-121388094D01*
X60318384Y-121375232D01*
X60366002Y-121327613D01*
X60366692Y-121326131D01*
X60380051Y-121308121D01*
X60427670Y-121212883D01*
X60428182Y-121208429D01*
X60431065Y-121204994D01*
X60435588Y-121179342D01*
X60714160Y-121179342D01*
X60715693Y-121183555D01*
X60714652Y-121187916D01*
X60722078Y-121212883D01*
X60769697Y-121308121D01*
X60770885Y-121309246D01*
X60783745Y-121327612D01*
X60831364Y-121375232D01*
X60832845Y-121375922D01*
X60850857Y-121389282D01*
X60946095Y-121436901D01*
X60950548Y-121437413D01*
X60953984Y-121440296D01*
X60979636Y-121444819D01*
X61170112Y-121444819D01*
X61174325Y-121443285D01*
X61178686Y-121444327D01*
X61203653Y-121436901D01*
X61298891Y-121389282D01*
X61300015Y-121388094D01*
X61318384Y-121375232D01*
X61366002Y-121327613D01*
X61366692Y-121326131D01*
X61380051Y-121308121D01*
X61427670Y-121212883D01*
X61428182Y-121208429D01*
X61431065Y-121204994D01*
X61435588Y-121179342D01*
X61435588Y-120369819D01*
X61418041Y-120321610D01*
X61373612Y-120295958D01*
X61323088Y-120304867D01*
X61290111Y-120344167D01*
X61285588Y-120369819D01*
X61285588Y-121161637D01*
X61251329Y-121230153D01*
X61220922Y-121260561D01*
X61152407Y-121294819D01*
X60997341Y-121294819D01*
X60928825Y-121260561D01*
X60898418Y-121230153D01*
X60864160Y-121161637D01*
X60864160Y-120369819D01*
X60846613Y-120321610D01*
X60802184Y-120295958D01*
X60751660Y-120304867D01*
X60718683Y-120344167D01*
X60714160Y-120369819D01*
X60714160Y-121179342D01*
X60435588Y-121179342D01*
X60435588Y-121084104D01*
X60434054Y-121079890D01*
X60435096Y-121075529D01*
X60427670Y-121050563D01*
X60380051Y-120955325D01*
X60378861Y-120954199D01*
X60366002Y-120935833D01*
X60318383Y-120888214D01*
X60316901Y-120887523D01*
X60298891Y-120874165D01*
X60203653Y-120826546D01*
X60200124Y-120826139D01*
X60188302Y-120820867D01*
X60005812Y-120775244D01*
X59928825Y-120736751D01*
X59898418Y-120706344D01*
X59864160Y-120637828D01*
X59864160Y-120578000D01*
X59898418Y-120509484D01*
X59928825Y-120479077D01*
X59997341Y-120444819D01*
X60205561Y-120444819D01*
X60336870Y-120488589D01*
X60388154Y-120487188D01*
X60426540Y-120453150D01*
X60434065Y-120402402D01*
X60407210Y-120358689D01*
X60384305Y-120346287D01*
X60241448Y-120298668D01*
X60239813Y-120298712D01*
X60217731Y-120294819D01*
X59979636Y-120294819D01*
X59975422Y-120296352D01*
X59971061Y-120295311D01*
X59946095Y-120302737D01*
X59850857Y-120350356D01*
X59849731Y-120351545D01*
X59831365Y-120364405D01*
X59783746Y-120412024D01*
X59783055Y-120413505D01*
X59769697Y-120431516D01*
X59722078Y-120526754D01*
X59721565Y-120531207D01*
X59718683Y-120534643D01*
X59714160Y-120560295D01*
X59714160Y-120655533D01*
X58902182Y-120655533D01*
X58907543Y-120634090D01*
X58946037Y-120557103D01*
X59020150Y-120482990D01*
X59134663Y-120444819D01*
X59247645Y-120444819D01*
X59327047Y-120484520D01*
X59378013Y-120490385D01*
X59420826Y-120462119D01*
X59435453Y-120412944D01*
X59415050Y-120365873D01*
X59394129Y-120350356D01*
X59298891Y-120302737D01*
X59294437Y-120302224D01*
X59291002Y-120299342D01*
X59265350Y-120294819D01*
X59122493Y-120294819D01*
X59120955Y-120295378D01*
X59098775Y-120298668D01*
X58955919Y-120346287D01*
X58952408Y-120349073D01*
X58947940Y-120349464D01*
X58926603Y-120364405D01*
X58831365Y-120459643D01*
X58830674Y-120461124D01*
X58817316Y-120479135D01*
X58769697Y-120574373D01*
X58769290Y-120577901D01*
X58764018Y-120589724D01*
X58716399Y-120780200D01*
X58716759Y-120783648D01*
X58714160Y-120798390D01*
X58714160Y-120941247D01*
X58571303Y-120941247D01*
X58571303Y-120151962D01*
X61578445Y-120151962D01*
X61578445Y-121587676D01*
G37*
D12*
%TO.C,J1*%
X90750000Y-129962500D02*
X90750000Y-131542500D01*
X90750000Y-129962500D02*
X93280000Y-129962500D01*
X90750000Y-134962500D02*
X90750000Y-133982500D01*
X116250000Y-129962500D02*
X113720000Y-129962500D01*
X116250000Y-131542500D02*
X116250000Y-129962500D01*
X116250000Y-133982500D02*
X116250000Y-134962500D01*
X116250000Y-134962500D02*
X90750000Y-134962500D01*
D13*
X93850000Y-128412500D02*
G75*
G03*
X93850000Y-128412500I-100000J0D01*
G01*
D14*
%TO.C,J5*%
X120721000Y-54366000D02*
X122245000Y-54366000D01*
X120915000Y-54560000D02*
X120915000Y-120720000D01*
X120915000Y-54560000D02*
X126115000Y-54560000D01*
X120915000Y-120720000D02*
X126115000Y-120720000D01*
X126115000Y-54560000D02*
X126115000Y-118120000D01*
%TO.C,G\u002A\u002A\u002A*%
G36*
X79632141Y-48976797D02*
G01*
X80514555Y-48976823D01*
X81348620Y-48976872D01*
X82135716Y-48976949D01*
X82877222Y-48977060D01*
X83574517Y-48977209D01*
X84228980Y-48977402D01*
X84841991Y-48977643D01*
X85414928Y-48977937D01*
X85949171Y-48978290D01*
X86446099Y-48978706D01*
X86907091Y-48979191D01*
X87333526Y-48979749D01*
X87726783Y-48980386D01*
X88088242Y-48981106D01*
X88419281Y-48981915D01*
X88721280Y-48982817D01*
X88995618Y-48983818D01*
X89243673Y-48984923D01*
X89466826Y-48986136D01*
X89666456Y-48987463D01*
X89843941Y-48988909D01*
X90000660Y-48990478D01*
X90137993Y-48992176D01*
X90257319Y-48994008D01*
X90360017Y-48995978D01*
X90447467Y-48998092D01*
X90521046Y-49000355D01*
X90582136Y-49002772D01*
X90632113Y-49005348D01*
X90672359Y-49008087D01*
X90704252Y-49010996D01*
X90729170Y-49014078D01*
X90748494Y-49017339D01*
X90763242Y-49020690D01*
X90987256Y-49105006D01*
X91193852Y-49234250D01*
X91376607Y-49403438D01*
X91529100Y-49607587D01*
X91537512Y-49621449D01*
X91557809Y-49654302D01*
X91576418Y-49683697D01*
X91593414Y-49711869D01*
X91608868Y-49741050D01*
X91622855Y-49773476D01*
X91635446Y-49811378D01*
X91646716Y-49856993D01*
X91656736Y-49912552D01*
X91665580Y-49980291D01*
X91673321Y-50062442D01*
X91680031Y-50161240D01*
X91685784Y-50278918D01*
X91690653Y-50417711D01*
X91694710Y-50579851D01*
X91698028Y-50767574D01*
X91700682Y-50983112D01*
X91702742Y-51228699D01*
X91704283Y-51506569D01*
X91705377Y-51818957D01*
X91706098Y-52168095D01*
X91706518Y-52556218D01*
X91706709Y-52985559D01*
X91706747Y-53458352D01*
X91706702Y-53976832D01*
X91706648Y-54543231D01*
X91706640Y-54800000D01*
X91706676Y-55387523D01*
X91706733Y-55926172D01*
X91706740Y-56418183D01*
X91706623Y-56865789D01*
X91706309Y-57271223D01*
X91705726Y-57636720D01*
X91704800Y-57964512D01*
X91703459Y-58256835D01*
X91701629Y-58515922D01*
X91699237Y-58744006D01*
X91696212Y-58943322D01*
X91692478Y-59116103D01*
X91687965Y-59264583D01*
X91682598Y-59390996D01*
X91676305Y-59497575D01*
X91669013Y-59586555D01*
X91660649Y-59660169D01*
X91651139Y-59720652D01*
X91640412Y-59770236D01*
X91628393Y-59811155D01*
X91615011Y-59845644D01*
X91600191Y-59875936D01*
X91583862Y-59904265D01*
X91565950Y-59932865D01*
X91546382Y-59963970D01*
X91537512Y-59978552D01*
X91387133Y-60184729D01*
X91206088Y-60356257D01*
X91000800Y-60488154D01*
X90777689Y-60575436D01*
X90763242Y-60579311D01*
X90748039Y-60582751D01*
X90728583Y-60586008D01*
X90703496Y-60589085D01*
X90671398Y-60591989D01*
X90630911Y-60594724D01*
X90580654Y-60597295D01*
X90519249Y-60599708D01*
X90445316Y-60601967D01*
X90357477Y-60604077D01*
X90254353Y-60606044D01*
X90134563Y-60607872D01*
X89996730Y-60609566D01*
X89839474Y-60611132D01*
X89661415Y-60612575D01*
X89461175Y-60613899D01*
X89237375Y-60615109D01*
X88988634Y-60616211D01*
X88713575Y-60617209D01*
X88410818Y-60618109D01*
X88078984Y-60618915D01*
X87716693Y-60619633D01*
X87322568Y-60620268D01*
X86895227Y-60620824D01*
X86433293Y-60621307D01*
X85935386Y-60621721D01*
X85400127Y-60622073D01*
X84826137Y-60622365D01*
X84212036Y-60622605D01*
X83556446Y-60622796D01*
X82857988Y-60622944D01*
X82115281Y-60623054D01*
X81326948Y-60623131D01*
X80491609Y-60623179D01*
X79607884Y-60623204D01*
X78700000Y-60623211D01*
X77767859Y-60623204D01*
X76885446Y-60623178D01*
X76051381Y-60623129D01*
X75264285Y-60623052D01*
X74522779Y-60622941D01*
X73825484Y-60622792D01*
X73171020Y-60622599D01*
X72558010Y-60622358D01*
X71985072Y-60622064D01*
X71450829Y-60621711D01*
X70953902Y-60621295D01*
X70492910Y-60620810D01*
X70066475Y-60620252D01*
X69673218Y-60619615D01*
X69311759Y-60618895D01*
X68980720Y-60618086D01*
X68678721Y-60617184D01*
X68404383Y-60616183D01*
X68156327Y-60615078D01*
X67933174Y-60613865D01*
X67733545Y-60612538D01*
X67556060Y-60611092D01*
X67399341Y-60609523D01*
X67262008Y-60607825D01*
X67142681Y-60605993D01*
X67039983Y-60604023D01*
X66952534Y-60601908D01*
X66878954Y-60599645D01*
X66817865Y-60597229D01*
X66767887Y-60594653D01*
X66727642Y-60591913D01*
X66695749Y-60589005D01*
X66670830Y-60585923D01*
X66651506Y-60582662D01*
X66636759Y-60579311D01*
X66412744Y-60494994D01*
X66206149Y-60365751D01*
X66023394Y-60196563D01*
X65870901Y-59992414D01*
X65862488Y-59978552D01*
X65842192Y-59945699D01*
X65823582Y-59916304D01*
X65806587Y-59888132D01*
X65791132Y-59858951D01*
X65777146Y-59826525D01*
X65764554Y-59788622D01*
X65753285Y-59743008D01*
X65743265Y-59687449D01*
X65734421Y-59619710D01*
X65726680Y-59537559D01*
X65719970Y-59438761D01*
X65714217Y-59321083D01*
X65709348Y-59182290D01*
X65705291Y-59020150D01*
X65701972Y-58832427D01*
X65699319Y-58616889D01*
X65697259Y-58371302D01*
X65695718Y-58093432D01*
X65694623Y-57781044D01*
X65693903Y-57431906D01*
X65693483Y-57043783D01*
X65693324Y-56686967D01*
X66737063Y-56686967D01*
X66743301Y-56881330D01*
X66757304Y-57052945D01*
X66765303Y-57112576D01*
X66846260Y-57481394D01*
X66969851Y-57831650D01*
X67132729Y-58160076D01*
X67331545Y-58463405D01*
X67562950Y-58738368D01*
X67823597Y-58981696D01*
X68110136Y-59190122D01*
X68419219Y-59360378D01*
X68747498Y-59489196D01*
X69091624Y-59573306D01*
X69315849Y-59601936D01*
X69378106Y-59604947D01*
X69487367Y-59607762D01*
X69639531Y-59610354D01*
X69830497Y-59612694D01*
X70056162Y-59614755D01*
X70312424Y-59616508D01*
X70595183Y-59617925D01*
X70900336Y-59618978D01*
X71223781Y-59619639D01*
X71561418Y-59619880D01*
X71902817Y-59619680D01*
X74240946Y-59616801D01*
X74247600Y-58486687D01*
X74254253Y-57356572D01*
X71807258Y-57349564D01*
X69360262Y-57342556D01*
X69239448Y-57283054D01*
X69122908Y-57207406D01*
X69013270Y-57104145D01*
X68923588Y-56987940D01*
X68866914Y-56873460D01*
X68862714Y-56859693D01*
X68847108Y-56771330D01*
X68839430Y-56659077D01*
X68840497Y-56567818D01*
X68852480Y-56451605D01*
X68877547Y-56361849D01*
X68922689Y-56274261D01*
X68927050Y-56267149D01*
X69021478Y-56145907D01*
X69138545Y-56042725D01*
X69262768Y-55970176D01*
X69316189Y-55951065D01*
X69360964Y-55945965D01*
X69456330Y-55941394D01*
X69601775Y-55937357D01*
X69796786Y-55933859D01*
X70040851Y-55930906D01*
X70333456Y-55928504D01*
X70674090Y-55926657D01*
X71062238Y-55925372D01*
X71497390Y-55924653D01*
X71832546Y-55924489D01*
X74253723Y-55924347D01*
X74253723Y-54787840D01*
X74253723Y-53651334D01*
X71794216Y-53644329D01*
X69334709Y-53637324D01*
X69226786Y-53579656D01*
X69068443Y-53472709D01*
X68953614Y-53342388D01*
X68879613Y-53184333D01*
X68843757Y-52994184D01*
X68840992Y-52953225D01*
X68839372Y-52895964D01*
X75149359Y-52895964D01*
X75157616Y-53152177D01*
X75181603Y-53400857D01*
X75220563Y-53624026D01*
X75235834Y-53686238D01*
X75362692Y-54071636D01*
X75528798Y-54426706D01*
X75732563Y-54749607D01*
X75972396Y-55038499D01*
X76246704Y-55291542D01*
X76553897Y-55506894D01*
X76892384Y-55682714D01*
X77000705Y-55727836D01*
X77100096Y-55766348D01*
X77190364Y-55798938D01*
X77276828Y-55826161D01*
X77364806Y-55848570D01*
X77459619Y-55866722D01*
X77566583Y-55881171D01*
X77691020Y-55892472D01*
X77838246Y-55901179D01*
X78013581Y-55907848D01*
X78222344Y-55913034D01*
X78469853Y-55917291D01*
X78761428Y-55921174D01*
X78866097Y-55922443D01*
X80092656Y-55937123D01*
X80207646Y-56005115D01*
X80366066Y-56124163D01*
X80479585Y-56267592D01*
X80548436Y-56435804D01*
X80572850Y-56629205D01*
X80572908Y-56639839D01*
X80549030Y-56829829D01*
X80479720Y-56999729D01*
X80368469Y-57144075D01*
X80218767Y-57257400D01*
X80158824Y-57288313D01*
X80137888Y-57297667D01*
X80115901Y-57305890D01*
X80089577Y-57313066D01*
X80055632Y-57319279D01*
X80010779Y-57324613D01*
X79951733Y-57329153D01*
X79875208Y-57332981D01*
X79777919Y-57336183D01*
X79656581Y-57338842D01*
X79507907Y-57341042D01*
X79328612Y-57342866D01*
X79115411Y-57344400D01*
X78865019Y-57345727D01*
X78574149Y-57346931D01*
X78239516Y-57348096D01*
X77857834Y-57349305D01*
X77760916Y-57349605D01*
X75480282Y-57356655D01*
X75480282Y-58476081D01*
X75480659Y-58710482D01*
X75481737Y-58928993D01*
X75483438Y-59126341D01*
X75485682Y-59297251D01*
X75488390Y-59436450D01*
X75491483Y-59538662D01*
X75494882Y-59598615D01*
X75497318Y-59612542D01*
X75525710Y-59615918D01*
X75600752Y-59618886D01*
X75717991Y-59621454D01*
X75872972Y-59623629D01*
X76061241Y-59625421D01*
X76278343Y-59626837D01*
X76519825Y-59627884D01*
X76781231Y-59628571D01*
X77058107Y-59628905D01*
X77346000Y-59628894D01*
X77640455Y-59628546D01*
X77937017Y-59627870D01*
X78231233Y-59626872D01*
X78518647Y-59625561D01*
X78794807Y-59623944D01*
X79055256Y-59622030D01*
X79295542Y-59619826D01*
X79511209Y-59617341D01*
X79697804Y-59614581D01*
X79850872Y-59611555D01*
X79965958Y-59608271D01*
X80038610Y-59604737D01*
X80041550Y-59604515D01*
X80405465Y-59551939D01*
X80750166Y-59454601D01*
X81073533Y-59315901D01*
X81373447Y-59139241D01*
X81647787Y-58928021D01*
X81894434Y-58685643D01*
X82111269Y-58415508D01*
X82296171Y-58121015D01*
X82447021Y-57805566D01*
X82561699Y-57472562D01*
X82638085Y-57125404D01*
X82674060Y-56767493D01*
X82667503Y-56402229D01*
X82616296Y-56033013D01*
X82518318Y-55663247D01*
X82511258Y-55642158D01*
X82363261Y-55279911D01*
X82175576Y-54946266D01*
X81951054Y-54643953D01*
X81692543Y-54375704D01*
X81402891Y-54144250D01*
X81084947Y-53952320D01*
X80741560Y-53802646D01*
X80519545Y-53732917D01*
X80462335Y-53717660D01*
X80410095Y-53704863D01*
X80357770Y-53694253D01*
X80300309Y-53685555D01*
X80232659Y-53678497D01*
X80149768Y-53672802D01*
X80046581Y-53668200D01*
X79918048Y-53664414D01*
X79759115Y-53661172D01*
X79564729Y-53658200D01*
X79329838Y-53655223D01*
X79049389Y-53651969D01*
X79019417Y-53651627D01*
X78723600Y-53648267D01*
X78474258Y-53645122D01*
X78266763Y-53641606D01*
X78096489Y-53637135D01*
X77958810Y-53631124D01*
X77849100Y-53622988D01*
X77762733Y-53612142D01*
X77695081Y-53598000D01*
X77641519Y-53579979D01*
X77597420Y-53557493D01*
X77558158Y-53529958D01*
X77519106Y-53496787D01*
X77475639Y-53457397D01*
X77474413Y-53456289D01*
X77372741Y-53350823D01*
X77306781Y-53244216D01*
X77270327Y-53121592D01*
X77257174Y-52968076D01*
X77256798Y-52934608D01*
X77260288Y-52804894D01*
X77273182Y-52710044D01*
X77297942Y-52634292D01*
X77306497Y-52616039D01*
X77392788Y-52486226D01*
X77510455Y-52368539D01*
X77640265Y-52282210D01*
X77640385Y-52282151D01*
X77659236Y-52273482D01*
X77680790Y-52265856D01*
X77708307Y-52259193D01*
X77745047Y-52253417D01*
X77794269Y-52248448D01*
X77859233Y-52244209D01*
X77943200Y-52240621D01*
X78049430Y-52237607D01*
X78181182Y-52235089D01*
X78341716Y-52232988D01*
X78534293Y-52231226D01*
X78762172Y-52229725D01*
X79028613Y-52228407D01*
X79336877Y-52227195D01*
X79690222Y-52226009D01*
X80027597Y-52224966D01*
X80440466Y-52223567D01*
X80804759Y-52221995D01*
X81123006Y-52220208D01*
X81397736Y-52218165D01*
X81631480Y-52215823D01*
X81826767Y-52213140D01*
X81986129Y-52210073D01*
X82112094Y-52206582D01*
X82207193Y-52202624D01*
X82273957Y-52198157D01*
X82314914Y-52193138D01*
X82332595Y-52187526D01*
X82333393Y-52186636D01*
X82338160Y-52154140D01*
X82342257Y-52077073D01*
X82345687Y-51961969D01*
X82348450Y-51815359D01*
X82350552Y-51643775D01*
X82351993Y-51453751D01*
X82352776Y-51251817D01*
X82352904Y-51044507D01*
X82352380Y-50838352D01*
X82351207Y-50639885D01*
X82349386Y-50455638D01*
X82346921Y-50292143D01*
X82343813Y-50155932D01*
X82340066Y-50053538D01*
X82335683Y-49991493D01*
X82332514Y-49975927D01*
X82320261Y-49970216D01*
X82289423Y-49965238D01*
X82237298Y-49960963D01*
X82161181Y-49957364D01*
X82058370Y-49954413D01*
X81926161Y-49952080D01*
X81761852Y-49950337D01*
X81562738Y-49949156D01*
X81326117Y-49948508D01*
X81049285Y-49948366D01*
X80729539Y-49948700D01*
X80364175Y-49949482D01*
X79950491Y-49950683D01*
X79937282Y-49950726D01*
X77562878Y-49958350D01*
X77313034Y-50026975D01*
X76948401Y-50152642D01*
X76610197Y-50320752D01*
X76300739Y-50528689D01*
X76022345Y-50773834D01*
X75777332Y-51053571D01*
X75568018Y-51365281D01*
X75396720Y-51706347D01*
X75265754Y-52074152D01*
X75183063Y-52432851D01*
X75157589Y-52650196D01*
X75149359Y-52895964D01*
X68839372Y-52895964D01*
X68837894Y-52843737D01*
X68844233Y-52764516D01*
X68863538Y-52695064D01*
X68899129Y-52615302D01*
X68956667Y-52519848D01*
X69029024Y-52428592D01*
X69070935Y-52387257D01*
X69102344Y-52359836D01*
X69130768Y-52335565D01*
X69159355Y-52314251D01*
X69191252Y-52295704D01*
X69229604Y-52279731D01*
X69277558Y-52266140D01*
X69338262Y-52254740D01*
X69414861Y-52245340D01*
X69510502Y-52237747D01*
X69628331Y-52231769D01*
X69771496Y-52227216D01*
X69943143Y-52223895D01*
X70146418Y-52221615D01*
X70384468Y-52220183D01*
X70660440Y-52219409D01*
X70977480Y-52219100D01*
X71338734Y-52219066D01*
X71747350Y-52219113D01*
X71830709Y-52219115D01*
X74253723Y-52219115D01*
X74253723Y-51081992D01*
X74253723Y-49944870D01*
X83555131Y-49944870D01*
X83555203Y-52928220D01*
X83555463Y-53471818D01*
X83556217Y-53964579D01*
X83557467Y-54406771D01*
X83559216Y-54798662D01*
X83561466Y-55140519D01*
X83564219Y-55432611D01*
X83567478Y-55675204D01*
X83571245Y-55868567D01*
X83575522Y-56012966D01*
X83580312Y-56108671D01*
X83583274Y-56141550D01*
X83661147Y-56575753D01*
X83785799Y-56994676D01*
X83954725Y-57394772D01*
X84165416Y-57772495D01*
X84415367Y-58124299D01*
X84702072Y-58446636D01*
X85023022Y-58735962D01*
X85375713Y-58988729D01*
X85739940Y-59192774D01*
X86100840Y-59352907D01*
X86449293Y-59471691D01*
X86797493Y-59552550D01*
X87157632Y-59598910D01*
X87196479Y-59601904D01*
X87273126Y-59605727D01*
X87390652Y-59609291D01*
X87543735Y-59612576D01*
X87727049Y-59615564D01*
X87935270Y-59618233D01*
X88163074Y-59620565D01*
X88405137Y-59622540D01*
X88656134Y-59624138D01*
X88910741Y-59625339D01*
X89163635Y-59626125D01*
X89409490Y-59626474D01*
X89642983Y-59626369D01*
X89858789Y-59625788D01*
X90051583Y-59624712D01*
X90216043Y-59623122D01*
X90346843Y-59620998D01*
X90438659Y-59618320D01*
X90486166Y-59615069D01*
X90490768Y-59614067D01*
X90500529Y-59606022D01*
X90508601Y-59587129D01*
X90515141Y-59552982D01*
X90520306Y-59499173D01*
X90524253Y-59421297D01*
X90527137Y-59314946D01*
X90529116Y-59175714D01*
X90530345Y-58999195D01*
X90530983Y-58780982D01*
X90531185Y-58516668D01*
X90531187Y-58476945D01*
X90531187Y-57355332D01*
X88953270Y-57354441D01*
X88601289Y-57354115D01*
X88296246Y-57353342D01*
X88033972Y-57351787D01*
X87810299Y-57349116D01*
X87621057Y-57344997D01*
X87462078Y-57339096D01*
X87329194Y-57331078D01*
X87218235Y-57320610D01*
X87125032Y-57307359D01*
X87045418Y-57290990D01*
X86975224Y-57271171D01*
X86910280Y-57247567D01*
X86846417Y-57219846D01*
X86779469Y-57187672D01*
X86762100Y-57179063D01*
X86505091Y-57024380D01*
X86285445Y-56835098D01*
X86104449Y-56612767D01*
X85963392Y-56358932D01*
X85873467Y-56111242D01*
X85816600Y-55911570D01*
X85811136Y-52960161D01*
X85810416Y-52575653D01*
X85809709Y-52205205D01*
X85809021Y-51852045D01*
X85808358Y-51519403D01*
X85807728Y-51210508D01*
X85807138Y-50928591D01*
X85806594Y-50676879D01*
X85806103Y-50458603D01*
X85805674Y-50276992D01*
X85805311Y-50135275D01*
X85805022Y-50036682D01*
X85804815Y-49984442D01*
X85804747Y-49976811D01*
X85794219Y-49968844D01*
X85760690Y-49962226D01*
X85700495Y-49956851D01*
X85609966Y-49952616D01*
X85485436Y-49949418D01*
X85323238Y-49947151D01*
X85119705Y-49945712D01*
X84871171Y-49944996D01*
X84679477Y-49944870D01*
X83555131Y-49944870D01*
X74253723Y-49944870D01*
X71803951Y-49944870D01*
X71379170Y-49944901D01*
X71002120Y-49945090D01*
X70669429Y-49945580D01*
X70377721Y-49946515D01*
X70123622Y-49948037D01*
X69903758Y-49950290D01*
X69714754Y-49953416D01*
X69553236Y-49957560D01*
X69415830Y-49962864D01*
X69299161Y-49969471D01*
X69199855Y-49977525D01*
X69114537Y-49987169D01*
X69039833Y-49998545D01*
X68972369Y-50011798D01*
X68908771Y-50027070D01*
X68845663Y-50044505D01*
X68779672Y-50064245D01*
X68745803Y-50074636D01*
X68416524Y-50202179D01*
X68102948Y-50375816D01*
X67809800Y-50591726D01*
X67541807Y-50846089D01*
X67303696Y-51135086D01*
X67154210Y-51361132D01*
X66993645Y-51675237D01*
X66869428Y-52017408D01*
X66783840Y-52377614D01*
X66739160Y-52745824D01*
X66737669Y-53112010D01*
X66741972Y-53174555D01*
X66782105Y-53491614D01*
X66852327Y-53792989D01*
X66956176Y-54088569D01*
X67097189Y-54388244D01*
X67278905Y-54701905D01*
X67300734Y-54736436D01*
X67315078Y-54769472D01*
X67310339Y-54806579D01*
X67282299Y-54860644D01*
X67237995Y-54928086D01*
X67107199Y-55147871D01*
X66987339Y-55402375D01*
X66884673Y-55675423D01*
X66805458Y-55950842D01*
X66764992Y-56150537D01*
X66747902Y-56303257D01*
X66738595Y-56488172D01*
X66737063Y-56686967D01*
X65693324Y-56686967D01*
X65693292Y-56614442D01*
X65693255Y-56141649D01*
X65693300Y-55623169D01*
X65693354Y-55056770D01*
X65693361Y-54800000D01*
X65693326Y-54212478D01*
X65693269Y-53673828D01*
X65693262Y-53181818D01*
X65693378Y-52734212D01*
X65693691Y-52328778D01*
X65694275Y-51963281D01*
X65695200Y-51635489D01*
X65696542Y-51343166D01*
X65698372Y-51084079D01*
X65700763Y-50855995D01*
X65703789Y-50656679D01*
X65707522Y-50483898D01*
X65712036Y-50335418D01*
X65717403Y-50209005D01*
X65723696Y-50102425D01*
X65730988Y-50013446D01*
X65739352Y-49939831D01*
X65748862Y-49879349D01*
X65759589Y-49829765D01*
X65771608Y-49788846D01*
X65784990Y-49754357D01*
X65799809Y-49724065D01*
X65816139Y-49695736D01*
X65834051Y-49667136D01*
X65853619Y-49636031D01*
X65862488Y-49621449D01*
X66012868Y-49415272D01*
X66193913Y-49243744D01*
X66399201Y-49111847D01*
X66622311Y-49024565D01*
X66636759Y-49020690D01*
X66651962Y-49017250D01*
X66671417Y-49013993D01*
X66696504Y-49010916D01*
X66728602Y-49008012D01*
X66769090Y-49005277D01*
X66819347Y-49002706D01*
X66880752Y-49000293D01*
X66954684Y-48998034D01*
X67042523Y-48995924D01*
X67145648Y-48993957D01*
X67265437Y-48992129D01*
X67403271Y-48990434D01*
X67560527Y-48988869D01*
X67738586Y-48987426D01*
X67938826Y-48986102D01*
X68162626Y-48984892D01*
X68411366Y-48983790D01*
X68686425Y-48982792D01*
X68989183Y-48981892D01*
X69321017Y-48981086D01*
X69683307Y-48980368D01*
X70077433Y-48979733D01*
X70504774Y-48979177D01*
X70966708Y-48978694D01*
X71464615Y-48978280D01*
X71999874Y-48977928D01*
X72573864Y-48977636D01*
X73187965Y-48977396D01*
X73843555Y-48977205D01*
X74542013Y-48977057D01*
X75284719Y-48976947D01*
X76073053Y-48976870D01*
X76908392Y-48976822D01*
X77792117Y-48976797D01*
X78700000Y-48976790D01*
X79632141Y-48976797D01*
G37*
D12*
%TO.C,J2*%
X59630000Y-126565000D02*
X62050000Y-126565000D01*
X80150000Y-123825000D02*
X80550000Y-124525000D01*
X80550000Y-124525000D02*
X80950000Y-123825000D01*
X80950000Y-123825000D02*
X80150000Y-123825000D01*
X81550000Y-126565000D02*
X83370000Y-126565000D01*
X81550000Y-135255000D02*
X61400000Y-135255000D01*
D14*
%TO.C,J6*%
X125801000Y-54366000D02*
X127325000Y-54366000D01*
X125995000Y-54560000D02*
X125995000Y-120720000D01*
X125995000Y-54560000D02*
X131195000Y-54560000D01*
X125995000Y-120720000D02*
X131195000Y-120720000D01*
X131195000Y-54560000D02*
X131195000Y-118120000D01*
D12*
%TO.C,J8*%
X74700000Y-70450000D02*
X77790000Y-70450000D01*
X74700000Y-74550000D02*
X74700000Y-70450000D01*
X75700000Y-75550000D02*
X77790000Y-75550000D01*
X96210000Y-70450000D02*
X99300000Y-70450000D01*
X99300000Y-70450000D02*
X99300000Y-75550000D01*
X99300000Y-75550000D02*
X96210000Y-75550000D01*
D13*
X78400000Y-77000000D02*
G75*
G03*
X78400000Y-77000000I-100000J0D01*
G01*
D14*
%TO.C,J7*%
X74240000Y-90330000D02*
X74240000Y-87730000D01*
X75570000Y-90330000D02*
X74240000Y-90330000D01*
X75570000Y-90330000D02*
X99760000Y-90330000D01*
X99760000Y-90330000D02*
X99760000Y-85130000D01*
X74240000Y-87730000D02*
X74240000Y-85130000D01*
X74046000Y-86714000D02*
X74046000Y-84936000D01*
X74240000Y-85130000D02*
X99760000Y-85130000D01*
X74046000Y-84936000D02*
X75570000Y-84936000D01*
X66000000Y-92600000D02*
X108000000Y-92600000D01*
X108000000Y-92600000D02*
X108000000Y-91000000D01*
X108000000Y-91000000D02*
X66000000Y-91000000D01*
X66000000Y-91000000D02*
X66000000Y-92600000D01*
%TO.C,J4*%
X74240000Y-99250000D02*
X74240000Y-96650000D01*
X75570000Y-99250000D02*
X74240000Y-99250000D01*
X75570000Y-99250000D02*
X99760000Y-99250000D01*
X99760000Y-99250000D02*
X99760000Y-94050000D01*
X74240000Y-96650000D02*
X74240000Y-94050000D01*
X74046000Y-95634000D02*
X74046000Y-93856000D01*
X74240000Y-94050000D02*
X99760000Y-94050000D01*
X74046000Y-93856000D02*
X75570000Y-93856000D01*
X66000000Y-101520000D02*
X108000000Y-101520000D01*
X108000000Y-101520000D02*
X108000000Y-99920000D01*
X108000000Y-99920000D02*
X66000000Y-99920000D01*
X66000000Y-99920000D02*
X66000000Y-101520000D01*
%TO.C,J3*%
X45466000Y-53822600D02*
X46990000Y-53822600D01*
X45660000Y-54016600D02*
X45660000Y-120176600D01*
X45660000Y-54016600D02*
X50860000Y-54016600D01*
X45660000Y-120176600D02*
X50860000Y-120176600D01*
X50860000Y-54016600D02*
X50860000Y-117576600D01*
%TD*%
%LPC*%
%TO.C,J1*%
D15*
X92850000Y-133562500D02*
X90450000Y-133562500D01*
X90450000Y-131962500D01*
X91250000Y-131962500D01*
X91250000Y-131162500D01*
X92850000Y-131162500D01*
X92850000Y-133562500D01*
G36*
X92850000Y-133562500D02*
G01*
X90450000Y-133562500D01*
X90450000Y-131962500D01*
X91250000Y-131962500D01*
X91250000Y-131162500D01*
X92850000Y-131162500D01*
X92850000Y-133562500D01*
G37*
X115750000Y-131962500D02*
X116550000Y-131962500D01*
X116550000Y-133562500D01*
X114150000Y-133562500D01*
X114150000Y-131162500D01*
X115750000Y-131162500D01*
X115750000Y-131962500D01*
G36*
X115750000Y-131962500D02*
G01*
X116550000Y-131962500D01*
X116550000Y-133562500D01*
X114150000Y-133562500D01*
X114150000Y-131162500D01*
X115750000Y-131162500D01*
X115750000Y-131962500D01*
G37*
%TO.C,H1*%
D16*
X43380000Y-42000000D02*
G75*
G03*
X43380000Y-42000000I-1380000J0D01*
G01*
%TO.C,H9*%
X45515000Y-127010000D02*
G75*
G03*
X45515000Y-127010000I-1380000J0D01*
G01*
%TO.C,J2*%
D15*
X61106200Y-135331200D02*
X59853800Y-135331200D01*
X59853800Y-126978800D01*
X61106200Y-126978800D01*
X61106200Y-135331200D01*
G36*
X61106200Y-135331200D02*
G01*
X59853800Y-135331200D01*
X59853800Y-126978800D01*
X61106200Y-126978800D01*
X61106200Y-135331200D01*
G37*
X63746200Y-127551200D02*
X62353800Y-127551200D01*
X62353800Y-124898800D01*
X63746200Y-124898800D01*
X63746200Y-127551200D01*
G36*
X63746200Y-127551200D02*
G01*
X62353800Y-127551200D01*
X62353800Y-124898800D01*
X63746200Y-124898800D01*
X63746200Y-127551200D01*
G37*
X66246200Y-127551200D02*
X64853800Y-127551200D01*
X64853800Y-124898800D01*
X66246200Y-124898800D01*
X66246200Y-127551200D01*
G36*
X66246200Y-127551200D02*
G01*
X64853800Y-127551200D01*
X64853800Y-124898800D01*
X66246200Y-124898800D01*
X66246200Y-127551200D01*
G37*
X68746200Y-127551200D02*
X67353800Y-127551200D01*
X67353800Y-124898800D01*
X68746200Y-124898800D01*
X68746200Y-127551200D01*
G36*
X68746200Y-127551200D02*
G01*
X67353800Y-127551200D01*
X67353800Y-124898800D01*
X68746200Y-124898800D01*
X68746200Y-127551200D01*
G37*
X71246200Y-127551200D02*
X69853800Y-127551200D01*
X69853800Y-124898800D01*
X71246200Y-124898800D01*
X71246200Y-127551200D01*
G36*
X71246200Y-127551200D02*
G01*
X69853800Y-127551200D01*
X69853800Y-124898800D01*
X71246200Y-124898800D01*
X71246200Y-127551200D01*
G37*
X73746200Y-127551200D02*
X72353800Y-127551200D01*
X72353800Y-124898800D01*
X73746200Y-124898800D01*
X73746200Y-127551200D01*
G36*
X73746200Y-127551200D02*
G01*
X72353800Y-127551200D01*
X72353800Y-124898800D01*
X73746200Y-124898800D01*
X73746200Y-127551200D01*
G37*
X76246200Y-127551200D02*
X74853800Y-127551200D01*
X74853800Y-124898800D01*
X76246200Y-124898800D01*
X76246200Y-127551200D01*
G36*
X76246200Y-127551200D02*
G01*
X74853800Y-127551200D01*
X74853800Y-124898800D01*
X76246200Y-124898800D01*
X76246200Y-127551200D01*
G37*
X78746200Y-127551200D02*
X77353800Y-127551200D01*
X77353800Y-124898800D01*
X78746200Y-124898800D01*
X78746200Y-127551200D01*
G36*
X78746200Y-127551200D02*
G01*
X77353800Y-127551200D01*
X77353800Y-124898800D01*
X78746200Y-124898800D01*
X78746200Y-127551200D01*
G37*
X81246200Y-127551200D02*
X79853800Y-127551200D01*
X79853800Y-124898800D01*
X81246200Y-124898800D01*
X81246200Y-127551200D01*
G36*
X81246200Y-127551200D02*
G01*
X79853800Y-127551200D01*
X79853800Y-124898800D01*
X81246200Y-124898800D01*
X81246200Y-127551200D01*
G37*
X83146200Y-135331200D02*
X81893800Y-135331200D01*
X81893800Y-126978800D01*
X83146200Y-126978800D01*
X83146200Y-135331200D01*
G36*
X83146200Y-135331200D02*
G01*
X81893800Y-135331200D01*
X81893800Y-126978800D01*
X83146200Y-126978800D01*
X83146200Y-135331200D01*
G37*
%TO.C,H3*%
D16*
X131245000Y-50810000D02*
G75*
G03*
X131245000Y-50810000I-1380000J0D01*
G01*
%TO.C,H7*%
X133380000Y-42000000D02*
G75*
G03*
X133380000Y-42000000I-1380000J0D01*
G01*
%TO.C,H4*%
X43380000Y-132000000D02*
G75*
G03*
X43380000Y-132000000I-1380000J0D01*
G01*
%TO.C,H11*%
D17*
X105997203Y-105000000D02*
G75*
G03*
X105997203Y-105000000I-997203J0D01*
G01*
%TO.C,G\u002A\u002A\u002A*%
G36*
X71277586Y-40991222D02*
G01*
X71273424Y-41118334D01*
X71255667Y-41182525D01*
X71216405Y-41204093D01*
X71194171Y-41205336D01*
X71171907Y-41207540D01*
X71154003Y-41219616D01*
X71139986Y-41249756D01*
X71129378Y-41306157D01*
X71121707Y-41397011D01*
X71116496Y-41530514D01*
X71113270Y-41714860D01*
X71111555Y-41958244D01*
X71110875Y-42268859D01*
X71110755Y-42644253D01*
X71109729Y-42987551D01*
X71106804Y-43300026D01*
X71102215Y-43572559D01*
X71096193Y-43796031D01*
X71088973Y-43961322D01*
X71080786Y-44059314D01*
X71073998Y-44083169D01*
X71029186Y-44052576D01*
X70957613Y-43975042D01*
X70919452Y-43926765D01*
X70842133Y-43832146D01*
X70724138Y-43697254D01*
X70582885Y-43541679D01*
X70465176Y-43415845D01*
X70202579Y-43130489D01*
X69998436Y-42886168D01*
X69846382Y-42671419D01*
X69740050Y-42474778D01*
X69673073Y-42284779D01*
X69639085Y-42089958D01*
X69631371Y-41914368D01*
X69631744Y-41909528D01*
X70031116Y-41909528D01*
X70061056Y-42087558D01*
X70094100Y-42194437D01*
X70150270Y-42325629D01*
X70234299Y-42481538D01*
X70334707Y-42645161D01*
X70440015Y-42799493D01*
X70538746Y-42927533D01*
X70619420Y-43012275D01*
X70663211Y-43037465D01*
X70672089Y-42998668D01*
X70679005Y-42888390D01*
X70683683Y-42718546D01*
X70685849Y-42501053D01*
X70685227Y-42247827D01*
X70684064Y-42133333D01*
X70672824Y-41226190D01*
X70548994Y-41235293D01*
X70374390Y-41289008D01*
X70222678Y-41421502D01*
X70120197Y-41581558D01*
X70050369Y-41751669D01*
X70031116Y-41909528D01*
X69631744Y-41909528D01*
X69651487Y-41653624D01*
X69718314Y-41441025D01*
X69843530Y-41249012D01*
X69970686Y-41113530D01*
X70124975Y-40985400D01*
X70290660Y-40896269D01*
X70488318Y-40838913D01*
X70738528Y-40806111D01*
X70870936Y-40797578D01*
X71277586Y-40777107D01*
X71277586Y-40991222D01*
G37*
G36*
X67969362Y-40788892D02*
G01*
X68312156Y-40790699D01*
X68619818Y-40793543D01*
X68883424Y-40797285D01*
X69094054Y-40801788D01*
X69242786Y-40806915D01*
X69320697Y-40812528D01*
X69330109Y-40814948D01*
X69322029Y-40859781D01*
X69271961Y-40944841D01*
X69228321Y-41003852D01*
X69062780Y-41276210D01*
X68955267Y-41591388D01*
X68909224Y-41929128D01*
X68928091Y-42269174D01*
X68977053Y-42482688D01*
X69043057Y-42665839D01*
X69130288Y-42844673D01*
X69247095Y-43031388D01*
X69401828Y-43238180D01*
X69602833Y-43477247D01*
X69832854Y-43732969D01*
X70109708Y-44042558D01*
X70329985Y-44309977D01*
X70500709Y-44547027D01*
X70628903Y-44765511D01*
X70721592Y-44977230D01*
X70785799Y-45193986D01*
X70824437Y-45399061D01*
X70843409Y-45797553D01*
X70782779Y-46182969D01*
X70646056Y-46549322D01*
X70436752Y-46890626D01*
X70158377Y-47200894D01*
X69814442Y-47474141D01*
X69498506Y-47659986D01*
X69246320Y-47781496D01*
X69009238Y-47881510D01*
X68802780Y-47954348D01*
X68642462Y-47994332D01*
X68569441Y-47999965D01*
X68492326Y-47987141D01*
X68370527Y-47958795D01*
X68302380Y-47940824D01*
X68181194Y-47904167D01*
X68096580Y-47872364D01*
X68075769Y-47860443D01*
X68076219Y-47815524D01*
X68154635Y-47763232D01*
X68285336Y-47713452D01*
X68440444Y-47635283D01*
X68613746Y-47502824D01*
X68784774Y-47335703D01*
X68933063Y-47153548D01*
X69024354Y-47004720D01*
X69150330Y-46698615D01*
X69211195Y-46401119D01*
X69205183Y-46104813D01*
X69130529Y-45802276D01*
X68985467Y-45486092D01*
X68768230Y-45148840D01*
X68502659Y-44813054D01*
X68217046Y-44472771D01*
X67982908Y-44182903D01*
X67793837Y-43933797D01*
X67643431Y-43715801D01*
X67525284Y-43519262D01*
X67432990Y-43334525D01*
X67360146Y-43151939D01*
X67320789Y-43031801D01*
X67235724Y-42647357D01*
X67207999Y-42257030D01*
X67218426Y-42120508D01*
X67683797Y-42120508D01*
X67699308Y-42489016D01*
X67777688Y-42851350D01*
X67830740Y-43000121D01*
X67919689Y-43201386D01*
X68023123Y-43394179D01*
X68150698Y-43592765D01*
X68312073Y-43811410D01*
X68516906Y-44064377D01*
X68685830Y-44263148D01*
X68971268Y-44603310D01*
X69200716Y-44897320D01*
X69380608Y-45154356D01*
X69517377Y-45383596D01*
X69615506Y-45589486D01*
X69663114Y-45724862D01*
X69692243Y-45867492D01*
X69706909Y-46044374D01*
X69710942Y-46231116D01*
X69701147Y-46511366D01*
X69662435Y-46734572D01*
X69586746Y-46924454D01*
X69466019Y-47104734D01*
X69379731Y-47205926D01*
X69289741Y-47313067D01*
X69263085Y-47366106D01*
X69300306Y-47365846D01*
X69401943Y-47313094D01*
X69437396Y-47291850D01*
X69710698Y-47083187D01*
X69944311Y-46821789D01*
X70130788Y-46522935D01*
X70262684Y-46201902D01*
X70332555Y-45873965D01*
X70332955Y-45554404D01*
X70321396Y-45477982D01*
X70274610Y-45275111D01*
X70208066Y-45083822D01*
X70114677Y-44892838D01*
X69987356Y-44690883D01*
X69819018Y-44466681D01*
X69602576Y-44208956D01*
X69340031Y-43916338D01*
X69047810Y-43579995D01*
X68820479Y-43277766D01*
X68651733Y-43000298D01*
X68535264Y-42738242D01*
X68524307Y-42706814D01*
X68482121Y-42568742D01*
X68456831Y-42441626D01*
X68445814Y-42299275D01*
X68446449Y-42115499D01*
X68451231Y-41976929D01*
X68469119Y-41711498D01*
X68498072Y-41502583D01*
X68536254Y-41363363D01*
X68536945Y-41361740D01*
X68604036Y-41205336D01*
X68280171Y-41205336D01*
X67956306Y-41205336D01*
X67840844Y-41446911D01*
X67731020Y-41766312D01*
X67683797Y-42120508D01*
X67218426Y-42120508D01*
X67236776Y-41880233D01*
X67321213Y-41536382D01*
X67392832Y-41364780D01*
X67471718Y-41205336D01*
X67149753Y-41205336D01*
X66963409Y-41210355D01*
X66837436Y-41235300D01*
X66748946Y-41295002D01*
X66675051Y-41404290D01*
X66600285Y-41561376D01*
X66555317Y-41680343D01*
X66524616Y-41813808D01*
X66504673Y-41983750D01*
X66491979Y-42212146D01*
X66490652Y-42248029D01*
X66492496Y-42626741D01*
X66529640Y-42974447D01*
X66607167Y-43303230D01*
X66730161Y-43625175D01*
X66903705Y-43952365D01*
X67132882Y-44296885D01*
X67422777Y-44670817D01*
X67597381Y-44878771D01*
X67847029Y-45175981D01*
X68042918Y-45425295D01*
X68190860Y-45637207D01*
X68296670Y-45822207D01*
X68366162Y-45990789D01*
X68405148Y-46153444D01*
X68419443Y-46320666D01*
X68419845Y-46363101D01*
X68412325Y-46526515D01*
X68383518Y-46645990D01*
X68322298Y-46760382D01*
X68294164Y-46802090D01*
X68117757Y-46986296D01*
X67894046Y-47109215D01*
X67635704Y-47167534D01*
X67355404Y-47157938D01*
X67138553Y-47104235D01*
X66929198Y-46992813D01*
X66726074Y-46808787D01*
X66536886Y-46562958D01*
X66369337Y-46266125D01*
X66231132Y-45929089D01*
X66177832Y-45757464D01*
X66157734Y-45682186D01*
X66140813Y-45607021D01*
X66126733Y-45524127D01*
X66115159Y-45425660D01*
X66105759Y-45303780D01*
X66098196Y-45150644D01*
X66092136Y-44958410D01*
X66087246Y-44719236D01*
X66083191Y-44425280D01*
X66083107Y-44416831D01*
X66482722Y-44416831D01*
X66499620Y-44885607D01*
X66552087Y-45317490D01*
X66637493Y-45705882D01*
X66753211Y-46044182D01*
X66896611Y-46325791D01*
X67065062Y-46544108D01*
X67255938Y-46692535D01*
X67413978Y-46754439D01*
X67507345Y-46777116D01*
X67555738Y-46789642D01*
X67556512Y-46789901D01*
X67598639Y-46778332D01*
X67687308Y-46744343D01*
X67707272Y-46736095D01*
X67840049Y-46640799D01*
X67908053Y-46493826D01*
X67910706Y-46296761D01*
X67896167Y-46216593D01*
X67866682Y-46106844D01*
X67824426Y-45997461D01*
X67762617Y-45877486D01*
X67674470Y-45735964D01*
X67553202Y-45561936D01*
X67392030Y-45344445D01*
X67203072Y-45097062D01*
X67044549Y-44888323D01*
X66893734Y-44684420D01*
X66762496Y-44501792D01*
X66662705Y-44356873D01*
X66618155Y-44287067D01*
X66484011Y-44062315D01*
X66482722Y-44416831D01*
X66083107Y-44416831D01*
X66079636Y-44068699D01*
X66076246Y-43641652D01*
X66073970Y-43322003D01*
X66070587Y-42847782D01*
X66067392Y-42450222D01*
X66064081Y-42122571D01*
X66060348Y-41858074D01*
X66055888Y-41649980D01*
X66050395Y-41491535D01*
X66043565Y-41375986D01*
X66035091Y-41296581D01*
X66024669Y-41246567D01*
X66011994Y-41219190D01*
X65996759Y-41207697D01*
X65978660Y-41205337D01*
X65978271Y-41205336D01*
X65929577Y-41193599D01*
X65905301Y-41144864D01*
X65897565Y-41038848D01*
X65897290Y-40996798D01*
X65897290Y-40788259D01*
X67600356Y-40788259D01*
X67969362Y-40788892D01*
G37*
%TO.C,H12*%
X69997203Y-105000000D02*
G75*
G03*
X69997203Y-105000000I-997203J0D01*
G01*
%TO.C,H5*%
D16*
X131245000Y-124470000D02*
G75*
G03*
X131245000Y-124470000I-1380000J0D01*
G01*
%TO.C,H6*%
D17*
X69997203Y-69000000D02*
G75*
G03*
X69997203Y-69000000I-997203J0D01*
G01*
%TO.C,H2*%
D16*
X133380000Y-132000000D02*
G75*
G03*
X133380000Y-132000000I-1380000J0D01*
G01*
%TO.C,G\u002A\u002A\u002A*%
G36*
X85463879Y-53199749D02*
G01*
X85470783Y-56087851D01*
X85539159Y-56272047D01*
X85681845Y-56593144D01*
X85856826Y-56875222D01*
X86063630Y-57117833D01*
X86301783Y-57320527D01*
X86570814Y-57482856D01*
X86870248Y-57604372D01*
X86975402Y-57635371D01*
X87020291Y-57646981D01*
X87064919Y-57656881D01*
X87113702Y-57665243D01*
X87171056Y-57672238D01*
X87241398Y-57678039D01*
X87329145Y-57682816D01*
X87438712Y-57686741D01*
X87574516Y-57689987D01*
X87740973Y-57692724D01*
X87942501Y-57695124D01*
X88183515Y-57697360D01*
X88468431Y-57699602D01*
X88664910Y-57701040D01*
X90150402Y-57711760D01*
X90150402Y-58474555D01*
X90150402Y-59237349D01*
X88626657Y-59234826D01*
X88259274Y-59233810D01*
X87940496Y-59232028D01*
X87667925Y-59229435D01*
X87439169Y-59225980D01*
X87251831Y-59221618D01*
X87103517Y-59216300D01*
X86991831Y-59209979D01*
X86914377Y-59202606D01*
X86898896Y-59200409D01*
X86599244Y-59137558D01*
X86290019Y-59043644D01*
X85988508Y-58925039D01*
X85711995Y-58788115D01*
X85598472Y-58721058D01*
X85256404Y-58477417D01*
X84945365Y-58196823D01*
X84668815Y-57883821D01*
X84430209Y-57542957D01*
X84233005Y-57178776D01*
X84080662Y-56795822D01*
X84044193Y-56677851D01*
X84023005Y-56603374D01*
X84004039Y-56532509D01*
X83987172Y-56462143D01*
X83972281Y-56389164D01*
X83959243Y-56310459D01*
X83947936Y-56222917D01*
X83938235Y-56123425D01*
X83930018Y-56008871D01*
X83923163Y-55876143D01*
X83917546Y-55722129D01*
X83913044Y-55543716D01*
X83909534Y-55337792D01*
X83906893Y-55101245D01*
X83904999Y-54830964D01*
X83903727Y-54523834D01*
X83902956Y-54176745D01*
X83902563Y-53786584D01*
X83902423Y-53350240D01*
X83902410Y-53090059D01*
X83902410Y-50311647D01*
X84679692Y-50311647D01*
X85456975Y-50311647D01*
X85463879Y-53199749D01*
G37*
G36*
X73905623Y-51088294D02*
G01*
X73905623Y-51866216D01*
X71602725Y-51873118D01*
X69299828Y-51880020D01*
X69107595Y-51975036D01*
X68906928Y-52100032D01*
X68743658Y-52259116D01*
X68615069Y-52455055D01*
X68593171Y-52499124D01*
X68556063Y-52581414D01*
X68532354Y-52649852D01*
X68519078Y-52720489D01*
X68513266Y-52809375D01*
X68511949Y-52932561D01*
X68511948Y-52938353D01*
X68513162Y-53063345D01*
X68518738Y-53153209D01*
X68531576Y-53223800D01*
X68554579Y-53290974D01*
X68590645Y-53370585D01*
X68591268Y-53371888D01*
X68705639Y-53566373D01*
X68846513Y-53721706D01*
X69021828Y-53846238D01*
X69064012Y-53869390D01*
X69148932Y-53912241D01*
X69219890Y-53941369D01*
X69292013Y-53960462D01*
X69380429Y-53973209D01*
X69500265Y-53983300D01*
X69543316Y-53986274D01*
X69615694Y-53989447D01*
X69734479Y-53992506D01*
X69895072Y-53995407D01*
X70092877Y-53998108D01*
X70323295Y-54000567D01*
X70581730Y-54002741D01*
X70863583Y-54004588D01*
X71164257Y-54006065D01*
X71479155Y-54007129D01*
X71803679Y-54007739D01*
X71871838Y-54007805D01*
X73905623Y-54009438D01*
X73905623Y-54786851D01*
X73905623Y-55564264D01*
X71604067Y-55571038D01*
X69302510Y-55577811D01*
X69131052Y-55659035D01*
X68921612Y-55783383D01*
X68752783Y-55937504D01*
X68626130Y-56118773D01*
X68543220Y-56324567D01*
X68505618Y-56552261D01*
X68505945Y-56706534D01*
X68544459Y-56933868D01*
X68628683Y-57141288D01*
X68755784Y-57324540D01*
X68922929Y-57479366D01*
X69088925Y-57582662D01*
X69146701Y-57611680D01*
X69196740Y-57633341D01*
X69248086Y-57649068D01*
X69309784Y-57660283D01*
X69390879Y-57668412D01*
X69500416Y-57674876D01*
X69647439Y-57681099D01*
X69736044Y-57684498D01*
X69844047Y-57687634D01*
X69997501Y-57690664D01*
X70190854Y-57693538D01*
X70418553Y-57696208D01*
X70675046Y-57698625D01*
X70954779Y-57700739D01*
X71252201Y-57702501D01*
X71561759Y-57703862D01*
X71877900Y-57704773D01*
X72063103Y-57705078D01*
X73905623Y-57707229D01*
X73905623Y-58472007D01*
X73905623Y-59236785D01*
X71731577Y-59243442D01*
X71396959Y-59244264D01*
X71072671Y-59244667D01*
X70762948Y-59244670D01*
X70472026Y-59244290D01*
X70204143Y-59243545D01*
X69963533Y-59242452D01*
X69754434Y-59241030D01*
X69581082Y-59239295D01*
X69447713Y-59237265D01*
X69358563Y-59234959D01*
X69328012Y-59233446D01*
X69072330Y-59195313D01*
X68804478Y-59119757D01*
X68540471Y-59011863D01*
X68398406Y-58938160D01*
X68163241Y-58781142D01*
X67935722Y-58583034D01*
X67724586Y-58353739D01*
X67538571Y-58103160D01*
X67386413Y-57841199D01*
X67336706Y-57734800D01*
X67218010Y-57398502D01*
X67143456Y-57043739D01*
X67113664Y-56678639D01*
X67129252Y-56311325D01*
X67190840Y-55949925D01*
X67198437Y-55918858D01*
X67254663Y-55740157D01*
X67336459Y-55539963D01*
X67435630Y-55335013D01*
X67543982Y-55142043D01*
X67653321Y-54977789D01*
X67669906Y-54955878D01*
X67814750Y-54768412D01*
X67739707Y-54688574D01*
X67578081Y-54485941D01*
X67434007Y-54244565D01*
X67311821Y-53974964D01*
X67215859Y-53687656D01*
X67150458Y-53393159D01*
X67126180Y-53200418D01*
X67117340Y-52825589D01*
X67154205Y-52463442D01*
X67234559Y-52117363D01*
X67356187Y-51790735D01*
X67516872Y-51486941D01*
X67714398Y-51209365D01*
X67946549Y-50961391D01*
X68211109Y-50746403D01*
X68505863Y-50567784D01*
X68828594Y-50428918D01*
X68970984Y-50383540D01*
X69175000Y-50324920D01*
X71540312Y-50317646D01*
X73905623Y-50310373D01*
X73905623Y-51088294D01*
G37*
G36*
X81964257Y-51088368D02*
G01*
X81964257Y-51865090D01*
X79828464Y-51872555D01*
X77692671Y-51880020D01*
X77523762Y-51960051D01*
X77324399Y-52079991D01*
X77161277Y-52229964D01*
X77035513Y-52403804D01*
X76948224Y-52595345D01*
X76900528Y-52798420D01*
X76893542Y-53006865D01*
X76928385Y-53214512D01*
X77006173Y-53415196D01*
X77128025Y-53602751D01*
X77209583Y-53693455D01*
X77314490Y-53780298D01*
X77446369Y-53864015D01*
X77584030Y-53932462D01*
X77692671Y-53970307D01*
X77732917Y-53974522D01*
X77818881Y-53979214D01*
X77945279Y-53984229D01*
X78106828Y-53989413D01*
X78298245Y-53994610D01*
X78514248Y-53999667D01*
X78749553Y-54004430D01*
X78998878Y-54008743D01*
X79018775Y-54009057D01*
X79305433Y-54013639D01*
X79545977Y-54017823D01*
X79745296Y-54021862D01*
X79908277Y-54026013D01*
X80039806Y-54030530D01*
X80144771Y-54035668D01*
X80228059Y-54041681D01*
X80294557Y-54048826D01*
X80349152Y-54057357D01*
X80396732Y-54067530D01*
X80442183Y-54079598D01*
X80457923Y-54084150D01*
X80796206Y-54209058D01*
X81108512Y-54376553D01*
X81391672Y-54583747D01*
X81642518Y-54827750D01*
X81857881Y-55105675D01*
X82034590Y-55414633D01*
X82112236Y-55591865D01*
X82222398Y-55932338D01*
X82287250Y-56274812D01*
X82308847Y-56615617D01*
X82289245Y-56951085D01*
X82230502Y-57277546D01*
X82134673Y-57591330D01*
X82003813Y-57888768D01*
X81839980Y-58166191D01*
X81645229Y-58419929D01*
X81421617Y-58646313D01*
X81171199Y-58841672D01*
X80896032Y-59002339D01*
X80598171Y-59124643D01*
X80279673Y-59204915D01*
X80072554Y-59231982D01*
X80013421Y-59234775D01*
X79907694Y-59237270D01*
X79759780Y-59239445D01*
X79574088Y-59241277D01*
X79355025Y-59242741D01*
X79106999Y-59243816D01*
X78834420Y-59244479D01*
X78541695Y-59244706D01*
X78233233Y-59244474D01*
X77913441Y-59243761D01*
X77852059Y-59243570D01*
X75843775Y-59237040D01*
X75843775Y-58472135D01*
X75843775Y-57707229D01*
X77750050Y-57706117D01*
X78150747Y-57705749D01*
X78503840Y-57705039D01*
X78812731Y-57703831D01*
X79080819Y-57701970D01*
X79311506Y-57699303D01*
X79508191Y-57695675D01*
X79674275Y-57690930D01*
X79813159Y-57684914D01*
X79928243Y-57677472D01*
X80022927Y-57668450D01*
X80100612Y-57657693D01*
X80164699Y-57645046D01*
X80218588Y-57630354D01*
X80265679Y-57613463D01*
X80309373Y-57594219D01*
X80319803Y-57589197D01*
X80500142Y-57475204D01*
X80660203Y-57323379D01*
X80787617Y-57146279D01*
X80823606Y-57077713D01*
X80860272Y-56996887D01*
X80884053Y-56930147D01*
X80897703Y-56862248D01*
X80903971Y-56777950D01*
X80905610Y-56662009D01*
X80905616Y-56623394D01*
X80904483Y-56496436D01*
X80899588Y-56405482D01*
X80888194Y-56335539D01*
X80867560Y-56271618D01*
X80834949Y-56198727D01*
X80823839Y-56175778D01*
X80731753Y-56025518D01*
X80608666Y-55878386D01*
X80471840Y-55754011D01*
X80420829Y-55717453D01*
X80354454Y-55681952D01*
X80262475Y-55642637D01*
X80191868Y-55617175D01*
X80153003Y-55605398D01*
X80111193Y-55595524D01*
X80061567Y-55587333D01*
X79999254Y-55580608D01*
X79919381Y-55575130D01*
X79817077Y-55570682D01*
X79687471Y-55567043D01*
X79525690Y-55563997D01*
X79326865Y-55561325D01*
X79086122Y-55558808D01*
X78840261Y-55556588D01*
X78544745Y-55553895D01*
X78294855Y-55551016D01*
X78085218Y-55547423D01*
X77910457Y-55542593D01*
X77765197Y-55535999D01*
X77644063Y-55527118D01*
X77541679Y-55515423D01*
X77452669Y-55500389D01*
X77371658Y-55481492D01*
X77293271Y-55458205D01*
X77212132Y-55430005D01*
X77122865Y-55396365D01*
X77096528Y-55386226D01*
X76845457Y-55266840D01*
X76596181Y-55106127D01*
X76359586Y-54912949D01*
X76146559Y-54696165D01*
X75972599Y-54471504D01*
X75831073Y-54231472D01*
X75706536Y-53960481D01*
X75607729Y-53677904D01*
X75595845Y-53636354D01*
X75570436Y-53541172D01*
X75552097Y-53459265D01*
X75539732Y-53379195D01*
X75532247Y-53289526D01*
X75528545Y-53178823D01*
X75527531Y-53035647D01*
X75527772Y-52925602D01*
X75529437Y-52746637D01*
X75533464Y-52607987D01*
X75540743Y-52498982D01*
X75552167Y-52408956D01*
X75568627Y-52327240D01*
X75582177Y-52274516D01*
X75706492Y-51905032D01*
X75867119Y-51570360D01*
X76063495Y-51271223D01*
X76295055Y-51008346D01*
X76561234Y-50782450D01*
X76861469Y-50594260D01*
X76914745Y-50566629D01*
X76999198Y-50524458D01*
X77077498Y-50487219D01*
X77153247Y-50454606D01*
X77230047Y-50426311D01*
X77311499Y-50402027D01*
X77401206Y-50381449D01*
X77502770Y-50364268D01*
X77619793Y-50350177D01*
X77755877Y-50338870D01*
X77914623Y-50330040D01*
X78099635Y-50323380D01*
X78314513Y-50318583D01*
X78562860Y-50315341D01*
X78848277Y-50313348D01*
X79174368Y-50312297D01*
X79544733Y-50311881D01*
X79904970Y-50311797D01*
X81964257Y-50311647D01*
X81964257Y-51088368D01*
G37*
%TO.C,H10*%
D17*
X105997203Y-69000000D02*
G75*
G03*
X105997203Y-69000000I-997203J0D01*
G01*
%TO.C,H8*%
D16*
X45515000Y-47000000D02*
G75*
G03*
X45515000Y-47000000I-1380000J0D01*
G01*
%TD*%
D18*
%TO.C,J1*%
X93750000Y-129662500D03*
X94250000Y-129662500D03*
X94750000Y-129662500D03*
X95250000Y-129662500D03*
X95750000Y-129662500D03*
X96250000Y-129662500D03*
X96750000Y-129662500D03*
X97250000Y-129662500D03*
X97750000Y-129662500D03*
X98250000Y-129662500D03*
X98750000Y-129662500D03*
X99250000Y-129662500D03*
X99750000Y-129662500D03*
X100250000Y-129662500D03*
X100750000Y-129662500D03*
X101250000Y-129662500D03*
X101750000Y-129662500D03*
X102250000Y-129662500D03*
X102750000Y-129662500D03*
X103250000Y-129662500D03*
X103750000Y-129662500D03*
X104250000Y-129662500D03*
X104750000Y-129662500D03*
X105250000Y-129662500D03*
X105750000Y-129662500D03*
X106250000Y-129662500D03*
X106750000Y-129662500D03*
X107250000Y-129662500D03*
X107750000Y-129662500D03*
X108250000Y-129662500D03*
X108750000Y-129662500D03*
X109250000Y-129662500D03*
X109750000Y-129662500D03*
X110250000Y-129662500D03*
X110750000Y-129662500D03*
X111250000Y-129662500D03*
X111750000Y-129662500D03*
X112250000Y-129662500D03*
X112750000Y-129662500D03*
X113250000Y-129662500D03*
%TD*%
D19*
%TO.C,H1*%
X42000000Y-42000000D03*
%TD*%
%TO.C,H9*%
X44135000Y-127010000D03*
%TD*%
D20*
%TO.C,J5*%
X122245000Y-55890000D03*
D21*
X124785000Y-55890000D03*
X122245000Y-58430000D03*
X124785000Y-58430000D03*
X122245000Y-60970000D03*
X124785000Y-60970000D03*
X122245000Y-63510000D03*
X124785000Y-63510000D03*
X122245000Y-66050000D03*
X124785000Y-66050000D03*
X122245000Y-68590000D03*
X124785000Y-68590000D03*
X122245000Y-71130000D03*
X124785000Y-71130000D03*
X122245000Y-73670000D03*
X124785000Y-73670000D03*
X122245000Y-76210000D03*
X124785000Y-76210000D03*
X122245000Y-78750000D03*
X124785000Y-78750000D03*
X122245000Y-81290000D03*
X124785000Y-81290000D03*
X122245000Y-83830000D03*
X124785000Y-83830000D03*
X122245000Y-86370000D03*
X124785000Y-86370000D03*
X122245000Y-88910000D03*
X124785000Y-88910000D03*
X122245000Y-91450000D03*
X124785000Y-91450000D03*
X122245000Y-93990000D03*
X124785000Y-93990000D03*
X122245000Y-96530000D03*
X124785000Y-96530000D03*
X122245000Y-99070000D03*
X124785000Y-99070000D03*
X122245000Y-101610000D03*
X124785000Y-101610000D03*
X122245000Y-104150000D03*
X124785000Y-104150000D03*
X122245000Y-106690000D03*
X124785000Y-106690000D03*
X122245000Y-109230000D03*
X124785000Y-109230000D03*
X122245000Y-111770000D03*
X124785000Y-111770000D03*
X122245000Y-114310000D03*
X124785000Y-114310000D03*
X122245000Y-116850000D03*
X124785000Y-116850000D03*
X122245000Y-119390000D03*
X124785000Y-119390000D03*
%TD*%
D19*
%TO.C,H3*%
X129865000Y-50810000D03*
%TD*%
%TO.C,H7*%
X132000000Y-42000000D03*
%TD*%
%TO.C,H4*%
X42000000Y-132000000D03*
%TD*%
D22*
%TO.C,H11*%
X105000000Y-105000000D03*
%TD*%
%TO.C,H12*%
X69000000Y-105000000D03*
%TD*%
D19*
%TO.C,H5*%
X129865000Y-124470000D03*
%TD*%
D20*
%TO.C,J6*%
X127325000Y-55890000D03*
D21*
X129865000Y-55890000D03*
X127325000Y-58430000D03*
X129865000Y-58430000D03*
X127325000Y-60970000D03*
X129865000Y-60970000D03*
X127325000Y-63510000D03*
X129865000Y-63510000D03*
X127325000Y-66050000D03*
X129865000Y-66050000D03*
X127325000Y-68590000D03*
X129865000Y-68590000D03*
X127325000Y-71130000D03*
X129865000Y-71130000D03*
X127325000Y-73670000D03*
X129865000Y-73670000D03*
X127325000Y-76210000D03*
X129865000Y-76210000D03*
X127325000Y-78750000D03*
X129865000Y-78750000D03*
X127325000Y-81290000D03*
X129865000Y-81290000D03*
X127325000Y-83830000D03*
X129865000Y-83830000D03*
X127325000Y-86370000D03*
X129865000Y-86370000D03*
X127325000Y-88910000D03*
X129865000Y-88910000D03*
X127325000Y-91450000D03*
X129865000Y-91450000D03*
X127325000Y-93990000D03*
X129865000Y-93990000D03*
X127325000Y-96530000D03*
X129865000Y-96530000D03*
X127325000Y-99070000D03*
X129865000Y-99070000D03*
X127325000Y-101610000D03*
X129865000Y-101610000D03*
X127325000Y-104150000D03*
X129865000Y-104150000D03*
X127325000Y-106690000D03*
X129865000Y-106690000D03*
X127325000Y-109230000D03*
X129865000Y-109230000D03*
X127325000Y-111770000D03*
X129865000Y-111770000D03*
X127325000Y-114310000D03*
X129865000Y-114310000D03*
X127325000Y-116850000D03*
X129865000Y-116850000D03*
X127325000Y-119390000D03*
X129865000Y-119390000D03*
%TD*%
D22*
%TO.C,H6*%
X69000000Y-69000000D03*
%TD*%
D23*
%TO.C,J8*%
X75900000Y-74500000D03*
D24*
X98100000Y-74500000D03*
D25*
X78300000Y-75225000D03*
X78300000Y-70775000D03*
X78900000Y-75225000D03*
X78900000Y-70775000D03*
X79500000Y-75225000D03*
X79500000Y-70775000D03*
X80100000Y-75225000D03*
X80100000Y-70775000D03*
X80700000Y-75225000D03*
X80700000Y-70775000D03*
X81300000Y-75225000D03*
X81300000Y-70775000D03*
X81900000Y-75225000D03*
X81900000Y-70775000D03*
X82500000Y-75225000D03*
X82500000Y-70775000D03*
X83100000Y-75225000D03*
X83100000Y-70775000D03*
X83700000Y-75225000D03*
X83700000Y-70775000D03*
X84300000Y-75225000D03*
X84300000Y-70775000D03*
X84900000Y-75225000D03*
X84900000Y-70775000D03*
X85500000Y-75225000D03*
X85500000Y-70775000D03*
X86100000Y-75225000D03*
X86100000Y-70775000D03*
X86700000Y-75225000D03*
X86700000Y-70775000D03*
X87300000Y-75225000D03*
X87300000Y-70775000D03*
X87900000Y-75225000D03*
X87900000Y-70775000D03*
X88500000Y-75225000D03*
X88500000Y-70775000D03*
X89100000Y-75225000D03*
X89100000Y-70775000D03*
X89700000Y-75225000D03*
X89700000Y-70775000D03*
X90300000Y-75225000D03*
X90300000Y-70775000D03*
X90900000Y-75225000D03*
X90900000Y-70775000D03*
X91500000Y-75225000D03*
X91500000Y-70775000D03*
X92100000Y-75225000D03*
X92100000Y-70775000D03*
X92700000Y-75225000D03*
X92700000Y-70775000D03*
X93300000Y-75225000D03*
X93300000Y-70775000D03*
X93900000Y-75225000D03*
X93900000Y-70775000D03*
X94500000Y-75225000D03*
X94500000Y-70775000D03*
X95100000Y-75225000D03*
X95100000Y-70775000D03*
X95700000Y-75225000D03*
X95700000Y-70775000D03*
%TD*%
D19*
%TO.C,H2*%
X132000000Y-132000000D03*
%TD*%
D20*
%TO.C,J7*%
X75570000Y-86460000D03*
D21*
X78110000Y-86460000D03*
X80650000Y-86460000D03*
X83190000Y-86460000D03*
X85730000Y-86460000D03*
X88270000Y-86460000D03*
X90810000Y-86460000D03*
X93350000Y-86460000D03*
X95890000Y-86460000D03*
X98430000Y-86460000D03*
X98430000Y-89000000D03*
X95890000Y-89000000D03*
X93350000Y-89000000D03*
X90810000Y-89000000D03*
X88270000Y-89000000D03*
X85730000Y-89000000D03*
X83190000Y-89000000D03*
X80650000Y-89000000D03*
X78110000Y-89000000D03*
X75570000Y-89000000D03*
%TD*%
D22*
%TO.C,H10*%
X105000000Y-69000000D03*
%TD*%
D20*
%TO.C,J4*%
X75570000Y-95380000D03*
D21*
X78110000Y-95380000D03*
X80650000Y-95380000D03*
X83190000Y-95380000D03*
X85730000Y-95380000D03*
X88270000Y-95380000D03*
X90810000Y-95380000D03*
X93350000Y-95380000D03*
X95890000Y-95380000D03*
X98430000Y-95380000D03*
X98430000Y-97920000D03*
X95890000Y-97920000D03*
X93350000Y-97920000D03*
X90810000Y-97920000D03*
X88270000Y-97920000D03*
X85730000Y-97920000D03*
X83190000Y-97920000D03*
X80650000Y-97920000D03*
X78110000Y-97920000D03*
X75570000Y-97920000D03*
%TD*%
D20*
%TO.C,J3*%
X46990000Y-55346600D03*
D21*
X49530000Y-55346600D03*
X46990000Y-57886600D03*
X49530000Y-57886600D03*
X46990000Y-60426600D03*
X49530000Y-60426600D03*
X46990000Y-62966600D03*
X49530000Y-62966600D03*
X46990000Y-65506600D03*
X49530000Y-65506600D03*
X46990000Y-68046600D03*
X49530000Y-68046600D03*
X46990000Y-70586600D03*
X49530000Y-70586600D03*
X46990000Y-73126600D03*
X49530000Y-73126600D03*
X46990000Y-75666600D03*
X49530000Y-75666600D03*
X46990000Y-78206600D03*
X49530000Y-78206600D03*
X46990000Y-80746600D03*
X49530000Y-80746600D03*
X46990000Y-83286600D03*
X49530000Y-83286600D03*
X46990000Y-85826600D03*
X49530000Y-85826600D03*
X46990000Y-88366600D03*
X49530000Y-88366600D03*
X46990000Y-90906600D03*
X49530000Y-90906600D03*
X46990000Y-93446600D03*
X49530000Y-93446600D03*
X46990000Y-95986600D03*
X49530000Y-95986600D03*
X46990000Y-98526600D03*
X49530000Y-98526600D03*
X46990000Y-101066600D03*
X49530000Y-101066600D03*
X46990000Y-103606600D03*
X49530000Y-103606600D03*
X46990000Y-106146600D03*
X49530000Y-106146600D03*
X46990000Y-108686600D03*
X49530000Y-108686600D03*
X46990000Y-111226600D03*
X49530000Y-111226600D03*
X46990000Y-113766600D03*
X49530000Y-113766600D03*
X46990000Y-116306600D03*
X49530000Y-116306600D03*
X46990000Y-118846600D03*
X49530000Y-118846600D03*
%TD*%
D19*
%TO.C,H8*%
X44135000Y-47000000D03*
%TD*%
%LPD*%
M02*
