M48
; DRILL file {KiCad 7.0.8} date Wed Apr 10 10:35:42 2024
; FORMAT={-:-/ absolute / inch / decimal}
; #@! TF.CreationDate,2024-04-10T10:35:42+02:00
; #@! TF.GenerationSoftware,Kicad,Pcbnew,7.0.8
; #@! TF.FileFunction,Plated,1,4,PTH
FMAT,2
INCH
; #@! TA.AperFunction,Plated,PTH,ViaDrill
T1C0.0118
; #@! TA.AperFunction,Plated,PTH,ComponentDrill
T2C0.0394
%
G90
G05
T1
X2.3819Y-4.9764
X2.4606Y-4.8425
X2.4606Y-4.872
X2.4606Y-4.9016
X2.4902Y-4.8425
X2.4902Y-4.872
X2.4902Y-4.9016
X2.5591Y-5.0394
X2.5591Y-5.0689
X2.5591Y-5.0984
X2.5689Y-2.5197
X2.5689Y-2.5492
X2.5689Y-2.5787
X2.5689Y-3.3465
X2.5689Y-3.376
X2.5689Y-3.4055
X2.5886Y-5.0394
X2.5886Y-5.0689
X2.5886Y-5.0984
X2.5984Y-2.5197
X2.5984Y-2.5492
X2.5984Y-2.5787
X2.5984Y-3.3465
X2.5984Y-3.376
X2.5984Y-3.4055
X2.6575Y-4.8425
X2.6575Y-4.872
X2.6575Y-4.9016
X2.687Y-3.3465
X2.687Y-3.376
X2.687Y-4.8425
X2.687Y-4.872
X2.687Y-4.9016
X2.7165Y-3.3465
X2.7165Y-3.376
X2.7461Y-3.3465
X2.7461Y-3.376
X2.7559Y-5.0394
X2.7559Y-5.0689
X2.7559Y-5.0984
X2.7854Y-5.0394
X2.7854Y-5.0689
X2.7854Y-5.0984
X2.8543Y-4.0945
X2.8543Y-4.124
X2.8543Y-5.0394
X2.8543Y-5.0689
X2.8543Y-5.0984
X2.874Y-2.4803
X2.874Y-2.5098
X2.8839Y-4.0945
X2.8839Y-4.124
X2.8839Y-5.0394
X2.8839Y-5.0689
X2.8839Y-5.0984
X2.9035Y-2.4803
X2.9035Y-2.5098
X2.9134Y-4.0945
X2.9134Y-4.124
X2.9331Y-2.4803
X2.9331Y-2.5098
X2.9626Y-4.8425
X2.9626Y-4.872
X2.9626Y-4.9016
X2.9921Y-4.8425
X2.9921Y-4.872
X2.9921Y-4.9016
X3.0413Y-2.8456
X3.0512Y-5.0394
X3.0512Y-5.0689
X3.0512Y-5.0984
X3.0807Y-5.0394
X3.0807Y-5.0689
X3.0807Y-5.0984
X3.0906Y-2.687
X3.0906Y-2.7165
X3.0906Y-3.0512
X3.1201Y-2.687
X3.1201Y-2.7165
X3.1417Y-3.0354
X3.1496Y-2.687
X3.1496Y-2.7165
X3.1791Y-2.7165
X3.189Y-3.0512
X3.2087Y-2.7165
X3.2362Y-3.0354
X3.2382Y-2.7165
X3.248Y-4.9606
X3.2776Y-2.7165
X3.3071Y-2.7165
X3.3307Y-3.0354
X3.3366Y-2.7165
X3.376Y-2.7165
X3.4055Y-2.7165
X3.4252Y-3.0354
X3.435Y-2.7165
X3.5197Y-3.0354
X3.5374Y-5.2264
X3.5787Y-2.7087
X3.6024Y-2.6721
X3.6024Y-2.6969
X3.6142Y-3.0354
X3.6713Y-5.0492
X3.6909Y-3.9173
X3.6909Y-3.9665
X3.6909Y-5.1476
X3.7205Y-2.7087
X3.7205Y-3.0315
X3.7303Y-3.7992
X3.7303Y-5.1476
X3.7354Y-5.0492
X3.7441Y-2.6969
X3.7441Y-3.0433
X3.7598Y-2.874
X3.7677Y-2.7087
X3.7677Y-3.0315
X3.7697Y-5.1476
X3.7992Y-5.0492
X3.8091Y-5.1476
X3.824Y-5.0492
X3.8386Y-3.9764
X3.8484Y-5.1476
X3.8681Y-5.0492
X3.8732Y-5.1476
X3.9173Y-5.0492
X3.9272Y-5.1476
X3.9421Y-5.0492
X3.9812Y-5.1476
X3.9961Y-5.0492
X4.0059Y-5.1476
X4.0208Y-5.0492
X4.0453Y-5.1476
X4.065Y-3.5138
X4.065Y-5.0492
X4.0748Y-3.1988
X4.0748Y-5.1476
X4.1091Y-5.0492
X4.124Y-3.2972
X4.124Y-5.1476
X4.1339Y-4.4783
X4.1339Y-5.0492
X4.1535Y-5.1476
X4.1598Y-3.5666
X4.1622Y-4.4574
X4.1879Y-5.0492
X4.2028Y-5.1476
X4.2126Y-4.3799
X4.2126Y-5.0492
X4.2224Y-3.1004
X4.2409Y-4.4094
X4.2421Y-5.1476
X4.2618Y-3.1496
X4.2618Y-5.0492
X4.2717Y-3.0413
X4.2815Y-5.1476
X4.2913Y-2.9429
X4.2913Y-5.0492
X4.3012Y-2.8839
X4.311Y-2.815
X4.3209Y-5.1476
X4.3307Y-3.6909
X4.3504Y-5.0492
X4.3602Y-5.1476
X4.3701Y-4.0059
X4.3751Y-5.0492
X4.3883Y-4.1043
X4.3996Y-5.1476
X4.4291Y-5.0492
X4.439Y-5.1476
X4.4587Y-3.75
X4.4587Y-5.0492
X4.5669Y-4.3602
X4.6063Y-4.3406
X4.6181Y-5.2185
X4.6457Y-2.4902
X4.8819Y-2.1161
T2
X1.85Y-2.179
X1.85Y-2.279
X1.85Y-2.379
X1.85Y-2.479
X1.85Y-2.579
X1.85Y-2.679
X1.85Y-2.779
X1.85Y-2.879
X1.85Y-2.979
X1.85Y-3.079
X1.85Y-3.179
X1.85Y-3.279
X1.85Y-3.379
X1.85Y-3.479
X1.85Y-3.579
X1.85Y-3.679
X1.85Y-3.779
X1.85Y-3.879
X1.85Y-3.979
X1.85Y-4.079
X1.85Y-4.179
X1.85Y-4.279
X1.85Y-4.379
X1.85Y-4.479
X1.85Y-4.579
X1.85Y-4.679
X1.95Y-2.179
X1.95Y-2.279
X1.95Y-2.379
X1.95Y-2.479
X1.95Y-2.579
X1.95Y-2.679
X1.95Y-2.779
X1.95Y-2.879
X1.95Y-2.979
X1.95Y-3.079
X1.95Y-3.179
X1.95Y-3.279
X1.95Y-3.379
X1.95Y-3.479
X1.95Y-3.579
X1.95Y-3.679
X1.95Y-3.779
X1.95Y-3.879
X1.95Y-3.979
X1.95Y-4.079
X1.95Y-4.179
X1.95Y-4.279
X1.95Y-4.379
X1.95Y-4.479
X1.95Y-4.579
X1.95Y-4.679
X2.9752Y-3.4039
X2.9752Y-3.5039
X2.9752Y-3.7551
X2.9752Y-3.8551
X3.0752Y-3.4039
X3.0752Y-3.5039
X3.0752Y-3.7551
X3.0752Y-3.8551
X3.1752Y-3.4039
X3.1752Y-3.5039
X3.1752Y-3.7551
X3.1752Y-3.8551
X3.2752Y-3.4039
X3.2752Y-3.5039
X3.2752Y-3.7551
X3.2752Y-3.8551
X3.3752Y-3.4039
X3.3752Y-3.5039
X3.3752Y-3.7551
X3.3752Y-3.8551
X3.4752Y-3.4039
X3.4752Y-3.5039
X3.4752Y-3.7551
X3.4752Y-3.8551
X3.5752Y-3.4039
X3.5752Y-3.5039
X3.5752Y-3.7551
X3.5752Y-3.8551
X3.6752Y-3.4039
X3.6752Y-3.5039
X3.6752Y-3.7551
X3.6752Y-3.8551
X3.7752Y-3.4039
X3.7752Y-3.5039
X3.7752Y-3.7551
X3.7752Y-3.8551
X3.8752Y-3.4039
X3.8752Y-3.5039
X3.8752Y-3.7551
X3.8752Y-3.8551
X4.8128Y-2.2004
X4.8128Y-2.3004
X4.8128Y-2.4004
X4.8128Y-2.5004
X4.8128Y-2.6004
X4.8128Y-2.7004
X4.8128Y-2.8004
X4.8128Y-2.9004
X4.8128Y-3.0004
X4.8128Y-3.1004
X4.8128Y-3.2004
X4.8128Y-3.3004
X4.8128Y-3.4004
X4.8128Y-3.5004
X4.8128Y-3.6004
X4.8128Y-3.7004
X4.8128Y-3.8004
X4.8128Y-3.9004
X4.8128Y-4.0004
X4.8128Y-4.1004
X4.8128Y-4.2004
X4.8128Y-4.3004
X4.8128Y-4.4004
X4.8128Y-4.5004
X4.8128Y-4.6004
X4.8128Y-4.7004
X4.9128Y-2.2004
X4.9128Y-2.3004
X4.9128Y-2.4004
X4.9128Y-2.5004
X4.9128Y-2.6004
X4.9128Y-2.7004
X4.9128Y-2.8004
X4.9128Y-2.9004
X4.9128Y-3.0004
X4.9128Y-3.1004
X4.9128Y-3.2004
X4.9128Y-3.3004
X4.9128Y-3.4004
X4.9128Y-3.5004
X4.9128Y-3.6004
X4.9128Y-3.7004
X4.9128Y-3.8004
X4.9128Y-3.9004
X4.9128Y-4.0004
X4.9128Y-4.1004
X4.9128Y-4.2004
X4.9128Y-4.3004
X4.9128Y-4.4004
X4.9128Y-4.5004
X4.9128Y-4.6004
X4.9128Y-4.7004
X5.0128Y-2.2004
X5.0128Y-2.3004
X5.0128Y-2.4004
X5.0128Y-2.5004
X5.0128Y-2.6004
X5.0128Y-2.7004
X5.0128Y-2.8004
X5.0128Y-2.9004
X5.0128Y-3.0004
X5.0128Y-3.1004
X5.0128Y-3.2004
X5.0128Y-3.3004
X5.0128Y-3.4004
X5.0128Y-3.5004
X5.0128Y-3.6004
X5.0128Y-3.7004
X5.0128Y-3.8004
X5.0128Y-3.9004
X5.0128Y-4.0004
X5.0128Y-4.1004
X5.0128Y-4.2004
X5.0128Y-4.3004
X5.0128Y-4.4004
X5.0128Y-4.5004
X5.0128Y-4.6004
X5.0128Y-4.7004
X5.1128Y-2.2004
X5.1128Y-2.3004
X5.1128Y-2.4004
X5.1128Y-2.5004
X5.1128Y-2.6004
X5.1128Y-2.7004
X5.1128Y-2.8004
X5.1128Y-2.9004
X5.1128Y-3.0004
X5.1128Y-3.1004
X5.1128Y-3.2004
X5.1128Y-3.3004
X5.1128Y-3.4004
X5.1128Y-3.5004
X5.1128Y-3.6004
X5.1128Y-3.7004
X5.1128Y-3.8004
X5.1128Y-3.9004
X5.1128Y-4.0004
X5.1128Y-4.1004
X5.1128Y-4.2004
X5.1128Y-4.3004
X5.1128Y-4.4004
X5.1128Y-4.5004
X5.1128Y-4.6004
X5.1128Y-4.7004
T0
M30
