%TF.GenerationSoftware,KiCad,Pcbnew,7.0.8*%
%TF.CreationDate,2024-04-10T10:35:42+02:00*%
%TF.ProjectId,ESLGSU_Adapter,45534c47-5355-45f4-9164-61707465722e,rev?*%
%TF.SameCoordinates,Original*%
%TF.FileFunction,Soldermask,Top*%
%TF.FilePolarity,Negative*%
%FSLAX46Y46*%
G04 Gerber Fmt 4.6, Leading zero omitted, Abs format (unit mm)*
G04 Created by KiCad (PCBNEW 7.0.8) date 2024-04-10 10:35:42*
%MOMM*%
%LPD*%
G01*
G04 APERTURE LIST*
G04 Aperture macros list*
%AMRoundRect*
0 Rectangle with rounded corners*
0 $1 Rounding radius*
0 $2 $3 $4 $5 $6 $7 $8 $9 X,Y pos of 4 corners*
0 Add a 4 corners polygon primitive as box body*
4,1,4,$2,$3,$4,$5,$6,$7,$8,$9,$2,$3,0*
0 Add four circle primitives for the rounded corners*
1,1,$1+$1,$2,$3*
1,1,$1+$1,$4,$5*
1,1,$1+$1,$6,$7*
1,1,$1+$1,$8,$9*
0 Add four rect primitives between the rounded corners*
20,1,$1+$1,$2,$3,$4,$5,0*
20,1,$1+$1,$4,$5,$6,$7,0*
20,1,$1+$1,$6,$7,$8,$9,0*
20,1,$1+$1,$8,$9,$2,$3,0*%
G04 Aperture macros list end*
%ADD10C,0.010000*%
%ADD11C,2.760000*%
%ADD12C,1.994406*%
%ADD13R,0.300000X1.200000*%
%ADD14C,3.200000*%
%ADD15R,1.700000X1.700000*%
%ADD16O,1.700000X1.700000*%
%ADD17C,2.200000*%
%ADD18C,1.150000*%
%ADD19C,0.750000*%
%ADD20RoundRect,0.102000X-0.175000X-1.225000X0.175000X-1.225000X0.175000X1.225000X-0.175000X1.225000X0*%
G04 APERTURE END LIST*
%TO.C,J1*%
D10*
X92850000Y-133562500D02*
X90450000Y-133562500D01*
X90450000Y-131962500D01*
X91250000Y-131962500D01*
X91250000Y-131162500D01*
X92850000Y-131162500D01*
X92850000Y-133562500D01*
G36*
X92850000Y-133562500D02*
G01*
X90450000Y-133562500D01*
X90450000Y-131962500D01*
X91250000Y-131962500D01*
X91250000Y-131162500D01*
X92850000Y-131162500D01*
X92850000Y-133562500D01*
G37*
X115750000Y-131962500D02*
X116550000Y-131962500D01*
X116550000Y-133562500D01*
X114150000Y-133562500D01*
X114150000Y-131162500D01*
X115750000Y-131162500D01*
X115750000Y-131962500D01*
G36*
X115750000Y-131962500D02*
G01*
X116550000Y-131962500D01*
X116550000Y-133562500D01*
X114150000Y-133562500D01*
X114150000Y-131162500D01*
X115750000Y-131162500D01*
X115750000Y-131962500D01*
G37*
%TO.C,H1*%
D11*
X43380000Y-42000000D02*
G75*
G03*
X43380000Y-42000000I-1380000J0D01*
G01*
%TO.C,H9*%
X45515000Y-127010000D02*
G75*
G03*
X45515000Y-127010000I-1380000J0D01*
G01*
%TO.C,J2*%
D10*
X61106200Y-135331200D02*
X59853800Y-135331200D01*
X59853800Y-126978800D01*
X61106200Y-126978800D01*
X61106200Y-135331200D01*
G36*
X61106200Y-135331200D02*
G01*
X59853800Y-135331200D01*
X59853800Y-126978800D01*
X61106200Y-126978800D01*
X61106200Y-135331200D01*
G37*
X63746200Y-127551200D02*
X62353800Y-127551200D01*
X62353800Y-124898800D01*
X63746200Y-124898800D01*
X63746200Y-127551200D01*
G36*
X63746200Y-127551200D02*
G01*
X62353800Y-127551200D01*
X62353800Y-124898800D01*
X63746200Y-124898800D01*
X63746200Y-127551200D01*
G37*
X66246200Y-127551200D02*
X64853800Y-127551200D01*
X64853800Y-124898800D01*
X66246200Y-124898800D01*
X66246200Y-127551200D01*
G36*
X66246200Y-127551200D02*
G01*
X64853800Y-127551200D01*
X64853800Y-124898800D01*
X66246200Y-124898800D01*
X66246200Y-127551200D01*
G37*
X68746200Y-127551200D02*
X67353800Y-127551200D01*
X67353800Y-124898800D01*
X68746200Y-124898800D01*
X68746200Y-127551200D01*
G36*
X68746200Y-127551200D02*
G01*
X67353800Y-127551200D01*
X67353800Y-124898800D01*
X68746200Y-124898800D01*
X68746200Y-127551200D01*
G37*
X71246200Y-127551200D02*
X69853800Y-127551200D01*
X69853800Y-124898800D01*
X71246200Y-124898800D01*
X71246200Y-127551200D01*
G36*
X71246200Y-127551200D02*
G01*
X69853800Y-127551200D01*
X69853800Y-124898800D01*
X71246200Y-124898800D01*
X71246200Y-127551200D01*
G37*
X73746200Y-127551200D02*
X72353800Y-127551200D01*
X72353800Y-124898800D01*
X73746200Y-124898800D01*
X73746200Y-127551200D01*
G36*
X73746200Y-127551200D02*
G01*
X72353800Y-127551200D01*
X72353800Y-124898800D01*
X73746200Y-124898800D01*
X73746200Y-127551200D01*
G37*
X76246200Y-127551200D02*
X74853800Y-127551200D01*
X74853800Y-124898800D01*
X76246200Y-124898800D01*
X76246200Y-127551200D01*
G36*
X76246200Y-127551200D02*
G01*
X74853800Y-127551200D01*
X74853800Y-124898800D01*
X76246200Y-124898800D01*
X76246200Y-127551200D01*
G37*
X78746200Y-127551200D02*
X77353800Y-127551200D01*
X77353800Y-124898800D01*
X78746200Y-124898800D01*
X78746200Y-127551200D01*
G36*
X78746200Y-127551200D02*
G01*
X77353800Y-127551200D01*
X77353800Y-124898800D01*
X78746200Y-124898800D01*
X78746200Y-127551200D01*
G37*
X81246200Y-127551200D02*
X79853800Y-127551200D01*
X79853800Y-124898800D01*
X81246200Y-124898800D01*
X81246200Y-127551200D01*
G36*
X81246200Y-127551200D02*
G01*
X79853800Y-127551200D01*
X79853800Y-124898800D01*
X81246200Y-124898800D01*
X81246200Y-127551200D01*
G37*
X83146200Y-135331200D02*
X81893800Y-135331200D01*
X81893800Y-126978800D01*
X83146200Y-126978800D01*
X83146200Y-135331200D01*
G36*
X83146200Y-135331200D02*
G01*
X81893800Y-135331200D01*
X81893800Y-126978800D01*
X83146200Y-126978800D01*
X83146200Y-135331200D01*
G37*
%TO.C,H3*%
D11*
X131245000Y-50810000D02*
G75*
G03*
X131245000Y-50810000I-1380000J0D01*
G01*
%TO.C,H7*%
X133380000Y-42000000D02*
G75*
G03*
X133380000Y-42000000I-1380000J0D01*
G01*
%TO.C,H4*%
X43380000Y-132000000D02*
G75*
G03*
X43380000Y-132000000I-1380000J0D01*
G01*
%TO.C,H11*%
D12*
X105997203Y-105000000D02*
G75*
G03*
X105997203Y-105000000I-997203J0D01*
G01*
%TO.C,G\u002A\u002A\u002A*%
G36*
X71277586Y-40991222D02*
G01*
X71273424Y-41118334D01*
X71255667Y-41182525D01*
X71216405Y-41204093D01*
X71194171Y-41205336D01*
X71171907Y-41207540D01*
X71154003Y-41219616D01*
X71139986Y-41249756D01*
X71129378Y-41306157D01*
X71121707Y-41397011D01*
X71116496Y-41530514D01*
X71113270Y-41714860D01*
X71111555Y-41958244D01*
X71110875Y-42268859D01*
X71110755Y-42644253D01*
X71109729Y-42987551D01*
X71106804Y-43300026D01*
X71102215Y-43572559D01*
X71096193Y-43796031D01*
X71088973Y-43961322D01*
X71080786Y-44059314D01*
X71073998Y-44083169D01*
X71029186Y-44052576D01*
X70957613Y-43975042D01*
X70919452Y-43926765D01*
X70842133Y-43832146D01*
X70724138Y-43697254D01*
X70582885Y-43541679D01*
X70465176Y-43415845D01*
X70202579Y-43130489D01*
X69998436Y-42886168D01*
X69846382Y-42671419D01*
X69740050Y-42474778D01*
X69673073Y-42284779D01*
X69639085Y-42089958D01*
X69631371Y-41914368D01*
X69631744Y-41909528D01*
X70031116Y-41909528D01*
X70061056Y-42087558D01*
X70094100Y-42194437D01*
X70150270Y-42325629D01*
X70234299Y-42481538D01*
X70334707Y-42645161D01*
X70440015Y-42799493D01*
X70538746Y-42927533D01*
X70619420Y-43012275D01*
X70663211Y-43037465D01*
X70672089Y-42998668D01*
X70679005Y-42888390D01*
X70683683Y-42718546D01*
X70685849Y-42501053D01*
X70685227Y-42247827D01*
X70684064Y-42133333D01*
X70672824Y-41226190D01*
X70548994Y-41235293D01*
X70374390Y-41289008D01*
X70222678Y-41421502D01*
X70120197Y-41581558D01*
X70050369Y-41751669D01*
X70031116Y-41909528D01*
X69631744Y-41909528D01*
X69651487Y-41653624D01*
X69718314Y-41441025D01*
X69843530Y-41249012D01*
X69970686Y-41113530D01*
X70124975Y-40985400D01*
X70290660Y-40896269D01*
X70488318Y-40838913D01*
X70738528Y-40806111D01*
X70870936Y-40797578D01*
X71277586Y-40777107D01*
X71277586Y-40991222D01*
G37*
G36*
X67969362Y-40788892D02*
G01*
X68312156Y-40790699D01*
X68619818Y-40793543D01*
X68883424Y-40797285D01*
X69094054Y-40801788D01*
X69242786Y-40806915D01*
X69320697Y-40812528D01*
X69330109Y-40814948D01*
X69322029Y-40859781D01*
X69271961Y-40944841D01*
X69228321Y-41003852D01*
X69062780Y-41276210D01*
X68955267Y-41591388D01*
X68909224Y-41929128D01*
X68928091Y-42269174D01*
X68977053Y-42482688D01*
X69043057Y-42665839D01*
X69130288Y-42844673D01*
X69247095Y-43031388D01*
X69401828Y-43238180D01*
X69602833Y-43477247D01*
X69832854Y-43732969D01*
X70109708Y-44042558D01*
X70329985Y-44309977D01*
X70500709Y-44547027D01*
X70628903Y-44765511D01*
X70721592Y-44977230D01*
X70785799Y-45193986D01*
X70824437Y-45399061D01*
X70843409Y-45797553D01*
X70782779Y-46182969D01*
X70646056Y-46549322D01*
X70436752Y-46890626D01*
X70158377Y-47200894D01*
X69814442Y-47474141D01*
X69498506Y-47659986D01*
X69246320Y-47781496D01*
X69009238Y-47881510D01*
X68802780Y-47954348D01*
X68642462Y-47994332D01*
X68569441Y-47999965D01*
X68492326Y-47987141D01*
X68370527Y-47958795D01*
X68302380Y-47940824D01*
X68181194Y-47904167D01*
X68096580Y-47872364D01*
X68075769Y-47860443D01*
X68076219Y-47815524D01*
X68154635Y-47763232D01*
X68285336Y-47713452D01*
X68440444Y-47635283D01*
X68613746Y-47502824D01*
X68784774Y-47335703D01*
X68933063Y-47153548D01*
X69024354Y-47004720D01*
X69150330Y-46698615D01*
X69211195Y-46401119D01*
X69205183Y-46104813D01*
X69130529Y-45802276D01*
X68985467Y-45486092D01*
X68768230Y-45148840D01*
X68502659Y-44813054D01*
X68217046Y-44472771D01*
X67982908Y-44182903D01*
X67793837Y-43933797D01*
X67643431Y-43715801D01*
X67525284Y-43519262D01*
X67432990Y-43334525D01*
X67360146Y-43151939D01*
X67320789Y-43031801D01*
X67235724Y-42647357D01*
X67207999Y-42257030D01*
X67218426Y-42120508D01*
X67683797Y-42120508D01*
X67699308Y-42489016D01*
X67777688Y-42851350D01*
X67830740Y-43000121D01*
X67919689Y-43201386D01*
X68023123Y-43394179D01*
X68150698Y-43592765D01*
X68312073Y-43811410D01*
X68516906Y-44064377D01*
X68685830Y-44263148D01*
X68971268Y-44603310D01*
X69200716Y-44897320D01*
X69380608Y-45154356D01*
X69517377Y-45383596D01*
X69615506Y-45589486D01*
X69663114Y-45724862D01*
X69692243Y-45867492D01*
X69706909Y-46044374D01*
X69710942Y-46231116D01*
X69701147Y-46511366D01*
X69662435Y-46734572D01*
X69586746Y-46924454D01*
X69466019Y-47104734D01*
X69379731Y-47205926D01*
X69289741Y-47313067D01*
X69263085Y-47366106D01*
X69300306Y-47365846D01*
X69401943Y-47313094D01*
X69437396Y-47291850D01*
X69710698Y-47083187D01*
X69944311Y-46821789D01*
X70130788Y-46522935D01*
X70262684Y-46201902D01*
X70332555Y-45873965D01*
X70332955Y-45554404D01*
X70321396Y-45477982D01*
X70274610Y-45275111D01*
X70208066Y-45083822D01*
X70114677Y-44892838D01*
X69987356Y-44690883D01*
X69819018Y-44466681D01*
X69602576Y-44208956D01*
X69340031Y-43916338D01*
X69047810Y-43579995D01*
X68820479Y-43277766D01*
X68651733Y-43000298D01*
X68535264Y-42738242D01*
X68524307Y-42706814D01*
X68482121Y-42568742D01*
X68456831Y-42441626D01*
X68445814Y-42299275D01*
X68446449Y-42115499D01*
X68451231Y-41976929D01*
X68469119Y-41711498D01*
X68498072Y-41502583D01*
X68536254Y-41363363D01*
X68536945Y-41361740D01*
X68604036Y-41205336D01*
X68280171Y-41205336D01*
X67956306Y-41205336D01*
X67840844Y-41446911D01*
X67731020Y-41766312D01*
X67683797Y-42120508D01*
X67218426Y-42120508D01*
X67236776Y-41880233D01*
X67321213Y-41536382D01*
X67392832Y-41364780D01*
X67471718Y-41205336D01*
X67149753Y-41205336D01*
X66963409Y-41210355D01*
X66837436Y-41235300D01*
X66748946Y-41295002D01*
X66675051Y-41404290D01*
X66600285Y-41561376D01*
X66555317Y-41680343D01*
X66524616Y-41813808D01*
X66504673Y-41983750D01*
X66491979Y-42212146D01*
X66490652Y-42248029D01*
X66492496Y-42626741D01*
X66529640Y-42974447D01*
X66607167Y-43303230D01*
X66730161Y-43625175D01*
X66903705Y-43952365D01*
X67132882Y-44296885D01*
X67422777Y-44670817D01*
X67597381Y-44878771D01*
X67847029Y-45175981D01*
X68042918Y-45425295D01*
X68190860Y-45637207D01*
X68296670Y-45822207D01*
X68366162Y-45990789D01*
X68405148Y-46153444D01*
X68419443Y-46320666D01*
X68419845Y-46363101D01*
X68412325Y-46526515D01*
X68383518Y-46645990D01*
X68322298Y-46760382D01*
X68294164Y-46802090D01*
X68117757Y-46986296D01*
X67894046Y-47109215D01*
X67635704Y-47167534D01*
X67355404Y-47157938D01*
X67138553Y-47104235D01*
X66929198Y-46992813D01*
X66726074Y-46808787D01*
X66536886Y-46562958D01*
X66369337Y-46266125D01*
X66231132Y-45929089D01*
X66177832Y-45757464D01*
X66157734Y-45682186D01*
X66140813Y-45607021D01*
X66126733Y-45524127D01*
X66115159Y-45425660D01*
X66105759Y-45303780D01*
X66098196Y-45150644D01*
X66092136Y-44958410D01*
X66087246Y-44719236D01*
X66083191Y-44425280D01*
X66083107Y-44416831D01*
X66482722Y-44416831D01*
X66499620Y-44885607D01*
X66552087Y-45317490D01*
X66637493Y-45705882D01*
X66753211Y-46044182D01*
X66896611Y-46325791D01*
X67065062Y-46544108D01*
X67255938Y-46692535D01*
X67413978Y-46754439D01*
X67507345Y-46777116D01*
X67555738Y-46789642D01*
X67556512Y-46789901D01*
X67598639Y-46778332D01*
X67687308Y-46744343D01*
X67707272Y-46736095D01*
X67840049Y-46640799D01*
X67908053Y-46493826D01*
X67910706Y-46296761D01*
X67896167Y-46216593D01*
X67866682Y-46106844D01*
X67824426Y-45997461D01*
X67762617Y-45877486D01*
X67674470Y-45735964D01*
X67553202Y-45561936D01*
X67392030Y-45344445D01*
X67203072Y-45097062D01*
X67044549Y-44888323D01*
X66893734Y-44684420D01*
X66762496Y-44501792D01*
X66662705Y-44356873D01*
X66618155Y-44287067D01*
X66484011Y-44062315D01*
X66482722Y-44416831D01*
X66083107Y-44416831D01*
X66079636Y-44068699D01*
X66076246Y-43641652D01*
X66073970Y-43322003D01*
X66070587Y-42847782D01*
X66067392Y-42450222D01*
X66064081Y-42122571D01*
X66060348Y-41858074D01*
X66055888Y-41649980D01*
X66050395Y-41491535D01*
X66043565Y-41375986D01*
X66035091Y-41296581D01*
X66024669Y-41246567D01*
X66011994Y-41219190D01*
X65996759Y-41207697D01*
X65978660Y-41205337D01*
X65978271Y-41205336D01*
X65929577Y-41193599D01*
X65905301Y-41144864D01*
X65897565Y-41038848D01*
X65897290Y-40996798D01*
X65897290Y-40788259D01*
X67600356Y-40788259D01*
X67969362Y-40788892D01*
G37*
%TO.C,H12*%
X69997203Y-105000000D02*
G75*
G03*
X69997203Y-105000000I-997203J0D01*
G01*
%TO.C,H5*%
D11*
X131245000Y-124470000D02*
G75*
G03*
X131245000Y-124470000I-1380000J0D01*
G01*
%TO.C,H6*%
D12*
X69997203Y-69000000D02*
G75*
G03*
X69997203Y-69000000I-997203J0D01*
G01*
%TO.C,H2*%
D11*
X133380000Y-132000000D02*
G75*
G03*
X133380000Y-132000000I-1380000J0D01*
G01*
%TO.C,G\u002A\u002A\u002A*%
G36*
X85463879Y-53199749D02*
G01*
X85470783Y-56087851D01*
X85539159Y-56272047D01*
X85681845Y-56593144D01*
X85856826Y-56875222D01*
X86063630Y-57117833D01*
X86301783Y-57320527D01*
X86570814Y-57482856D01*
X86870248Y-57604372D01*
X86975402Y-57635371D01*
X87020291Y-57646981D01*
X87064919Y-57656881D01*
X87113702Y-57665243D01*
X87171056Y-57672238D01*
X87241398Y-57678039D01*
X87329145Y-57682816D01*
X87438712Y-57686741D01*
X87574516Y-57689987D01*
X87740973Y-57692724D01*
X87942501Y-57695124D01*
X88183515Y-57697360D01*
X88468431Y-57699602D01*
X88664910Y-57701040D01*
X90150402Y-57711760D01*
X90150402Y-58474555D01*
X90150402Y-59237349D01*
X88626657Y-59234826D01*
X88259274Y-59233810D01*
X87940496Y-59232028D01*
X87667925Y-59229435D01*
X87439169Y-59225980D01*
X87251831Y-59221618D01*
X87103517Y-59216300D01*
X86991831Y-59209979D01*
X86914377Y-59202606D01*
X86898896Y-59200409D01*
X86599244Y-59137558D01*
X86290019Y-59043644D01*
X85988508Y-58925039D01*
X85711995Y-58788115D01*
X85598472Y-58721058D01*
X85256404Y-58477417D01*
X84945365Y-58196823D01*
X84668815Y-57883821D01*
X84430209Y-57542957D01*
X84233005Y-57178776D01*
X84080662Y-56795822D01*
X84044193Y-56677851D01*
X84023005Y-56603374D01*
X84004039Y-56532509D01*
X83987172Y-56462143D01*
X83972281Y-56389164D01*
X83959243Y-56310459D01*
X83947936Y-56222917D01*
X83938235Y-56123425D01*
X83930018Y-56008871D01*
X83923163Y-55876143D01*
X83917546Y-55722129D01*
X83913044Y-55543716D01*
X83909534Y-55337792D01*
X83906893Y-55101245D01*
X83904999Y-54830964D01*
X83903727Y-54523834D01*
X83902956Y-54176745D01*
X83902563Y-53786584D01*
X83902423Y-53350240D01*
X83902410Y-53090059D01*
X83902410Y-50311647D01*
X84679692Y-50311647D01*
X85456975Y-50311647D01*
X85463879Y-53199749D01*
G37*
G36*
X73905623Y-51088294D02*
G01*
X73905623Y-51866216D01*
X71602725Y-51873118D01*
X69299828Y-51880020D01*
X69107595Y-51975036D01*
X68906928Y-52100032D01*
X68743658Y-52259116D01*
X68615069Y-52455055D01*
X68593171Y-52499124D01*
X68556063Y-52581414D01*
X68532354Y-52649852D01*
X68519078Y-52720489D01*
X68513266Y-52809375D01*
X68511949Y-52932561D01*
X68511948Y-52938353D01*
X68513162Y-53063345D01*
X68518738Y-53153209D01*
X68531576Y-53223800D01*
X68554579Y-53290974D01*
X68590645Y-53370585D01*
X68591268Y-53371888D01*
X68705639Y-53566373D01*
X68846513Y-53721706D01*
X69021828Y-53846238D01*
X69064012Y-53869390D01*
X69148932Y-53912241D01*
X69219890Y-53941369D01*
X69292013Y-53960462D01*
X69380429Y-53973209D01*
X69500265Y-53983300D01*
X69543316Y-53986274D01*
X69615694Y-53989447D01*
X69734479Y-53992506D01*
X69895072Y-53995407D01*
X70092877Y-53998108D01*
X70323295Y-54000567D01*
X70581730Y-54002741D01*
X70863583Y-54004588D01*
X71164257Y-54006065D01*
X71479155Y-54007129D01*
X71803679Y-54007739D01*
X71871838Y-54007805D01*
X73905623Y-54009438D01*
X73905623Y-54786851D01*
X73905623Y-55564264D01*
X71604067Y-55571038D01*
X69302510Y-55577811D01*
X69131052Y-55659035D01*
X68921612Y-55783383D01*
X68752783Y-55937504D01*
X68626130Y-56118773D01*
X68543220Y-56324567D01*
X68505618Y-56552261D01*
X68505945Y-56706534D01*
X68544459Y-56933868D01*
X68628683Y-57141288D01*
X68755784Y-57324540D01*
X68922929Y-57479366D01*
X69088925Y-57582662D01*
X69146701Y-57611680D01*
X69196740Y-57633341D01*
X69248086Y-57649068D01*
X69309784Y-57660283D01*
X69390879Y-57668412D01*
X69500416Y-57674876D01*
X69647439Y-57681099D01*
X69736044Y-57684498D01*
X69844047Y-57687634D01*
X69997501Y-57690664D01*
X70190854Y-57693538D01*
X70418553Y-57696208D01*
X70675046Y-57698625D01*
X70954779Y-57700739D01*
X71252201Y-57702501D01*
X71561759Y-57703862D01*
X71877900Y-57704773D01*
X72063103Y-57705078D01*
X73905623Y-57707229D01*
X73905623Y-58472007D01*
X73905623Y-59236785D01*
X71731577Y-59243442D01*
X71396959Y-59244264D01*
X71072671Y-59244667D01*
X70762948Y-59244670D01*
X70472026Y-59244290D01*
X70204143Y-59243545D01*
X69963533Y-59242452D01*
X69754434Y-59241030D01*
X69581082Y-59239295D01*
X69447713Y-59237265D01*
X69358563Y-59234959D01*
X69328012Y-59233446D01*
X69072330Y-59195313D01*
X68804478Y-59119757D01*
X68540471Y-59011863D01*
X68398406Y-58938160D01*
X68163241Y-58781142D01*
X67935722Y-58583034D01*
X67724586Y-58353739D01*
X67538571Y-58103160D01*
X67386413Y-57841199D01*
X67336706Y-57734800D01*
X67218010Y-57398502D01*
X67143456Y-57043739D01*
X67113664Y-56678639D01*
X67129252Y-56311325D01*
X67190840Y-55949925D01*
X67198437Y-55918858D01*
X67254663Y-55740157D01*
X67336459Y-55539963D01*
X67435630Y-55335013D01*
X67543982Y-55142043D01*
X67653321Y-54977789D01*
X67669906Y-54955878D01*
X67814750Y-54768412D01*
X67739707Y-54688574D01*
X67578081Y-54485941D01*
X67434007Y-54244565D01*
X67311821Y-53974964D01*
X67215859Y-53687656D01*
X67150458Y-53393159D01*
X67126180Y-53200418D01*
X67117340Y-52825589D01*
X67154205Y-52463442D01*
X67234559Y-52117363D01*
X67356187Y-51790735D01*
X67516872Y-51486941D01*
X67714398Y-51209365D01*
X67946549Y-50961391D01*
X68211109Y-50746403D01*
X68505863Y-50567784D01*
X68828594Y-50428918D01*
X68970984Y-50383540D01*
X69175000Y-50324920D01*
X71540312Y-50317646D01*
X73905623Y-50310373D01*
X73905623Y-51088294D01*
G37*
G36*
X81964257Y-51088368D02*
G01*
X81964257Y-51865090D01*
X79828464Y-51872555D01*
X77692671Y-51880020D01*
X77523762Y-51960051D01*
X77324399Y-52079991D01*
X77161277Y-52229964D01*
X77035513Y-52403804D01*
X76948224Y-52595345D01*
X76900528Y-52798420D01*
X76893542Y-53006865D01*
X76928385Y-53214512D01*
X77006173Y-53415196D01*
X77128025Y-53602751D01*
X77209583Y-53693455D01*
X77314490Y-53780298D01*
X77446369Y-53864015D01*
X77584030Y-53932462D01*
X77692671Y-53970307D01*
X77732917Y-53974522D01*
X77818881Y-53979214D01*
X77945279Y-53984229D01*
X78106828Y-53989413D01*
X78298245Y-53994610D01*
X78514248Y-53999667D01*
X78749553Y-54004430D01*
X78998878Y-54008743D01*
X79018775Y-54009057D01*
X79305433Y-54013639D01*
X79545977Y-54017823D01*
X79745296Y-54021862D01*
X79908277Y-54026013D01*
X80039806Y-54030530D01*
X80144771Y-54035668D01*
X80228059Y-54041681D01*
X80294557Y-54048826D01*
X80349152Y-54057357D01*
X80396732Y-54067530D01*
X80442183Y-54079598D01*
X80457923Y-54084150D01*
X80796206Y-54209058D01*
X81108512Y-54376553D01*
X81391672Y-54583747D01*
X81642518Y-54827750D01*
X81857881Y-55105675D01*
X82034590Y-55414633D01*
X82112236Y-55591865D01*
X82222398Y-55932338D01*
X82287250Y-56274812D01*
X82308847Y-56615617D01*
X82289245Y-56951085D01*
X82230502Y-57277546D01*
X82134673Y-57591330D01*
X82003813Y-57888768D01*
X81839980Y-58166191D01*
X81645229Y-58419929D01*
X81421617Y-58646313D01*
X81171199Y-58841672D01*
X80896032Y-59002339D01*
X80598171Y-59124643D01*
X80279673Y-59204915D01*
X80072554Y-59231982D01*
X80013421Y-59234775D01*
X79907694Y-59237270D01*
X79759780Y-59239445D01*
X79574088Y-59241277D01*
X79355025Y-59242741D01*
X79106999Y-59243816D01*
X78834420Y-59244479D01*
X78541695Y-59244706D01*
X78233233Y-59244474D01*
X77913441Y-59243761D01*
X77852059Y-59243570D01*
X75843775Y-59237040D01*
X75843775Y-58472135D01*
X75843775Y-57707229D01*
X77750050Y-57706117D01*
X78150747Y-57705749D01*
X78503840Y-57705039D01*
X78812731Y-57703831D01*
X79080819Y-57701970D01*
X79311506Y-57699303D01*
X79508191Y-57695675D01*
X79674275Y-57690930D01*
X79813159Y-57684914D01*
X79928243Y-57677472D01*
X80022927Y-57668450D01*
X80100612Y-57657693D01*
X80164699Y-57645046D01*
X80218588Y-57630354D01*
X80265679Y-57613463D01*
X80309373Y-57594219D01*
X80319803Y-57589197D01*
X80500142Y-57475204D01*
X80660203Y-57323379D01*
X80787617Y-57146279D01*
X80823606Y-57077713D01*
X80860272Y-56996887D01*
X80884053Y-56930147D01*
X80897703Y-56862248D01*
X80903971Y-56777950D01*
X80905610Y-56662009D01*
X80905616Y-56623394D01*
X80904483Y-56496436D01*
X80899588Y-56405482D01*
X80888194Y-56335539D01*
X80867560Y-56271618D01*
X80834949Y-56198727D01*
X80823839Y-56175778D01*
X80731753Y-56025518D01*
X80608666Y-55878386D01*
X80471840Y-55754011D01*
X80420829Y-55717453D01*
X80354454Y-55681952D01*
X80262475Y-55642637D01*
X80191868Y-55617175D01*
X80153003Y-55605398D01*
X80111193Y-55595524D01*
X80061567Y-55587333D01*
X79999254Y-55580608D01*
X79919381Y-55575130D01*
X79817077Y-55570682D01*
X79687471Y-55567043D01*
X79525690Y-55563997D01*
X79326865Y-55561325D01*
X79086122Y-55558808D01*
X78840261Y-55556588D01*
X78544745Y-55553895D01*
X78294855Y-55551016D01*
X78085218Y-55547423D01*
X77910457Y-55542593D01*
X77765197Y-55535999D01*
X77644063Y-55527118D01*
X77541679Y-55515423D01*
X77452669Y-55500389D01*
X77371658Y-55481492D01*
X77293271Y-55458205D01*
X77212132Y-55430005D01*
X77122865Y-55396365D01*
X77096528Y-55386226D01*
X76845457Y-55266840D01*
X76596181Y-55106127D01*
X76359586Y-54912949D01*
X76146559Y-54696165D01*
X75972599Y-54471504D01*
X75831073Y-54231472D01*
X75706536Y-53960481D01*
X75607729Y-53677904D01*
X75595845Y-53636354D01*
X75570436Y-53541172D01*
X75552097Y-53459265D01*
X75539732Y-53379195D01*
X75532247Y-53289526D01*
X75528545Y-53178823D01*
X75527531Y-53035647D01*
X75527772Y-52925602D01*
X75529437Y-52746637D01*
X75533464Y-52607987D01*
X75540743Y-52498982D01*
X75552167Y-52408956D01*
X75568627Y-52327240D01*
X75582177Y-52274516D01*
X75706492Y-51905032D01*
X75867119Y-51570360D01*
X76063495Y-51271223D01*
X76295055Y-51008346D01*
X76561234Y-50782450D01*
X76861469Y-50594260D01*
X76914745Y-50566629D01*
X76999198Y-50524458D01*
X77077498Y-50487219D01*
X77153247Y-50454606D01*
X77230047Y-50426311D01*
X77311499Y-50402027D01*
X77401206Y-50381449D01*
X77502770Y-50364268D01*
X77619793Y-50350177D01*
X77755877Y-50338870D01*
X77914623Y-50330040D01*
X78099635Y-50323380D01*
X78314513Y-50318583D01*
X78562860Y-50315341D01*
X78848277Y-50313348D01*
X79174368Y-50312297D01*
X79544733Y-50311881D01*
X79904970Y-50311797D01*
X81964257Y-50311647D01*
X81964257Y-51088368D01*
G37*
%TO.C,H10*%
D12*
X105997203Y-69000000D02*
G75*
G03*
X105997203Y-69000000I-997203J0D01*
G01*
%TO.C,H8*%
D11*
X45515000Y-47000000D02*
G75*
G03*
X45515000Y-47000000I-1380000J0D01*
G01*
%TD*%
D13*
%TO.C,J1*%
X93750000Y-129662500D03*
X94250000Y-129662500D03*
X94750000Y-129662500D03*
X95250000Y-129662500D03*
X95750000Y-129662500D03*
X96250000Y-129662500D03*
X96750000Y-129662500D03*
X97250000Y-129662500D03*
X97750000Y-129662500D03*
X98250000Y-129662500D03*
X98750000Y-129662500D03*
X99250000Y-129662500D03*
X99750000Y-129662500D03*
X100250000Y-129662500D03*
X100750000Y-129662500D03*
X101250000Y-129662500D03*
X101750000Y-129662500D03*
X102250000Y-129662500D03*
X102750000Y-129662500D03*
X103250000Y-129662500D03*
X103750000Y-129662500D03*
X104250000Y-129662500D03*
X104750000Y-129662500D03*
X105250000Y-129662500D03*
X105750000Y-129662500D03*
X106250000Y-129662500D03*
X106750000Y-129662500D03*
X107250000Y-129662500D03*
X107750000Y-129662500D03*
X108250000Y-129662500D03*
X108750000Y-129662500D03*
X109250000Y-129662500D03*
X109750000Y-129662500D03*
X110250000Y-129662500D03*
X110750000Y-129662500D03*
X111250000Y-129662500D03*
X111750000Y-129662500D03*
X112250000Y-129662500D03*
X112750000Y-129662500D03*
X113250000Y-129662500D03*
%TD*%
D14*
%TO.C,H1*%
X42000000Y-42000000D03*
%TD*%
%TO.C,H9*%
X44135000Y-127010000D03*
%TD*%
D15*
%TO.C,J5*%
X122245000Y-55890000D03*
D16*
X124785000Y-55890000D03*
X122245000Y-58430000D03*
X124785000Y-58430000D03*
X122245000Y-60970000D03*
X124785000Y-60970000D03*
X122245000Y-63510000D03*
X124785000Y-63510000D03*
X122245000Y-66050000D03*
X124785000Y-66050000D03*
X122245000Y-68590000D03*
X124785000Y-68590000D03*
X122245000Y-71130000D03*
X124785000Y-71130000D03*
X122245000Y-73670000D03*
X124785000Y-73670000D03*
X122245000Y-76210000D03*
X124785000Y-76210000D03*
X122245000Y-78750000D03*
X124785000Y-78750000D03*
X122245000Y-81290000D03*
X124785000Y-81290000D03*
X122245000Y-83830000D03*
X124785000Y-83830000D03*
X122245000Y-86370000D03*
X124785000Y-86370000D03*
X122245000Y-88910000D03*
X124785000Y-88910000D03*
X122245000Y-91450000D03*
X124785000Y-91450000D03*
X122245000Y-93990000D03*
X124785000Y-93990000D03*
X122245000Y-96530000D03*
X124785000Y-96530000D03*
X122245000Y-99070000D03*
X124785000Y-99070000D03*
X122245000Y-101610000D03*
X124785000Y-101610000D03*
X122245000Y-104150000D03*
X124785000Y-104150000D03*
X122245000Y-106690000D03*
X124785000Y-106690000D03*
X122245000Y-109230000D03*
X124785000Y-109230000D03*
X122245000Y-111770000D03*
X124785000Y-111770000D03*
X122245000Y-114310000D03*
X124785000Y-114310000D03*
X122245000Y-116850000D03*
X124785000Y-116850000D03*
X122245000Y-119390000D03*
X124785000Y-119390000D03*
%TD*%
D14*
%TO.C,H3*%
X129865000Y-50810000D03*
%TD*%
%TO.C,H7*%
X132000000Y-42000000D03*
%TD*%
%TO.C,H4*%
X42000000Y-132000000D03*
%TD*%
D17*
%TO.C,H11*%
X105000000Y-105000000D03*
%TD*%
%TO.C,H12*%
X69000000Y-105000000D03*
%TD*%
D14*
%TO.C,H5*%
X129865000Y-124470000D03*
%TD*%
D15*
%TO.C,J6*%
X127325000Y-55890000D03*
D16*
X129865000Y-55890000D03*
X127325000Y-58430000D03*
X129865000Y-58430000D03*
X127325000Y-60970000D03*
X129865000Y-60970000D03*
X127325000Y-63510000D03*
X129865000Y-63510000D03*
X127325000Y-66050000D03*
X129865000Y-66050000D03*
X127325000Y-68590000D03*
X129865000Y-68590000D03*
X127325000Y-71130000D03*
X129865000Y-71130000D03*
X127325000Y-73670000D03*
X129865000Y-73670000D03*
X127325000Y-76210000D03*
X129865000Y-76210000D03*
X127325000Y-78750000D03*
X129865000Y-78750000D03*
X127325000Y-81290000D03*
X129865000Y-81290000D03*
X127325000Y-83830000D03*
X129865000Y-83830000D03*
X127325000Y-86370000D03*
X129865000Y-86370000D03*
X127325000Y-88910000D03*
X129865000Y-88910000D03*
X127325000Y-91450000D03*
X129865000Y-91450000D03*
X127325000Y-93990000D03*
X129865000Y-93990000D03*
X127325000Y-96530000D03*
X129865000Y-96530000D03*
X127325000Y-99070000D03*
X129865000Y-99070000D03*
X127325000Y-101610000D03*
X129865000Y-101610000D03*
X127325000Y-104150000D03*
X129865000Y-104150000D03*
X127325000Y-106690000D03*
X129865000Y-106690000D03*
X127325000Y-109230000D03*
X129865000Y-109230000D03*
X127325000Y-111770000D03*
X129865000Y-111770000D03*
X127325000Y-114310000D03*
X129865000Y-114310000D03*
X127325000Y-116850000D03*
X129865000Y-116850000D03*
X127325000Y-119390000D03*
X129865000Y-119390000D03*
%TD*%
D17*
%TO.C,H6*%
X69000000Y-69000000D03*
%TD*%
D18*
%TO.C,J8*%
X75900000Y-74500000D03*
D19*
X98100000Y-74500000D03*
D20*
X78300000Y-75225000D03*
X78300000Y-70775000D03*
X78900000Y-75225000D03*
X78900000Y-70775000D03*
X79500000Y-75225000D03*
X79500000Y-70775000D03*
X80100000Y-75225000D03*
X80100000Y-70775000D03*
X80700000Y-75225000D03*
X80700000Y-70775000D03*
X81300000Y-75225000D03*
X81300000Y-70775000D03*
X81900000Y-75225000D03*
X81900000Y-70775000D03*
X82500000Y-75225000D03*
X82500000Y-70775000D03*
X83100000Y-75225000D03*
X83100000Y-70775000D03*
X83700000Y-75225000D03*
X83700000Y-70775000D03*
X84300000Y-75225000D03*
X84300000Y-70775000D03*
X84900000Y-75225000D03*
X84900000Y-70775000D03*
X85500000Y-75225000D03*
X85500000Y-70775000D03*
X86100000Y-75225000D03*
X86100000Y-70775000D03*
X86700000Y-75225000D03*
X86700000Y-70775000D03*
X87300000Y-75225000D03*
X87300000Y-70775000D03*
X87900000Y-75225000D03*
X87900000Y-70775000D03*
X88500000Y-75225000D03*
X88500000Y-70775000D03*
X89100000Y-75225000D03*
X89100000Y-70775000D03*
X89700000Y-75225000D03*
X89700000Y-70775000D03*
X90300000Y-75225000D03*
X90300000Y-70775000D03*
X90900000Y-75225000D03*
X90900000Y-70775000D03*
X91500000Y-75225000D03*
X91500000Y-70775000D03*
X92100000Y-75225000D03*
X92100000Y-70775000D03*
X92700000Y-75225000D03*
X92700000Y-70775000D03*
X93300000Y-75225000D03*
X93300000Y-70775000D03*
X93900000Y-75225000D03*
X93900000Y-70775000D03*
X94500000Y-75225000D03*
X94500000Y-70775000D03*
X95100000Y-75225000D03*
X95100000Y-70775000D03*
X95700000Y-75225000D03*
X95700000Y-70775000D03*
%TD*%
D14*
%TO.C,H2*%
X132000000Y-132000000D03*
%TD*%
D15*
%TO.C,J7*%
X75570000Y-86460000D03*
D16*
X78110000Y-86460000D03*
X80650000Y-86460000D03*
X83190000Y-86460000D03*
X85730000Y-86460000D03*
X88270000Y-86460000D03*
X90810000Y-86460000D03*
X93350000Y-86460000D03*
X95890000Y-86460000D03*
X98430000Y-86460000D03*
X98430000Y-89000000D03*
X95890000Y-89000000D03*
X93350000Y-89000000D03*
X90810000Y-89000000D03*
X88270000Y-89000000D03*
X85730000Y-89000000D03*
X83190000Y-89000000D03*
X80650000Y-89000000D03*
X78110000Y-89000000D03*
X75570000Y-89000000D03*
%TD*%
D17*
%TO.C,H10*%
X105000000Y-69000000D03*
%TD*%
D15*
%TO.C,J4*%
X75570000Y-95380000D03*
D16*
X78110000Y-95380000D03*
X80650000Y-95380000D03*
X83190000Y-95380000D03*
X85730000Y-95380000D03*
X88270000Y-95380000D03*
X90810000Y-95380000D03*
X93350000Y-95380000D03*
X95890000Y-95380000D03*
X98430000Y-95380000D03*
X98430000Y-97920000D03*
X95890000Y-97920000D03*
X93350000Y-97920000D03*
X90810000Y-97920000D03*
X88270000Y-97920000D03*
X85730000Y-97920000D03*
X83190000Y-97920000D03*
X80650000Y-97920000D03*
X78110000Y-97920000D03*
X75570000Y-97920000D03*
%TD*%
D15*
%TO.C,J3*%
X46990000Y-55346600D03*
D16*
X49530000Y-55346600D03*
X46990000Y-57886600D03*
X49530000Y-57886600D03*
X46990000Y-60426600D03*
X49530000Y-60426600D03*
X46990000Y-62966600D03*
X49530000Y-62966600D03*
X46990000Y-65506600D03*
X49530000Y-65506600D03*
X46990000Y-68046600D03*
X49530000Y-68046600D03*
X46990000Y-70586600D03*
X49530000Y-70586600D03*
X46990000Y-73126600D03*
X49530000Y-73126600D03*
X46990000Y-75666600D03*
X49530000Y-75666600D03*
X46990000Y-78206600D03*
X49530000Y-78206600D03*
X46990000Y-80746600D03*
X49530000Y-80746600D03*
X46990000Y-83286600D03*
X49530000Y-83286600D03*
X46990000Y-85826600D03*
X49530000Y-85826600D03*
X46990000Y-88366600D03*
X49530000Y-88366600D03*
X46990000Y-90906600D03*
X49530000Y-90906600D03*
X46990000Y-93446600D03*
X49530000Y-93446600D03*
X46990000Y-95986600D03*
X49530000Y-95986600D03*
X46990000Y-98526600D03*
X49530000Y-98526600D03*
X46990000Y-101066600D03*
X49530000Y-101066600D03*
X46990000Y-103606600D03*
X49530000Y-103606600D03*
X46990000Y-106146600D03*
X49530000Y-106146600D03*
X46990000Y-108686600D03*
X49530000Y-108686600D03*
X46990000Y-111226600D03*
X49530000Y-111226600D03*
X46990000Y-113766600D03*
X49530000Y-113766600D03*
X46990000Y-116306600D03*
X49530000Y-116306600D03*
X46990000Y-118846600D03*
X49530000Y-118846600D03*
%TD*%
D14*
%TO.C,H8*%
X44135000Y-47000000D03*
%TD*%
M02*
